<?xml version="1.0" encoding="utf-8"?>
<!-- Generator: Adobe Illustrator 25.0.0, SVG Export Plug-In . SVG Version: 6.00 Build 0)  -->
<svg version="1.1" id="Слой_1" xmlns="http://www.w3.org/2000/svg" xmlns:xlink="http://www.w3.org/1999/xlink" x="0px" y="0px"
	 viewBox="0 0 2500 1200" style="enable-background:new 0 0 2500 1200;" xml:space="preserve">
<style type="text/css">
	.st0{fill:#010101;}
	.st1{fill:#23912F;}
	.st2{fill:#FEFEFE;}
</style>
<g>
	<path class="st0" d="M2227.7,687.7c-1,2-2,4.1-3.1,6.1c-3.7,5.9-8.8,10-15.1,12.9c-5.1,2.3-10.4,3.9-15.6,5.1
		c-15.6,3.5-31.7,3.9-47.7,2.7c-7.6-0.6-14.9-2.2-22.1-4.5c-13.1-4.5-23.3-12.5-30.7-24.1c-5.9-9.2-9.6-19.2-12.9-29.3
		c-3.9-12.3-7-24.8-10.2-37.4c-1.4-5.3-2.9-10.8-5.1-15.8c-1.2-2.7-2.5-5.5-4.1-8c-6.5-10.4-16.2-14.1-27.8-13.7
		c-5.9,0.2-8.4,2.9-9.4,8.6c-0.6,3.3-1,6.6-1,10c-0.2,13.1-0.2,26.2,1.2,39.3c0.4,4.3,1.2,8.6,2,12.9c0.8,4.5,3.1,8,7.2,10.6
		c2,1.2,3.7,2.3,5.7,3.3c2.5,1.4,4.7,3.1,6.6,5.3c8.2,8.6,7,21.5-2.7,28.6c-4.7,3.5-10.2,5.3-15.6,6.6c-7.4,1.8-14.9,2.5-22.5,3.3
		c-16.2,1.4-32.7,1.4-48.9,1c-11.3-0.4-22.9-1.4-34-3.9c-5.5-1.2-10.8-2.7-15.8-5.1c-3.5-1.6-6.8-3.7-9.6-6.3
		c-3.7-3.5-5.9-7.8-6.5-12.7c-0.6-5.1,0.6-9.8,4.9-13.1c2.2-1.8,4.5-3.5,6.8-5.1c1.6-1.2,3.1-2.2,4.5-3.1c6.1-4.7,10-10.8,11.7-18.2
		c1.8-7.8,2.5-15.8,2.9-23.9c0.6-12.3,1-24.8,1-37.2c0-25,0.2-50.1,0.2-75.1c0-9.6,0-19.2-1-28.7c-0.4-3.7-1-7.2-1.8-11
		c-1.8-7.6-6.3-13.1-13.3-16.8c-2.7-1.4-5.5-2.7-8-4.3c-9.6-6.1-11.1-17.2-3.9-26c3.1-3.7,6.8-6.3,11.3-8.2c4.7-2,9.6-3.3,14.5-3.9
		c10.2-1.4,20.5-1.4,30.7-0.6c9.6,0.6,19.2,1.4,28.7,2c14.5,0.8,28.9,0,43.4-0.8c15.8-0.8,31.9-2.3,47.7-2.9
		c20.7-0.8,40.9,2.2,60,10.4c7.8,3.3,15.1,7.4,21.7,12.5c15.4,11.7,24.2,27.4,26.2,46.9c1.2,11.9,0.2,23.5-4.1,34.6
		c-5.9,15.4-15.8,27.6-30.7,35.2c-1.4,0.6-2.7,1.4-3.9,2.3c-5.1,3.9-5.1,9,0,12.9c1.4,1.2,3.1,2,4.7,2.7c1.6,0.8,3.1,1.4,4.7,2
		c4.3,1.8,8.6,3.7,12.5,6.3c10.2,6.3,17.8,14.7,22.7,25.6c4.3,9.6,7,19.6,8.8,29.7c1.2,6.3,2,12.5,3.1,18.8c0.6,2.7,1.2,5.5,2,8.2
		c1.2,4.3,3.9,7.2,8,9.2c3.1,1.4,6.1,2.9,9.4,3.7c5.7,1.4,9.6,4.5,11.3,10l0.4,0.2C2227.7,680.3,2227.7,684,2227.7,687.7z
		 M2021.8,497C2021.8,497,2021.6,497,2021.8,497c-0.4,7.6-0.8,15.1-1,22.7c0,2.9,0,5.7,0.2,8.6c0.6,5.1,2.5,7,7.6,7.6
		c4.3,0.6,8.4,0.2,12.5-0.4c13.3-2,22.1-9,25.4-22.3c0.2-0.8,0.4-1.6,0.6-2.3c2-9.8,2-19.8,0.8-29.5c-0.6-3.9-1.6-7.8-2.9-11.7
		c-5.9-15.3-19.8-18.8-31.3-16.6c-5.1,1-8,3.7-9.4,8.6c-0.8,2.5-1.2,5.3-1.4,8C2022.6,478.6,2022.2,487.8,2021.8,497z"/>
	<path class="st1" d="M2004,748.1c-3.7,0-7.4-0.2-11.1-0.2c-230,0-460.1,0-690.1,0c-2.3,0-4.7,0-7,0.2c-1.8-3.7-4.5-5.7-8.4-6.1
		c-4.9-0.4-9.8-0.4-14.5,0.4c-11,1.8-22.1,3.5-32.9,6.5c-1.2-0.8-2.5-0.8-3.9-0.8c-1.6,0-2.9,0-4.5,0c-188.3,0-376.8,0-565.2,0
		c-1.8,0-3.7,0-5.5,0c-0.8,0-1.2-0.6-1.4-1.2c-0.2-0.8-0.2-1.8-0.2-2.5c0-4.1,0-8.4,0-12.5c0-3.7,0-3.7,3.5-3.7c0.8,0,1.8,0,2.5,0
		c519.2,0,1038.2,0,1557.4,0c1.8,0,3.3,0.2,5.1,0.2c0,6.6,0,13.5,0,20.1c-1.8,0-3.7-0.2-5.5-0.2c-50.5,0-100.7,0-151.2,0
		c-2.2,0-4.3,0.2-6.5,0.2c-3.1-2.2-6.6-3.9-10.4-4.9c-7.8-1.8-16-1.8-23.9-1c-8.4,0.8-16.8,2.5-24.8,5.7
		C2005.2,748.3,2004.6,748.1,2004,748.1z"/>
	<path class="st0" d="M2168.5,911.4c-9.8-1-19.8-1.8-29.5-2.7c-2.9-0.2-6.1-0.4-9,0.2c-2.7,0.4-5.3,0.4-8,0.4
		c-4.3,0-8.2-1.6-11.3-4.7c-6.6-6.6-11.1-14.7-13.7-23.7c-0.8-2.9-0.8-6.1-0.2-9c0.8-3.9,3.1-6.3,6.8-7c4.5-1,8.8-0.2,12.3,2.7
		c4.1,3.3,8.2,6.8,12.5,10.2c2.9,2.3,5.7,4.7,8.8,6.8c3.5,2.3,7.4,3.7,11.9,3.5c2.2,0,4.3-0.6,6.3-1.8c4.5-2.5,5.1-7.2,1.4-11
		c-2.2-2.2-4.9-3.3-7.6-4.7c-5.3-2.3-10.4-4.5-15.6-7c-4.9-2.3-9.4-5.1-13.9-8.2c-2.9-2.2-5.9-4.5-8.4-7.2
		c-11.9-12.5-10.8-30.3-2.3-41.5c5.3-7.2,12.3-12.1,20.7-15.4c9.4-3.7,19.2-4.7,29.1-4.5c7.6,0.2,15.1,1.6,22.5,2.7
		c3.5,0.6,7,0.2,10.4-0.8c2.2-0.6,4.1-1.2,6.3-1.8c3.9-1.2,7.6-0.2,11.1,1.8c1.6,1,3.1,2.2,4.5,3.3c5.1,4.5,9,10,11.9,16
		c1,2.2,2,4.3,1.8,6.6c-0.2,1.8-0.2,3.5,0,5.3c0,2.2-1,3.9-2.5,5.3c-1.6,1.6-3.5,2.5-5.7,3.1c-5.9,1.8-11.3,1.2-16.4-2.2
		c-3.9-2.3-7.4-5.1-11.1-7.8c-2.7-2-5.3-3.9-8.4-5.7c-2.2-1.2-4.3-2-6.6-2.3c-3.9-0.6-7.2,0.6-10,3.5c-2.5,2.9-2.5,6.1,0,9
		c1.2,1.4,2.7,2.3,4.3,3.3c2.5,1.6,5.5,2.5,8.2,3.7c4.3,1.8,8.8,3.3,13.1,5.3c8.6,3.7,16.8,8.2,24.2,14.1c5.3,4.1,9.6,8.8,11,15.6
		c0,0.4,0.6,0.8,0.6,1.2c0,4.1,0,8,0,12.1c-0.8,2.3-1.4,4.7-2.3,7c-1.8,3.9-4.7,7.2-8,10.2c-4.9,4.3-10.6,7.6-16.6,10.2
		c-7.6,3.1-15.6,4.5-23.9,5.1C2174.1,911,2171.2,911,2168.5,911.4z"/>
	<path class="st0" d="M1880.8,912.4c-0.2-0.2-0.4-0.6-0.8-0.6c-4.9-1.4-8.4-4.9-11.7-8.2c-4.9-4.9-9-10.4-12.7-16.2
		c-13.3-20.7-26.8-41.5-40.1-62.2c-1.4-2.2-2.7-4.1-4.3-6.3c-2.3-3.1-5.7-5.1-9.6-6.3c-2.2-0.6-4.1-1.2-6.3-1.8
		c-2.2-0.6-4.1-1.8-5.5-3.3c-2.9-3.1-2.9-7.8,0-11c2-2,4.3-3.1,6.8-4.1c4.3-1.6,8.8-2.5,13.3-2.9c17.2-2,34.4-2.3,51.8-1.6
		c7,0.4,14.1,0.8,20.9,2.5c3.3,0.8,6.5,1.8,9.2,3.7c3.5,2.7,4.1,6.5,1.6,10.2c-0.6,0.8-1.4,1.6-2,2.2c-0.8,0.8-1.6,1.4-2.3,2
		c-1,0.8-1.8,1.4-2.7,2.2c-2.5,2.2-3.1,4.7-2,7.6c0.8,2,1.8,4.1,2.7,5.9c1.8,3.1,3.9,6.3,6.3,9c1.6,1.8,3.3,3.3,5.5,4.5
		c3.3,1.8,7,1.2,9.8-1.4c0.8-0.6,1.4-1.6,2-2.3c3.1-3.9,5.9-8.2,8.4-12.5c1-1.6,1.6-3.3,2.3-5.1c1.2-2.3,0.6-4.7-1.2-6.5
		c-1.2-1.2-2.3-2.3-3.5-3.5c-1.4-1.4-2.7-2.5-3.5-4.3c-2-3.3-1.2-6.5,1.8-9c1.8-1.4,3.7-2.2,5.9-2.7c3.7-1.2,7.6-1.8,11.3-2
		c11-0.8,21.7-1.4,32.7-0.2c3.5,0.4,7,1,10.4,2.2c1.2,0.4,2.5,1,3.7,1.6c5.5,2.9,5.3,9.6,0.2,12.5c-2.2,1.4-4.5,2.2-7,2.9
		c-2.2,0.6-4.1,1.4-6.3,2c-3.5,1-6.3,3.1-8.4,6.1c-2.3,3.5-4.9,6.8-7,10.4c-12.5,19.8-25,39.7-37.5,59.6
		c-3.3,5.3-6.8,10.4-10.8,15.3c-3.7,4.7-8,8.6-13.9,10.4c-0.6,0.2-1.2,0.4-1.6,1.2C1884.9,912.4,1882.8,912.4,1880.8,912.4z"/>
	<path class="st2" d="M2177.1,911.4c8.2-0.6,16.2-2,23.9-5.1c6.1-2.5,11.7-5.7,16.6-10.2c3.3-2.9,6.1-6.3,8-10.2
		c1-2.2,1.6-4.7,2.3-7c0,11.1,0,22.1,0,33.2c-16.8,0-33.6,0-50.5,0C2177.1,912,2177.1,911.8,2177.1,911.4z"/>
	<path class="st1" d="M272.2,488.4c0.4-0.8,0.8-0.8,1.4-0.4c0.6,1.6,0.4,3.3,0.4,4.9c-0.2,4.5,0.6,9,0,13.5c-0.6,0-1.2-0.6-1.8,0.2
		C272.2,500.3,272.2,494.3,272.2,488.4z"/>
	<path class="st1" d="M1028.6,912.4c0.6-0.2,0.8-0.6,0.6-1.2c5.7,0,11.3,0,17,0c-0.2,0.6,0,1,0.6,1.2
		C1040.7,912.4,1034.6,912.4,1028.6,912.4z"/>
	<path class="st1" d="M1534.9,912.4c0.6-0.2,0.8-0.6,0.6-1.2c5.5,0,10.8,0,16.2,0c-0.4,0.6-0.2,1,0.4,1.2
		C1546.2,912.4,1540.5,912.4,1534.9,912.4z"/>
	<path class="st1" d="M1194.6,911.2c-0.2,0.6-0.2,0.8,0.4,1.2c-4.1,0-8,0-12.1,0c0.6-0.2,0.6-0.6,0.4-1.2
		C1187,911.2,1190.9,911.2,1194.6,911.2z"/>
	<path class="st1" d="M1392.7,912.4c0.2-0.2,0.2-0.6,0.2-0.8c3.5,0,7-0.2,10.6-0.2c-0.2,0.6,0,0.8,0.4,1.2
		C1400.1,912.4,1396.4,912.4,1392.7,912.4z"/>
	<path class="st1" d="M2177.1,911.4c0,0.4,0,0.6,0.2,1c-2.9,0-6.1,0-9,0c0-0.4,0-0.6,0.2-0.8C2171.2,911,2174.1,911,2177.1,911.4z"
		/>
	<path class="st1" d="M2227.7,820.7c-0.2,0-0.6-0.2-0.8-0.2c-0.2-1.8-0.4-3.5,0-5.3c0.4-0.2,0.6-0.4,1-0.6
		C2227.7,816.6,2227.7,818.7,2227.7,820.7z"/>
	<path class="st0" d="M273.9,506.4c0.6-4.5-0.2-9,0-13.5c0-1.6,0.2-3.3-0.4-4.9c0.2-4.3,0.4-8.6,0.8-12.9c1.8-16.8,5.3-33,11.3-48.9
		c10.2-26.4,25.8-49.3,46.3-68.6c20.3-19.6,43.6-34.2,69-45.6c22.3-9.8,45.8-16.4,69.8-20.3c19.4-3.1,38.7-3.9,58.3-2.5
		c19.9,1.4,39.3,5.5,57.5,13.9c9.6,4.5,18.2,10,25.8,17.2c13.3,12.7,20.5,28.2,21.1,46.3c1,27.6-1.4,54.6-9.2,81.2
		c-12.1,41.1-36.6,72.6-73.1,95c-16.4,10-33.8,17.6-51.8,24.1c-15.4,5.5-31.3,10-46.9,15.1c-7.6,2.3-15.3,4.9-22.7,8.2
		c-4.9,2.2-9.8,4.5-13.9,8c-3.5,2.9-6.1,6.3-7,10.8c-0.2,1-0.4,2-0.4,2.9c0,1,0.4,1.6,1.4,1.8c2.7,0.6,5.7,1.2,8.4,1.6
		c22.9,4.3,45.6,9.8,67.5,18.2c12.5,4.9,24.6,10.8,35.8,18.2c8.8,5.9,16.8,12.7,23.7,20.9c10.8,13.3,17,28.4,18.8,45.4
		c1.6,15.6-0.4,30.9-4.9,45.8c-8,25.8-19.6,49.9-36.2,71.4c-26.4,34.6-60.8,56.7-102.9,67.1c-16.4,4.1-33,6.3-49.9,6.5
		c-13.3,0.2-26-3.1-37.9-8.8c-23.5-11.3-38.3-29.9-44.8-55.1c-2-7.2-2.9-14.5-3.3-21.9c-0.2-4.9-0.6-9.8-0.8-14.7
		c-0.4-15.1,1.8-29.7,5.5-44.2c5.1-19.2,12.7-37.4,21.3-55.3c8-16.4,16.8-32.5,25.2-48.7c3.3-6.5,6.6-12.9,9.8-19.2
		c0.6-1.2,0.4-1.8-1-2.2c-4.7-1.4-9.4-2.7-13.9-4.1c-5.1-1.6-10.2-3.5-14.9-6.1c-3.3-1.8-6.5-3.7-9.2-6.3
		c-6.1-5.5-8.4-12.3-6.6-20.5c2.5-12.1,9-21.1,20.1-26.8c6.5-3.3,13.3-5.5,20.3-6.8c8.2-1.6,16.6-2.7,24.8-4.1
		c4.5-0.8,9-1.6,13.3-2.9c4.3-1.4,7.4-3.9,9.6-8.2c8.2-16,16.8-31.7,26.4-46.9c7.8-12.5,16-24.8,25.8-36
		c6.5-7.4,13.5-14.1,21.3-19.8c9.4-6.6,19.8-11.5,31.1-13.7c2.3-0.4,4.9-0.8,7.4-0.8c-0.2,2.2-1.4,3.3-2.2,4.9
		c-18.6,34-37.4,67.9-55.9,101.9c-0.8,1.4-2,2.7-2.2,4.5c1.8,1.2,3.5,0,5.1-0.4c28.4-6.1,55.9-14.1,82.3-25.8
		c12.7-5.7,25-12.1,36.4-20.3c7.6-5.5,14.5-11.5,20.3-18.8c5.3-6.5,9.2-13.5,11.3-21.7c1.6-5.9,2-11.9,1-18c-0.6-3.9-0.4-8-1.2-11.9
		c-2.2-12.7-8.4-22.9-18.8-30.3c-8.2-6.1-17.6-9.6-27.6-11.9c-11.9-2.9-24.2-3.5-36.6-3.3c-19.4,0.2-38.5,3.3-57.3,8
		c-16.2,4.1-31.9,9.4-46.9,16.6c-7.8,3.7-15.3,8-22.1,13.1c-3.7,2.7-7,5.7-10,9.2c-2.7,3.1-4.5,6.6-6.1,10.4
		c-1.4,3.7-1,7.2,0.4,10.8c1.8,3.9,4.5,7,8,9.6c1,0.6,2,1.2,3.3,2c-1.6,0.8-2.9,1.6-4.3,2.2c-32.5,14.5-65.5,28.9-98.6,43.4
		C274.5,510.9,273.9,511.9,273.9,506.4z M402.2,645.8c-2.7,0-5.3,0-8,0c-2.3-0.2-3.7,1-4.9,2.7c-10.6,15.6-20.3,31.5-28.7,48.3
		c-6.3,12.7-11.7,25.6-15.1,39.3c-2.5,10.6-4.1,21.3-2.5,32.5c2,13.9,8.6,24.8,20.5,32.3c2.9,1.8,5.9,3.3,9,4.5
		c16.2,5.9,32.9,8,49.9,3.9c29.1-7.2,53.4-22.3,72.6-45.4c10-12.1,16.6-25.8,19.2-41.5c1.2-7.6,0.2-14.7-3.5-21.3
		c-2.7-5.1-6.3-9.6-10.2-13.7c-5.7-6.1-12.1-11.1-19.2-15.6C457,656.2,430.8,647.6,402.2,645.8z"/>
	<path class="st0" d="M1445.5,404.3c11,0.2,21.5,0.2,32.1,1.4c6.1,0.8,11.9,1.8,17.6,4.1c2.9,1.2,5.7,2.7,8.2,4.7
		c9.4,7.4,10.6,24.1,0.6,32.5c-2.3,2.2-5.1,3.7-8,5.1c-2,1-3.9,2-5.9,2.7c-4.3,2-6.8,5.1-8.6,9.4c-1.4,3.3-2.2,6.6-2.9,10.2
		c-1.2,5.9-1.8,11.9-2.3,18c-1,11.9-1,23.9-1,35.8c0,35.8,0.2,71.6,0.2,107.2c0,11.7,0,23.5-1.2,35.2c-0.8,7.4-1.8,14.7-3.9,21.7
		c-1,2.9-2,5.7-3.5,8.2c-6.3,11-18.8,14.1-29.5,7.4c-2.2-1.4-4.1-2.7-6.1-4.5c-4.7-3.9-9.4-8-14.1-12.1
		c-41.5-37-82.9-74.1-124.4-111.1c-3.7-3.3-7.4-6.5-11.5-8.8c-2.9-1.8-5.9-3.1-9.2-3.7c-4.5-0.8-7.8,0.8-10.4,4.5
		c-2.3,3.7-3.3,8-4.1,12.3c-1,5.3-1.2,10.8-1.2,16c0,11.1,0,22.5,1.2,33.6c0.4,3.7,1,7.2,2,11c2,7.4,6.5,12.9,13.1,16.4
		c1.6,0.8,2.9,1.6,4.5,2.3c1,0.6,2,1.2,2.9,2c9.4,7,11,19,3.9,28.6c-2.7,3.7-6.5,6.3-10.6,8.4c-6.1,3.1-12.5,4.9-19.2,5.9
		c-18,2.9-36.2,3.1-54.2,1c-7.4-1-14.9-2.7-21.9-5.9c-3.9-1.8-7.8-4.1-11-7.2c-5.7-5.5-7.2-12.3-6.1-19.8c0.6-3.7,2.3-7,5.5-9.2
		c2.9-2,5.7-4.3,8.8-5.9c9.2-4.9,13.3-12.9,14.7-22.7c1.6-11,2.3-22.1,2.7-33c0.8-20.5,1.4-40.9,1-61.4c-0.4-13.1-0.6-26.2-2-39.3
		c-1-9.8-2.3-19.6-4.5-29.3c-2.3-10.8-8.2-18.6-18.4-22.9c-3.5-1.6-6.8-3.7-10-5.9c-10.2-7-9-20.5-3.3-27.2c2.5-3.1,5.9-5.5,9.4-7.4
		c5.7-2.9,11.9-4.7,18.2-5.9c6.8-1.2,13.7-2,20.5-2c12.5-0.2,25.2-0.6,37.7-0.2c10.4,0.4,19.8,3.7,27.8,10.4
		c2.2,1.8,4.1,3.3,6.3,5.1c35.6,31.1,71.4,62.4,107,93.5c3.9,3.5,7.8,6.8,12.3,9.6c2.2,1.6,4.5,2.9,7,3.7c5.1,1.8,9.4,0.2,11.9-4.5
		c2.2-4.1,2.7-8.6,3.1-13.1c0.4-7.8,0.4-15.8-0.4-23.7c-0.4-4.7-0.8-9.4-1.4-14.1c-1.6-9.4-6.3-16.4-15.1-20.7
		c-2.7-1.4-5.3-2.7-7.8-4.7c-4.9-3.5-7.4-8.4-7.8-14.5c-0.6-9.4,3.3-16.2,11.5-20.7c5.7-3.1,11.9-4.7,18.2-5.5
		C1424.6,404.3,1435.1,404.5,1445.5,404.3z"/>
	<path class="st0" d="M1550.7,545.7c0.4-17.8,0.8-33.8,1.2-49.9c0.2-6.5-0.2-13.1-0.8-19.6c-0.8-8.6-4.5-15.3-11.5-20.3
		c-1.8-1.2-3.5-2.5-5.3-3.7c-2.9-2.2-5.5-4.5-7.6-7.4c-5.7-8-5.3-17,1.4-24.4c2.9-3.3,6.6-5.7,10.6-7.6s8.2-2.9,12.5-3.7
		c12.9-2.3,26-3.7,39.1-4.1c11-0.4,21.9-0.4,32.9,0c14.3,0.6,28.6,2,42.4,5.1c4.1,1,8.2,2.2,11.9,4.1c8.8,4.7,12.9,11.9,12.1,21.9
		c-0.4,6.5-3.5,11.1-9,14.1c-3.3,1.8-6.5,3.5-10,4.9c-5.7,2.3-9,6.6-10.6,12.7c-1.4,5.1-2,10.2-2,15.4c-0.2,13.7-0.6,27.6-0.8,41.3
		c-0.4,16.8-0.8,33.6-1.2,50.3c-0.2,8.4,0.2,16.8,2.2,25c4.9,21.3,17,36.6,37.5,44.6c10.4,4.1,21.1,4.9,32.3,4.1
		c9-0.8,17.6-2.7,25.6-6.6c16.8-7.8,26.6-20.9,29.5-39.3c1.2-7,1.8-14.3,1.8-21.5c0-17.6,0.2-35.2,0-52.8c-0.2-17.8-0.8-35.6-2-53.4
		c-0.2-2.7-0.6-5.3-0.8-8c-0.6-5.7-3.3-10.2-7.8-13.5c-2.5-2-5.5-3.3-8.4-4.7c-4.1-2-8.2-3.9-11.7-6.6c-5.5-4.1-7.2-9.4-5.7-16
		c0.8-3.9,2.9-7,5.9-9.8c2.5-2.2,5.5-3.9,8.6-5.1c4.9-2,10-3.1,15.1-3.9c8.4-1.4,17-2.2,25.6-2.2c12.3-0.2,24.4-0.4,36.8,1
		c7,0.8,14.1,1.8,20.7,4.1c3.3,1.2,6.5,2.5,9.4,4.7c6.6,4.9,8.4,11.3,7.2,19.2c-0.6,2.9-2,5.3-4.5,7c-3.1,2.2-6.5,4.3-9.8,6.3
		c-2.3,1.6-4.9,2.9-7.2,4.7c-5.5,3.9-8.4,9-8.6,15.6c-0.2,8.2-1,16.4-1,24.6c-0.2,25.4-0.4,51-0.4,76.5c0,11.1-0.4,22.1-1,33.2
		c-0.6,9.2-1.6,18.4-3.5,27.4c-3.5,16.6-11.5,30.7-23.3,42.6c-10.8,11-23.5,19-37.5,25c-15.1,6.5-30.7,11-46.7,13.3
		c-19.6,2.9-39.1,3.3-58.9,1.6c-19.8-1.8-39.1-5.9-57.5-13.7c-12.7-5.5-24.4-12.5-35-21.5c-15.4-13.3-25.2-29.7-28.9-49.9
		c-2.3-12.9-3.5-26-3.7-39.1C1549.7,573.1,1550.1,558.6,1550.7,545.7z"/>
	<path class="st0" d="M988.3,401.4c56.5,1.4,110.5,35.8,132.6,91.5c6.1,15.3,9.6,31.1,9.8,47.5c0.6,25.6-2.7,50.8-11.3,75.1
		c-5.7,16.2-13.7,31.3-24.6,44.8c-18.8,23.1-43,37.5-71.8,44.6c-18.4,4.5-36.8,5.3-55.5,3.1c-28.2-3.1-54.2-12.3-77.8-28.2
		c-14.3-9.6-26.6-21.1-36.6-35c-10.2-14.1-16.8-29.7-19.9-46.7c-1.4-7.4-1.8-15.1-1.6-22.5c0-1.8,0-3.7,0.2-5.5
		c0-2.5,1.4-4.7,2.7-6.8c15.6-24.1,31.7-47.7,50.1-69.8c9.2-11.1,18.8-21.9,28.9-32.3c13.1-13.7,27.4-26.4,41.8-38.3
		c8.2-6.6,16.6-13.1,25-19.6c2-1.4,3.9-2.5,6.5-1.6C987.1,401.8,987.7,401.4,988.3,401.4z M1033.1,552.9c0-8.8-1.4-19.4-4.5-29.7
		c-2.9-9.8-7-18.8-13.3-27c-4.9-6.5-10.6-11.7-17.8-15.4c-11-5.5-21.9-5.5-32.9,0c-5.7,2.7-10.4,6.8-14.5,11.5
		c-5.9,6.6-10.2,14.1-13.5,22.3c-9,23.3-9.8,47.1-3.3,71c2.7,10.6,7.4,20.5,14.3,29.1c4.9,6.3,10.4,11.3,17.6,14.9
		c10.8,5.1,21.3,5.1,32.1,0c4.5-2.2,8.6-5.3,12.3-8.8c6.6-6.6,11.5-14.3,15.3-22.9C1030.5,584.2,1033.1,569.8,1033.1,552.9z"/>
	<path class="st1" d="M988.3,401.4c-0.4,0.2-1,0.4-1.4,0.2c-2.5-1-4.5,0-6.5,1.6c-8.4,6.3-16.8,12.7-25,19.6
		c-14.7,12.1-28.7,24.6-41.8,38.3c-10,10.4-19.6,21.1-28.9,32.3c-18.4,22.1-34.4,45.8-50.1,69.8c-1.4,2.2-2.7,4.3-2.7,6.8
		c-1.8,1.2-2.5,3.1-3.5,4.9c-19.9,33-37.4,67.5-52.8,102.9c-3.3,7.6-6.5,15.1-9.6,22.7c-0.8,1.8-1.8,2.7-3.7,2.5c-1,0-2,0-2.9,0
		c-31.3,0-62.6,0-93.7,0c-1.4,0-2.7,0-4.1,0c-2,0-2.2-0.4-2.3-2.3c0-1.6,0-2.9,0-4.5c0-68.4,0-136.9,0-205.3c0-1.8,0.2-3.7,0.2-5.5
		c0.6,0.6,1.4,1,2,1.6c2.5,3.3,5.7,6.1,9,8.8c12.5,10.2,26.8,14.3,42.6,11c16.4-3.3,29.3-11.9,37.7-26.6c0.2-0.2,0.6-0.4,0.8-0.6
		c0,19.9,0.4,39.7,0.8,60c1.6-0.6,2-1.8,2.5-2.5c7.4-11.1,14.9-22.5,22.5-33.2c12.5-17.4,25.8-34,41.1-48.9
		c17-16.6,35.8-30.9,57.5-41.1c18.8-9,38.5-14.5,59.3-17c15.8-2,31.9-2,47.7-0.6c2.3,0.2,4.5,0.6,6.8,0.8c0,1.6-1.2,1.8-2,2.3
		C986.1,400.2,986.1,400.2,988.3,401.4z"/>
	<path class="st0" d="M939.8,847.6c0,8.2,0.2,16.4,0,24.6c-0.2,5.7,1.8,10.6,5.7,14.7c1,1.2,2.2,2.2,3.1,3.3c2.7,3.1,3.1,6.6,0.8,10
		c-1.6,2.3-3.7,3.9-6.3,5.1c-4.5,2.2-9.2,3.1-14.1,3.9c-12.3,1.8-24.8,1.8-37.2,0.8c-6.5-0.4-12.9-1.6-19.2-3.7
		c-2.9-1-5.7-2.2-8-4.3c-3.5-3.1-3.9-7-1-10.8c1-1.4,2.2-2.5,3.3-3.9c2.2-2.2,3.3-4.9,4.1-8c1-3.7,1.2-7.6,1.4-11.5
		c0.8-10.2,1-20.5-0.4-30.7c-0.4-2.7-1-5.3-2-7.8c-2-4.1-5.1-6.5-9.6-7c-1.8-0.2-3.7-0.2-5.5,0c-6.8,0.6-11.3,5.1-12.1,11.9
		c-1.2,11-1,22.1-0.4,33.2c0.2,2.3,0.4,4.7,0.6,7c0.2,3.9,1.4,7.2,3.5,10.4c1.4,2.2,2.9,4.1,4.5,6.1c2.5,3.7,2.2,7.8-1,11
		c-2,2-4.3,3.1-6.8,4.1c-4.1,1.6-8.4,2.3-12.7,2.9c-5.9,0.8-11.7,1.2-17.6,1.2c-7.6,0-15.1,0-22.7-0.2c-5.7-0.2-11.3-0.8-17-2
		c-2.3-0.4-4.5-1.2-6.6-2.2c-3.9-2-5.7-5.1-5.3-9.4c0.2-2,0.8-3.5,2.3-4.7c1.8-1.4,3.3-2.7,5.1-4.1c3.1-2.3,4.9-5.3,5.3-9.2
		c1-10.2,1.6-20.3,1.6-30.7c0-3.3-0.4-6.6-1-10c-0.4-2.3-1.2-4.5-2.2-6.6c-2.2-4.3-5.5-6.6-10.2-7.2c-2.9-0.4-5.7,0-8.4,1.2
		c-3.7,1.6-5.7,4.7-6.5,8.4c-1.2,5.5-1.6,11-1.8,16.4c-0.2,7.6-0.2,15.1,0,22.7c0,5.9,1.4,11.3,4.9,16c1,1.4,1.8,2.9,2.2,4.5
		c1.4,3.7,0.6,6.8-2.5,9.4c-2.2,1.8-4.5,2.7-7.2,3.5c-4.1,1.2-8.2,2-12.3,2.5c-3.9,0.6-8,1.2-11.9,1.2c-11.9,0.4-23.9,0.6-35.8-0.8
		c-3.7-0.4-7.2-1.2-10.8-2.2c-2.3-0.8-4.7-1.8-6.6-3.5c-3.3-3.1-3.5-7.4-0.2-10.6c1.4-1.4,3.1-2.5,4.7-3.7c5.3-3.7,8-8.8,8.6-15.3
		c1.4-13.3,1.8-26.4,1.2-39.7c0-1.8-0.4-3.3-0.6-4.9c-0.6-3.7-2.5-6.5-5.7-8.6c-1.6-1.2-3.3-2.2-4.9-3.5c-3.1-2.5-3.7-5.9-1.8-9.4
		c1-1.8,2.5-3.1,4.1-4.3c2.7-1.8,5.7-3.1,8.6-4.1c15.1-4.5,30.3-8.6,46-10.8c3.5-0.6,7-0.6,10.6-1c0.6,0,1.4,0,2,0
		c5.1,0.4,7.6,2.7,8.2,7.8c0.2,1.8,0,3.7,0,5.5c0,1.6,0,3.1,0.2,4.5c0.8,3.7,4.3,4.5,6.5,2.9c1.6-1,3.1-2.2,4.5-3.3
		c16.4-14.9,36-19.4,57.5-16.8c3.1,0.4,6.3,1.4,9.2,2.5c5.9,2.3,10.8,6.1,14.5,11.3c1.2,1.8,2.3,3.3,3.9,4.7c1.4,1,2.7,1.4,4.1,0.4
		c2.3-1.6,4.7-3.1,7-4.9c6.6-5.1,13.7-9,21.7-11.3c13.3-4.1,26.8-4.5,40.3-0.6c2.2,0.6,4.5,1.6,6.6,2.5
		c12.1,5.7,18.2,15.4,18.8,28.6c0.2,5.3,0,10.4-0.2,15.6C940.4,840.6,940.2,844.1,939.8,847.6C940,847.6,940,847.6,939.8,847.6z"/>
	<path class="st0" d="M1194.6,911.2c-3.7,0-7.4,0-11.3,0c-25-2.5-43.2-15.3-55.3-37c-9.4-16.8-9-34,0.2-50.8
		c5.3-9.6,12.3-17.6,21.7-23.5c20.7-13.1,42.8-16.6,66.5-9.6c2.9,0.8,5.7,2.2,8.4,3.1c3.3,1.2,5.7,0.2,6.5-3.3c0.8-2.9,1-5.9,0.4-9
		c-0.4-2.5-1.8-4.3-3.9-5.7c-2-1.2-4.3-2-6.5-2.5c-2.3-0.6-4.5-1.2-6.6-2.5c-4.7-2.9-5.5-7.8-1.8-11.9c1.4-1.6,3.1-2.7,4.9-3.5
		c2.3-1.2,4.9-2.2,7.4-2.9c4.9-1.6,9.8-2.7,14.7-3.5c10.8-2.7,21.9-4.7,32.9-6.5c4.9-0.8,9.8-0.8,14.5-0.4c3.9,0.4,6.8,2.3,8.4,6.1
		c0,2.5,0.2,5.1,0.2,7.6c0,35.2,0,70.4,0,105.6c0,3.7,0.2,7.4,0.6,11c0.4,2.9,1.8,5.1,4.1,6.6c2.2,1.4,4.3,2.7,6.3,4.1
		c1.8,1.2,3.1,2.5,3.9,4.5c1.4,3.3,1,6.3-1.4,9c-1.8,2.2-4.1,3.5-6.5,4.7c-3.7,1.8-7.8,3.1-11.9,4.1c-15.3,3.5-30.7,5.5-46.3,5.3
		c-0.4,0-0.6,0-1,0c-5.9-0.2-6.3-0.6-7.4-6.6c-1.2-6.1-4.1-7.6-9.6-4.7c-1.2,0.6-2.3,1.4-3.5,2.2
		C1214.6,906.9,1205,910.2,1194.6,911.2z M1232.2,843.2c0.2-3.7-0.4-8.4-1-13.3c-0.4-3.1-1.2-6.3-2.5-9.2c-2-3.9-4.9-6.3-9.2-7.2
		c-7.8-1.8-14.3,0.4-19,6.8c-2.3,3.1-4.1,6.5-5.3,10.2c-3.3,10.4-3.9,20.9-2,31.7c0.8,3.7,2.2,7.4,4.3,10.8c3.3,5.1,8,8,14.1,8.6
		c7,0.6,12.3-2.2,15.6-7.8c1.6-2.7,2.5-5.9,3.1-9C1231.6,858.2,1232.2,851.4,1232.2,843.2z"/>
	<path class="st0" d="M1046.2,911c-5.7,0-11.3,0-17,0c-11.3-0.8-22.3-3.1-32.7-8c-11-5.1-20.3-12.5-27.4-22.5
		c-6.3-8.8-9.8-18.8-10-29.5c-0.4-12.7,3.7-24.1,11.7-34c9.6-11.9,21.7-19.8,36-24.8c12.3-4.3,25-5.9,38.1-5.5
		c10.8,0.4,21.3,2.2,31.3,6.5c7.2,2.9,13.7,7,19.6,12.1c5.3,4.7,9.8,10.2,12.7,16.6c2.9,6.3,4.3,12.7,2.5,19.6
		c-0.6,2-1.4,3.7-2.3,5.5c-2.3,3.7-5.9,5.9-10.4,6.3c-1.6,0.2-2.9,0-4.5,0c-20.9,0-42,0-63,0c-1.8,0-3.3,0-5.1,0.2
		c-2.2,0.2-3.3,1.6-3.1,3.7c0.2,2,0.6,4.1,1.8,5.7c1,1.6,2.2,3.1,3.5,4.3c8.6,8,19,11.9,30.9,11.1c9.8-0.8,19.2-3.1,27.8-8
		c1.6-1,3.3-1.6,5.1-2.2c2-0.8,3.9-0.6,5.9,0.4c6.5,3.3,11,10.8,5.3,18.8c-2.5,3.5-5.9,6.1-9.4,8.2c-8.8,5.7-18.4,9.6-28.6,12.1
		C1058.9,909.6,1052.4,910.6,1046.2,911z M1038.6,830.8L1038.6,830.8c2.9,0,5.7,0,8.6,0c1.6,0,2.9-0.2,4.5-0.6
		c2.7-1,4.3-2.9,4.5-6.1c0.4-6.6-3.7-12.5-10.4-14.3c-3.5-1-7.2-1.4-11-0.4c-6.5,1.6-10.6,5.7-12.5,11.9c-1.8,5.9,0.6,9.2,6.6,9.4
		C1032.1,830.8,1035.2,830.8,1038.6,830.8z"/>
	<path class="st0" d="M751.3,479.4c-0.2,0.2-0.6,0.4-0.8,0.6c-8.6,14.7-21.5,23.1-37.7,26.6c-16,3.3-30.1-0.8-42.6-11
		c-3.3-2.7-6.5-5.3-9-8.8c-0.4-0.6-1.2-1-2-1.6c-4.5-6.8-7.6-14.1-9.2-22.1c-4.5-25.2,9.2-50.6,34-60c32.1-12.1,66.3,7.2,72.9,40.5
		C759.5,456,757.7,468.1,751.3,479.4z"/>
	<path class="st0" d="M1551.5,911.2c-5.5,0-10.8,0-16.2,0c-12.1-0.8-23.9-3.5-34.8-9c-10.2-5.1-18.8-12.3-25.4-21.7
		c-6.1-9-9.6-18.8-9.8-29.7c-0.2-12.3,3.7-23.5,11.3-33c8.8-11.3,20.1-19,33.4-24.2c13.1-5.1,27-7,41.1-6.5
		c10.8,0.4,21.3,2.2,31.5,6.5c8.6,3.5,16.4,8.4,22.9,15.3c4.5,4.7,8.2,9.8,10.6,15.8c2,5.3,2.9,10.6,1.8,16.2
		c-0.6,2.3-1.4,4.5-2.7,6.5c-2.3,3.7-5.9,5.9-10.4,6.3c-1.6,0.2-2.9,0-4.5,0c-20.9,0-42,0-63,0c-1.8,0-3.3,0-5.1,0.2
		c-2.2,0.2-3.1,1.6-3.1,3.9c0.2,2,0.8,3.9,2,5.7c1,1.6,2.2,3.1,3.5,4.3c8.8,8,19,11.9,30.9,11c9.8-0.8,19.2-3.1,27.8-8
		c1.4-0.8,2.7-1.2,4.1-2c3.1-1.4,5.9-0.8,8.6,1.2c3.9,2.9,6.6,6.6,5.9,11.9c-0.4,2.7-1.8,5.1-3.5,7c-2.3,2.7-5.1,4.9-8,6.8
		c-10.4,6.6-21.5,11-33.4,13.3C1561.7,910.2,1556.6,910.8,1551.5,911.2z M1544.7,830.8L1544.7,830.8c2.7,0,5.5,0,8,0
		c1.4,0,2.7,0,3.9-0.4c3.5-1,5.3-3.1,5.3-7c0-5.9-2.9-10.2-8.2-12.7c-4.3-2-8.6-2.3-13.3-1.2c-6.3,1.6-10.2,5.7-12.3,11.5
		c-2,5.9,0.6,9.4,6.8,9.8C1538.4,830.8,1541.5,830.8,1544.7,830.8z"/>
	<path class="st0" d="M1680.8,910.4c-9.8,0-19.6,0-29.1-1.2c-5.1-0.6-10.4-1.4-15.3-2.9c-2.5-0.8-5.1-1.8-7.2-3.5
		c-4.7-3.7-5.1-9.8-1.4-14.3c1.8-2.2,3.9-3.7,6.3-4.9c5.9-2.7,8.2-7.2,9-13.5c0.6-6.6,1.2-13.3,1.4-20.1c0.2-5.5,0.2-11.1,0.2-16.6
		c0-1.8-0.2-3.3-0.4-5.1c-0.4-2.9-2-4.9-4.7-6.1c-1.4-0.6-2.7-1.2-4.3-1.6c-2.2-0.8-3.9-1.8-5.7-3.1c-3.3-2.9-3.9-6.6-1.8-10.4
		c1.2-2.2,2.9-3.7,4.9-4.9c2.7-1.8,5.7-2.9,8.6-4.1c9.8-3.5,19.9-5.9,30.1-7.8c6.8-1.4,13.7-2.2,20.5-2.7c4.1-0.4,8-0.4,12.1,0.4
		c2.3,0.4,3.5,1.6,4.1,3.7c0.4,1.4,0.8,2.5,1,3.9c0.4,1.8,0.6,3.7,1,5.5c0.4,2.3,1,4.3,3.5,5.1c2.3,0.6,4.1-0.8,5.9-2.3
		c0.8-0.8,1.4-1.6,2-2.3c9.2-11,20.9-15.1,35-13.7c4.5,0.4,8.6,1.6,12.5,3.5c10,5.1,15.6,17,14.1,26.4c-1.2,6.8-4.7,12.5-10,17
		c-6.3,5.5-13.9,8-22.1,8.6c-8.6,0.6-16.2-1.4-23.3-6.6c-2-1.4-3.7-2.7-5.7-4.1c-1-0.8-2-1.4-2.9-2c-4.3-2-8.2-0.4-9,4.5
		c-0.2,2-0.6,3.9-0.8,6.1c-0.4,10-0.4,20.1,0.8,30.1c0.2,1.4,0.6,2.5,0.8,3.9c0.8,2.9,2.5,5.1,5.5,5.9c2,0.6,3.9,1.2,5.9,1.6
		c2.7,0.8,5.5,1.8,7.8,3.3c5.7,3.7,6.5,10,2.2,15.1c-2.5,2.9-5.7,4.7-9.4,5.7c-4.1,1.2-8.2,1.6-12.3,2
		C1700.9,910.2,1690.7,910.4,1680.8,910.4z"/>
	<path class="st0" d="M1403.3,911.2c-3.5,0-7,0.2-10.6,0.2c-9.8-1-19.8-1.8-29.5-2.7c-2.9-0.2-5.7-0.4-8.6,0.2
		c-2,0.4-4.1,0.4-6.1,0.4c-6.3,0.4-11.5-2-15.6-6.6c-5.3-6.3-9.2-13.1-11.5-20.9c-0.8-2.5-1-5.3-0.6-8c0.4-5.3,3.1-8.2,8.4-9
		c4.1-0.6,7.6,0.4,11,2.9c3.7,2.9,7.2,5.9,11,9c2.9,2.3,5.9,4.9,9,7.2c2.5,2,5.5,3.3,8.6,3.9c3.1,0.8,6.3,0.6,9.4-0.6
		c1.4-0.6,2.7-1.4,3.7-2.5c2-2.3,2.2-5.3,0.4-7.8c-1.2-1.6-2.5-2.7-4.1-3.5c-2.2-1.2-4.5-2.2-6.8-3.1c-7-2.9-14.1-6.1-20.7-10
		c-4.3-2.5-8.6-5.3-12.3-8.8c-4.7-4.3-8.4-9.2-10.2-15.3c-2.9-10.8-1.2-20.7,5.7-29.5c5.9-7.6,13.7-12.7,22.9-15.8
		c8.6-2.9,17.4-3.7,26.4-3.5c7.6,0.2,15.1,1.6,22.5,2.7c3.7,0.6,7.4,0.2,11-0.8c2.2-0.6,4.3-1.2,6.3-1.8c3.7-1,7-0.2,10.2,1.6
		c1.6,0.8,2.9,1.8,4.1,2.9c5.9,5.1,10.6,11.3,13.5,18.6c1,2.5,1.8,5.1,1.8,7.8c0.2,3.5-1.4,6.3-3.9,8.2c-2.7,2.2-5.9,3.1-9.4,3.3
		c-4.7,0.4-9-0.8-12.9-3.3c-3.9-2.5-7.6-5.5-11.5-8.2c-2.9-2.2-6.1-4.3-9.4-5.7c-2.9-1.2-6.1-2-9.4-0.8c-1.4,0.4-2.5,1-3.5,1.8
		c-4.1,3.1-4.3,7.6-0.6,11.1c2,1.8,4.3,3.1,6.8,4.3c3.3,1.4,6.8,2.7,10.4,4.1c8,3.1,15.6,6.6,23.1,11.1c3.7,2.3,7.2,4.7,10.6,7.6
		c13.5,11.3,13.5,29.9,2.2,42c-6.1,6.5-13.7,10.8-21.9,13.9C1416.6,909.4,1410.1,910.6,1403.3,911.2z"/>
	<path class="st0" d="M2069.7,831.8c0,11.1,0,22.1,0,33.2c0,2.7,0.4,5.3,0.6,8c0.4,4.9,2.9,8.4,6.8,11.1c2.2,1.4,4.3,2.7,6.3,4.1
		c3.1,2.3,4.1,4.9,3.1,9.4c-0.6,2.2-2.2,3.7-3.9,5.1c-2,1.6-4.3,2.5-6.6,3.5c-3.9,1.4-8,2.3-12.3,2.7c-5.1,0.6-10,1.2-15.1,1.4
		c-12.7,0.2-25.6,0.4-38.3-1.2c-4.7-0.6-9.4-1.4-13.9-2.2c-2.9-0.6-5.7-2-8-3.9c-1.8-1.6-3.1-3.5-3.3-6.1c-0.4-2.7,0.2-5.5,2.5-7.2
		c2-1.6,4.1-2.9,6.3-4.3c4.3-2.5,6.8-6.3,8-11.1c1.6-6.3,1.8-12.7,1.6-19c-0.2-8-1-16-1.4-24.1c-0.2-4.1-2.2-6.8-5.7-8.8
		c-1.2-0.6-2.5-1-3.7-1.6c-1.6-0.8-3.1-1.4-4.5-2.3c-5.1-3.5-4.9-10-0.8-13.9c2-1.8,4.3-3.1,7-3.9c4.1-1.4,8.4-2.5,12.5-3.7
		c13.7-3.9,27.8-6.6,41.8-8.6c3.7-0.6,7.4-0.6,11.1-1c0.6,0,1.4,0,2,0c5.3,0.4,8,2.5,7.8,8.2C2069.5,808,2069.7,819.9,2069.7,831.8
		L2069.7,831.8z"/>
	<path class="st0" d="M2004,748.1c0.6,0,1,0.2,1.6,0c8-3.1,16.2-4.9,24.8-5.7c8-0.8,16-1,23.9,1c3.7,1,7,2.7,10.4,4.9
		c0.4,0.6,0.8,1.2,1.2,1.6c3.9,4.3,3.1,10.8,0.2,14.9c-2.2,3.1-5.3,5.1-8.6,6.6c-6.8,3.3-14.1,5.5-21.5,6.8
		c-7.8,1.4-15.6,2.2-23.5,2c-4.1,0-8.4-0.6-12.3-1.8c-2.2-0.6-4.1-1.6-5.9-2.7c-8.4-4.9-9.8-15.1-1.4-21.5c2.3-1.8,4.9-2.9,7.4-4.3
		C2001.5,749.5,2003,749.3,2004,748.1z"/>
</g>
</svg>
