<?xml version="1.0" encoding="utf-8"?>
<!-- Generator: Adobe Illustrator 25.0.0, SVG Export Plug-In . SVG Version: 6.00 Build 0)  -->
<svg version="1.1" id="Слой_1" xmlns="http://www.w3.org/2000/svg" xmlns:xlink="http://www.w3.org/1999/xlink" x="0px" y="0px"
	 viewBox="0 0 2500 1200" style="enable-background:new 0 0 2500 1200;" xml:space="preserve">
<style type="text/css">
	.st0{fill:#03A1E2;}
	.st1{fill:#244183;}
</style>
<g>
	<path class="st0" d="M777.9,111.4c0.1,1.7,0.1,3.5,0.1,5.1c0,61.5,0,123,0,184.5c0,5.9,0.5,5.4-5.2,5.4c-9.7,0-19.5,0-29.2,0
		c-4.6,0-4.3-0.1-4.3-4.2c0-32.8,0-65.7-0.1-98.5c0-14.9,0-29.9,0-44.7c0-0.8,0-1.7,0-3.1c-1.3,1.2-1.3,2.4-1.6,3.5
		c-3,10.9-5.8,21.8-8.7,32.8c-9.8,36.6-19.5,73.3-29.3,109.9c-0.3,0.8-0.5,1.6-0.7,2.4c-0.3,1.2-1.1,1.6-2.2,1.6c-0.8,0-1.7,0-2.6,0
		c-10.6,0-21.3,0-31.9,0c-0.7,0-1.5,0-2.2,0c-1.9-0.1-2.2-0.3-2.6-2.2c-2-7.7-4-15.2-6.1-22.9c-10.9-40.8-21.7-81.7-32.6-122.4
		c-0.3-0.8-0.1-1.6-1.5-2.3c-0.1,1.6-0.1,3.1-0.1,4.4c0,46.4-0.1,92.8-0.1,139.4c0,1.9,0.8,4.2-0.4,5.4c-1.3,1.5-3.8,0.7-5.8,0.7
		c-9.7,0.1-19.5,0-29.2,0c-1.5,0-2.8-0.3-4.3,0.3c-0.1-65-0.1-130.1-0.1-195.2c21.3,0,42.5,0,63.6,0c0.5,1.6,1.1,3.2,1.5,5
		c3,10.6,5.9,21.3,8.9,31.9c8.6,30.4,17.2,61.1,25.8,91.6c0.3,1.1,0.4,2.3,1.5,3.4c0.4-1.5,0.9-2.7,1.2-4
		c10.2-36.7,20.3-73.3,30.5-110.1c1.6-5.9,3.2-11.8,4.7-17.8C735.9,111.4,756.9,111.4,777.9,111.4z"/>
	<path class="st0" d="M1922.7,306.6c-1.3-0.5-2.8-0.3-4.3-0.3c-8.9,0-17.8,0-26.6,0c-1.2,0-2.3,0-3.5,0c-0.9,0-1.6-0.5-1.6-1.5
		c0-0.9,0-2,0-3c0-4,0-8.1,0-12c0-0.8,0.3-1.7-0.5-2.7c-1.1,0.3-1.6,1.3-2.3,2.2c-5.5,6.2-11.8,11.2-19.4,14.8
		c-22.5,10.8-48.6,6.3-66.6-10.9c-9.8-9.4-15.9-20.9-18.8-34c-2.4-11-3.1-22.1-2-33.4c0.7-7,1.6-14,3.8-20.7
		c6.9-21.1,20.9-35,42.4-40.6c13.7-3.6,27.3-3,40.4,2.8c5.9,2.7,11.3,6.3,16,10.6c0.8,0.8,1.6,1.6,2.6,2.4c0.3,0.3,0.7,0.5,1.1,0.4
		c0.5,0,0.5-0.5,0.5-0.9c0-1.3,0-2.6,0-3.9c0-19.6,0-39.3,0-58.9c0-1.9,0.1-3.8,0.1-5.5c12.9,0,25.8,0,38.7,0
		C1922.7,176.5,1922.7,241.6,1922.7,306.6z M1817.7,234.3c0,2.6-0.1,5.1,0,7.7c0.3,5.2,0.9,10.6,2.7,15.6
		c4.6,13.1,13.2,21.1,27.4,22.5c7.4,0.7,14.3-0.9,20.3-5.4c6.6-4.8,10.9-11.3,13.2-19.1c2.4-8.3,2.8-17,2.3-25.6
		c-0.4-5.9-1.1-11.7-3-17.4c-4.4-12.8-13.2-20.4-26.9-21.9c-7.4-0.8-14.3,0.8-20.4,5c-7.1,4.7-11.4,11.6-13.7,19.6
		C1817.7,221.8,1817.3,228,1817.7,234.3z"/>
	<path class="st0" d="M1086.7,471.8c-5.1,0.3-10.4,0.4-15.5,0.7c-1.2,0-2.3,0-3.5,0c-0.8,0-1.3-0.4-1.5-1.2
		c-0.3-1.1-0.5-2.3-0.8-3.4c-0.7-2.2-1.3-4.4-2.3-6.5c-3.1-7.3-8.5-12.1-16-14.7c-3.8-1.2-7.5-2-11.3-2.3
		c-7.9-0.7-15.7-0.4-23.5,1.6c-4.3,1.1-8.5,2.8-12.1,5.4c-4.4,3.2-6.6,7.4-6.3,12.9c0.3,3.9,2,7.1,4.8,9.7c2.2,2,4.6,3.4,7.3,4.6
		c4.7,2.2,9.7,3.6,14.5,5.1c9.3,2.7,18.7,4.6,28,6.9c9.4,2.3,18.8,5,28,8.6c5.1,2,10,4.3,14.5,7.4c12.6,8.7,20.6,20.4,22.9,35.8
		c2.3,15.5-0.5,29.6-9.6,42.5c-5.7,8.1-12.9,14.1-21.8,18.4c-7.8,3.9-16,6.2-24.5,7.7c-13.1,2.3-26.2,2.4-39.4,1.5
		c-10.4-0.7-20.4-2.7-30.1-6.6c-18.3-7.3-30.5-20.3-37.4-38.6c-2.3-6.1-3.8-12.4-4.6-18.7c-0.3-1.9-0.1-2,1.6-2.3
		c4.3-0.5,8.6-0.9,12.8-1.3c7-0.7,14-1.3,21-1.9c1.1-0.1,2.3-0.1,3.5-0.3c1.2-0.1,1.7,0.5,2,1.7c0.1,0.9,0.5,1.9,0.7,3
		c1.1,3.9,2.4,7.7,4.2,11.3c4.7,9.6,12.2,15.7,22.5,18.7c7.8,2.3,15.7,2.8,23.8,2.2c4.3-0.4,8.5-0.9,12.6-2.2
		c6.1-1.7,11.3-4.8,15.5-9.6c4.2-4.6,6.2-9.8,5.8-16.1c-0.3-5.1-2.6-9.3-6.6-12.5c-3.4-2.6-7.1-4.3-11-5.7
		c-6.1-2.2-12.4-3.6-18.7-5.1c-10.2-2.6-20.7-4.7-30.8-7.8c-7.9-2.4-15.7-5.2-23.1-9.1c-7.4-3.9-13.5-9.1-18.6-15.7
		c-14.3-18.6-13.5-45.2,3.8-63.5c7-7.4,15.6-12.1,25-15.3c7.4-2.6,14.9-3.9,22.7-4.7c10.5-1.1,20.9-0.9,31.3,0.3
		c8.6,0.9,17,2.7,25,5.9c14.7,5.9,25.6,15.6,32,30.1c2.7,5.9,3.9,12.2,4.7,18.7c0.1,0.7,0.1,1.5,0.1,2.2c0,1.1-0.4,1.6-1.5,1.6
		c-2.6,0.1-5.1,0.4-7.7,0.4c-4.2,0.1-8.3,0-12.5,0C1086.7,471.5,1086.7,471.7,1086.7,471.8z"/>
	<path class="st1" d="M1050.3,860.2c2.2,0.1,3.6,0.9,5.2,1.6c44.5,17,89.1,33.9,133.7,50.9c32,12.1,64,24.4,95.9,36.5
		c5,1.9,4.6,1.3,2.8,5.9c-14.5,39.6-28.9,79-43.5,118.5c-0.4,1.2-0.9,2.4-1.3,3.5c-1.5,0-2-1.1-2.7-1.9
		c-13.5-15.2-27-30.4-40.5-45.7c-31.9-35.9-63.6-71.8-95.5-107.9c-17.4-19.5-34.6-39-51.9-58.7
		C1052.1,862.2,1051.3,861.4,1050.3,860.2z"/>
	<path class="st1" d="M1485,875.9c-0.5,0-0.9,0-1.3-0.1c-6.6-2.2-234.1-89.1-236.9-90.4c-0.1-1.2,0.4-2.4,0.9-3.6
		c12.8-35,25.6-70,38.5-104.9c1.9-5.1,3.8-10.2,5.7-15.3c0.4-0.9,0.8-1.7,1.2-2.7c2.7,2.2,146.8,164.5,190.2,214.3
		C1483.8,873.9,1484.8,874.6,1485,875.9z"/>
	<path class="st1" d="M1476.2,899.6c0,1.1-0.5,1.3-0.9,1.7c-73.1,62.3-146,124.7-219.2,187.3c-0.3-2,0.7-3.1,1.1-4.4
		c6.5-16.1,12.9-32.2,19.2-48.3c24.1-60,48.2-120.1,72.2-180.1c0.5-1.5,0.7-3.5,2-4c1.5-0.7,3,0.7,4.3,1.2
		c39.4,15.2,78.8,30.4,118.3,45.6C1474.1,898.8,1475.1,899.2,1476.2,899.6z"/>
	<path class="st1" d="M1199.7,849.8c-4.6,11.7-9.3,23.4-14,34.8c-1.2,0.1-2-0.1-2.8-0.4c-40.9-15.7-81.8-31.6-122.6-47.4
		c-0.3-0.1-0.3-0.4-0.7-0.9c73.3-62.6,146.6-125.3,220.2-188.1c0.5,1.5-0.3,2.4-0.5,3.4c-7.4,18.6-14.9,37.3-22.3,55.8
		c-17.8,44.4-35.5,88.8-53.4,133.2c-0.7,1.6-1.5,3.1-1.5,4.8V845c-0.7,0.3-0.5,0.8-0.7,1.3c-0.3,0.3-0.4,0.7-0.7,0.9l0,0
		C1200.5,848.1,1200.1,848.9,1199.7,849.8z"/>
	<path class="st0" d="M1367.5,290.4c-0.8,0.9-1.6,2-2.4,3c-9.6,9.1-20.9,14.5-33.9,16c-8.6,1.1-17,0.3-25-2.3
		c-12.1-3.6-21.5-11.3-28.9-21.4c-6.9-9.3-10.9-19.8-12.9-31.1c-2.2-11.6-2.4-23-0.8-34.7c1.7-13.1,5.9-25,14.5-35.2
		c10.5-12.5,23.8-19.9,40.1-21.9c7.1-0.8,14.3-0.7,21.4,0.8c11,2.2,19.9,7.7,27.3,15.9c1.5,1.7,3,3.5,4.4,5.2
		c1.1-0.3,0.8-1.2,0.8-1.7c0-4.6,0-9.1,0-13.7c0-0.8,0-1.7,0.1-2.6c0-0.7,0.5-1.1,1.1-1.1c0.7-0.1,1.5-0.1,2.2-0.1
		c10.1,0,20,0,30.1,0c0.5,0,1.2,0,1.7,0c0.8,0.1,1.3,0.5,1.3,1.3c0,0.9,0.1,2,0.1,3c0,61.9,0,123.8,0,185.7c0,4.6,0.1,4.3-4.2,4.3
		c-10.5,0-21,0-31.3,0c-0.9,0-2,0-3-0.1c-0.7,0-1.1-0.5-1.1-1.1c-0.1-1.3-0.1-2.6-0.1-3.9c0-19.8,0-39.6,0-59.3
		c0-1.5,0.1-3.1-0.3-4.6C1368.1,290.7,1367.9,290.6,1367.5,290.4z M1370,233c0.1-2.6-0.4-6.7-0.9-10.8c-0.5-4.3-1.7-8.5-3.5-12.4
		c-3.6-7.8-9.3-13.5-17.4-16.4c-16-5.8-33.1,1.2-40.2,16.4c-2.4,5.2-3.6,10.9-4.3,16.5c-0.7,6.7-0.7,13.5,0,20.2
		c0.5,5.9,1.7,11.6,4.4,17c8.7,17.8,31.1,22.1,45.7,10.6c5.9-4.6,10.2-10.4,12.6-17.5C1369.1,249.4,1369.9,242.1,1370,233z"/>
	<path class="st0" d="M1239.2,235.1c0.1,10.6-1.5,20.3-5.4,29.6c-8.7,20.2-23.8,33.8-44.5,40.9c-11.2,3.8-22.6,4.8-34.3,3.9
		c-10.6-0.8-20.9-3.4-30.7-7.8c-19.5-8.6-31.9-23.4-37.1-44c-2.4-9.1-3.4-18.7-2.6-28.1c1.7-23.3,14.5-52.1,49.2-63.1
		c11.8-3.8,24.1-5,36.6-3.9c9,0.8,17.9,2.6,26.2,6.3c22.5,10.4,36.7,27.3,41.6,51.8C1239.1,225.7,1239.5,230.8,1239.2,235.1z
		 M1125.4,236.1c-0.1,5.7,0.4,11.3,2,17c5.4,19,23.7,30.9,45.1,24.9c12.2-3.4,19.8-12.1,23.7-24.1c1.5-4.6,2-9.3,2.3-14
		c0.5-8.1-0.3-16-3.1-23.7c-7-19-26.6-28.1-46.3-21.1c-11.3,4-18.3,12.5-21.7,23.9C1125.8,224.5,1125.3,230.2,1125.4,236.1z"/>
	<path class="st0" d="M1533.5,291.6c-1.7,0.3-2.6,1.5-3.6,2.4c-7.9,6.5-16.7,11.2-26.5,13.7c-12,3-23.8,2.8-35.7-0.5
		c-7.9-2.2-14.7-6.3-20.3-12.4c-6.3-6.9-9.7-15.1-10.1-24.5c-0.3-5.5,0.3-10.9,2.3-16c3.9-10.2,10.9-17.4,20.9-21.8
		c5.9-2.7,12.1-4.4,18.4-5.9c8.5-2.2,17.1-3.4,25.7-5.1c7.1-1.5,14.3-3,21.3-5.1c1.1-0.4,2.2-0.7,3.2-1.1c0.8-0.3,1.3-0.9,1.3-2
		c0-3.6,0.1-7.1-1.1-10.6c-1.5-4.7-4.3-8.1-9-9.6c-1.5-0.5-3-0.9-4.6-1.2c-6.7-1.2-13.5-1.5-20.2-0.4c-6.5,0.9-11.4,4.3-14.9,10
		c-0.8,1.3-1.5,2.8-2.2,4.2c-1.5,3.2-1.5,3.2-4.7,2.7c-9.7-1.6-19.5-3.2-29.2-4.8c-0.4-0.1-0.8-0.1-1.2-0.1
		c-1.5-0.3-1.9-0.9-1.3-2.4c2.3-7,5.5-13.5,10.2-19.2c7.5-9.3,17.4-14.3,28.8-16.7c11.6-2.4,23.3-3,35.1-2.3
		c6.3,0.4,12.5,0.9,18.8,2.2c6.2,1.3,12.1,3.6,17.5,6.9c9.1,5.4,14.4,13.2,15.9,23.8c1.1,7.9,1.6,16,1.5,23.9
		c-0.3,12.9-0.4,25.8-0.5,38.7c-0.1,6.7,0.1,13.5,0.5,20.2c0.7,8.2,2.7,16,6.2,23.5c0.5,1.2,1.1,2.3,1.5,3.5
		c0.1,0.4-0.1,0.8-0.5,0.9c-0.5,0.1-1.1,0.1-1.7,0.1c-11.2,0-22.3,0-33.5,0c-0.4,0-0.8,0-1.3,0c-1.1,0-1.9-0.5-2.3-1.6
		c-0.8-2.4-1.7-4.8-2.6-7.3C1534.7,295.5,1534,293.5,1533.5,291.6z M1529.8,239.6c-1.1-0.3-2,0-3,0.3c-3.2,0.8-6.3,1.6-9.6,2.3
		c-7.5,1.7-15.1,3.4-22.6,5.1c-3.1,0.7-6.1,1.6-8.9,3.1c-7.9,4-11.2,12.2-7.8,20.3c2.6,6.2,7.4,10.1,13.9,11.8
		c12.2,3.4,26.9-3,33.4-11c2-2.6,3.5-5.2,4-8.5c1.5-7.7,1.3-15.3,0.8-23C1530.1,239.8,1530,239.7,1529.8,239.6z"/>
	<path class="st0" d="M941.4,239.3c0,9.6,0,19.2,0,28.8c0,5.9,0.4,11.7,1.5,17.5c0.9,5.8,3.1,11.3,5.5,16.7c0.4,0.9,0.8,1.7,1.2,2.7
		c0.3,0.7-0.3,1.1-0.8,1.2c-0.7,0.1-1.5,0-2.2,0c-10.8,0-21.5,0-32.3,0c-3.5,0-3.5,0-4.7-3.1c-1.1-3.1-2.2-6.2-3.1-9.4
		c-0.8-2.3-1.1-2.4-2.8-1.1c-0.8,0.7-1.6,1.2-2.3,1.9C886.9,306,870.6,311,852,309.3c-6.5-0.7-12.8-1.9-18.7-4.7
		c-10.9-5.1-19-13.1-22.2-24.9c-3.6-13.3-1.9-25.8,7.3-36.9c4-4.8,9-8.3,14.8-10.8c6.9-3,14-5,21.4-6.5c8.9-1.9,17.8-3.4,26.6-5.2
		c6.5-1.3,12.9-2.8,19.1-5c2.4-0.8,2.4-0.9,2.4-3.4c0.1-3-0.1-6.1-0.9-9c-1.3-5.1-4.3-8.7-9.4-10.4c-1.9-0.7-3.9-1.2-5.8-1.5
		c-6.1-0.7-12-1.1-18-0.3c-7,1.1-12.4,4.3-15.9,10.5c-0.8,1.5-1.6,3.1-2.3,4.6c-1.1,2.2-1.2,2.3-3.6,1.9c-5.2-0.8-10.5-1.7-15.7-2.6
		c-5-0.8-10-1.6-14.8-2.4c-2.2-0.4-2.6-0.8-2-2.8c3.4-10.2,8.7-19.2,17.4-26.1c6.3-5,13.6-7.9,21.4-9.6c11.8-2.6,23.9-3,35.9-2.3
		c6.2,0.4,12.2,0.9,18.3,2.2c7.5,1.6,14.5,4.6,20.7,9.1c6.3,4.6,10.4,10.6,11.8,18.3c0.9,4.7,1.5,9.3,1.7,14
		C942,217.2,941.4,228.3,941.4,239.3z M902.6,248.7c0-2.7,0-5.4,0-8.2c0-0.8-0.5-1.3-1.3-1.1c-2.4,0.5-4.7,1.2-7.1,1.7
		c-7.9,1.7-15.9,3.5-23.8,5.2c-3.9,0.9-7.8,1.9-11.4,3.6c-9.8,4.6-12.8,15.6-6.3,24.5c3.9,5.4,9.4,8.3,16,8.7
		c9.8,0.8,18.3-2.3,25.8-8.6c4.4-3.8,7-8.6,7.7-14.4C902.5,256.4,902.6,252.6,902.6,248.7z"/>
	<path class="st0" d="M1320.9,506.1c0-0.8,0-1.2,0.1-1.6c3.5-11,9.1-20.6,18.7-27.6c4.8-3.5,10.1-5.9,15.9-7.5
		c7.4-2.2,14.8-3.1,22.5-3.4c9.1-0.4,18.3-0.3,27.4,0.8c9.3,1.1,18.3,3.2,26.4,8.5c1.6,1.1,3.1,2,4.6,3.2c5.4,4.3,8.7,9.8,10.2,16.4
		c0.9,4.6,1.7,9.3,1.9,14s0.3,9.4,0.3,14.1c0,17.4-0.5,34.7-0.1,52.1c0.1,6.5,0.8,12.9,2.6,19.1c1.1,4,2.7,7.8,4.3,11.7
		c0.4,1.1,1.2,1.9,1.1,3.1c-0.5,0.7-1.3,0.5-2,0.5c-11.2,0-22.3,0-33.5,0c-0.4,0-0.8,0-1.3,0c-1.3,0.1-2.2-0.4-2.6-1.7
		c-1.1-3.1-2.2-6.2-3.2-9.3c-0.4-1.1-0.7-2.2-1.1-3.2c-1.5-0.4-2.2,0.8-3,1.5c-7.5,6.3-15.9,11.2-25.4,13.9
		c-12.9,3.5-25.8,3.5-38.6-0.4c-7.5-2.3-14.1-6.3-19.4-12.2c-6.1-6.6-9.3-14.4-9.8-23.3c-0.4-6.5,0.3-12.9,2.8-19
		c4.2-9.6,11.3-16.1,20.7-20.2c6.5-2.8,13.2-4.7,20-6.2c8.9-1.9,17.8-3.5,26.5-5.2c6.3-1.3,12.6-2.7,18.7-4.7c4.7-1.5,4-1.1,4.2-5.5
		c0-2.3-0.3-4.6-0.8-6.9c-1.3-5.7-4.7-9.4-10.2-11c-2.7-0.8-5.7-1.2-8.5-1.5c-5-0.5-10-0.5-14.9,0.3c-7.4,1.2-12.6,5-16.1,11.4
		c-0.1,0.4-0.4,0.8-0.7,1.1c-0.8,1.5-0.8,3.8-2.6,4.3c-1.5,0.4-3.4-0.1-5-0.5c-8.9-1.5-17.8-3-26.6-4.4
		C1323.2,506.6,1322.2,506.4,1320.9,506.1z M1409.3,542.7c-0.4,0-0.7-0.1-0.9,0c-9.7,2.7-19.5,4.4-29.3,6.6
		c-4.6,1.1-9.3,2.2-13.5,4.2c-11.4,5.8-11.3,17.2-6.2,24.2c3.2,4.4,7.7,7.3,13.1,8.3c4,0.9,7.9,0.8,12,0c7.1-1.5,13.6-4.6,18.7-10
		c3.2-3.4,5.1-7.5,5.8-12.2c0.9-6.7,0.8-13.5,0.7-20.2C1409.6,543.5,1409.4,543.1,1409.3,542.7z"/>
	<path class="st0" d="M1644.7,185.6c2.4-2.4,3.9-4,5.5-5.7c7.8-7.5,16.7-13.1,27.3-15.6c15.2-3.8,30.1-2.8,44.5,3.8
		c12,5.5,18.8,15.1,21.5,27.7c0.9,4.8,1.3,9.7,1.6,14.5c0.1,3.5,0.1,6.9,0.1,10.4c0,26.6,0,53.3,0,80c0,0.8,0,1.7,0,2.6
		c0,2.8-0.1,2.8-3,2.8c-11.2,0-22.3,0-33.6,0c-0.5,0-1.2,0-1.7-0.1c-0.8,0-1.3-0.5-1.3-1.3c0-1.3,0-2.6,0-3.9c0-21.9,0-43.9,0-65.8
		c0-6.9-0.3-13.7-0.8-20.6c-0.1-2.4-0.4-4.8-1.1-7.3c-2.3-8.7-8.1-14.3-16.8-15.9c-9.7-1.9-18.8,0.1-26.9,6.1
		c-5.4,4-8.7,9.4-10.2,15.9c-1.1,4.6-1.6,9.3-1.7,14c-0.1,6.1-0.3,12-0.3,18c0,18.7,0,37.3,0,56c0,5,0.1,4.7-4.6,4.7
		c-10.2,0-20.3,0-30.5,0c-0.4,0-0.8,0-1.3,0c-3.4,0-3.4-0.1-3.4-3.4c0-0.7,0-1.5,0-2.2c0-43.3,0-86.6,0-129.8c0-0.4,0-0.8,0-1.3
		c0-4.4-0.1-4.2,4.2-4.2c9.4,0,19,0,28.4,0c0.9,0,2,0,3,0.1c0.7,0,1.1,0.4,1.1,1.1c0,1.2,0.1,2.3,0.1,3.5
		C1644.7,174.9,1644.7,179.7,1644.7,185.6z"/>
	<path class="st0" d="M1274.6,553.9c0,16.8,0,33.5,0,50.3c0,1.3,0,2.6,0,3.9c0,0.8-0.4,1.3-1.3,1.3c-0.8,0-1.7,0.1-2.6,0.1
		c-10.6,0-21.3,0-31.9,0c-0.8,0-1.7,0-2.6-0.1c-0.8-0.1-1.2-0.7-1.2-1.5c0-1.2,0-2.3,0-3.5c0-12.4,0-24.6,0-37c0-21,0-41.8,0-62.8
		c0-0.8,0-1.7,0-2.6c0-4.3,0.3-4.2-4.2-4.2s-8.9,0-13.3,0c-0.9,0-2,0-3,0c-0.8,0-1.3-0.5-1.3-1.3c-0.1-0.7-0.1-1.5-0.1-2.2
		c0-7.4,0-14.9,0-22.3c0-0.7,0-1.5,0.1-2.2c0.1-0.8,0.5-1.3,1.3-1.3c1.1-0.1,2.3,0,3.5,0c5,0,10.1,0,15.1,0c1.7,0,2-0.3,2-2
		c0-3.8,0-7.4,0-11.2c0-5.5,0.7-10.9,1.6-16.3c1.6-8.9,6.5-15.5,14-20.2c5.8-3.5,12-5.5,18.6-6.5c14.7-2.2,29.2-0.5,43.5,3.2
		c0.4,0.1,0.8,0.1,1.2,0.4c0.5,0.3,0.9,0.7,0.8,1.3c0,0.3-0.1,0.5-0.1,0.8c-1.3,7-2.7,14-4,21.1c-0.1,0.4-0.1,0.8-0.3,1.2
		c-0.3,0.9-0.7,1.5-1.7,1.3c-1.3-0.3-2.8-0.5-4.3-0.7c-4.2-0.5-8.2-1.1-12.4-1.2c-2.3,0-4.6,0.3-6.9,0.7c-5,0.9-8.2,3.9-9.3,9
		c-0.4,1.6-0.8,3.4-0.8,5.1c-0.1,4-0.1,8.1-0.1,12c0,1.1,0.5,1.6,1.6,1.6c1.2,0,2.3,0,3.5,0c6.9,0,13.7,0,20.6,0c0.9,0,2,0,3,0.1
		c0.7,0,1.1,0.4,1.2,1.1c0.1,0.4,0.1,0.8,0.1,1.3c0,8.2,0,16.3,0,24.5c0,2.2-0.3,2.6-2.6,2.6c-7.4,0-14.9,0-22.3,0
		c-1.2,0-2.3,0-3.5,0c-0.9,0-1.6,0.7-1.6,1.6c0,1.2,0,2.3,0,3.5C1274.6,520.1,1274.6,537,1274.6,553.9z"/>
	<path class="st0" d="M1529.4,535.7c0,10.4,0,20.6,0,30.9c0,2.4,0.1,4.8,0.5,7.3c0.7,4.6,3.6,7.4,8.2,7.9c2.7,0.3,5.5,0.1,8.1-0.5
		c2.8-0.7,5.5-1.5,8.3-2.2c1.3-0.4,1.9-0.1,2,1.2c0.3,1.9,0.4,3.8,0.7,5.5c0.7,6.5,1.5,12.8,2.2,19.2c0.3,2.3,0,2.4-2,3.2
		c-5.9,2.2-12.1,3.6-18.4,4.2c-7.4,0.7-14.9,0.9-22.3-0.5c-3.9-0.8-7.7-2.2-11.3-3.9c-6.5-3.1-10.6-8.1-12.9-14.8
		c-1.7-5.5-2.4-11.2-2.7-17c-0.3-5.2-0.3-10.6-0.3-15.9c0-19,0-37.8,0-56.8c0-1.2,0-2.3,0-3.5c0-1.5-0.4-1.7-1.7-1.9
		c-2.2,0-4.3,0-6.5,0c-2.6,0-5.1,0-7.8,0c-1.9,0-2.2-0.3-2.2-2.3c0-0.4,0-0.8,0-1.3c0-7.4,0-14.9,0-22.3c0-0.8,0-1.7,0.1-2.6
		c0.1-0.7,0.5-1.1,1.1-1.1c0.9-0.1,2-0.1,3-0.1c3.9,0,7.8,0,11.6,0c2,0,2.3-0.3,2.3-2.3c0-4.6,0-9.1,0-13.7c0-3.4,0-6.6,0-10
		c0-1.5,0.5-2.4,1.9-3.1c4.4-2.4,8.7-4.8,13.2-7.3c7.1-3.9,14.3-7.9,21.4-11.8c0.7-0.4,1.2-0.7,1.9-0.9c0.7-0.3,1.2,0,1.2,0.7
		c0.1,1.3,0.1,2.6,0.1,3.9c0,13.2,0,26.4,0,39.6c0,1.2,0,2.3,0,3.5c0,0.8,0.5,1.3,1.3,1.3c1.1,0.1,2.3,0.1,3.5,0.1
		c6.2,0,12.4,0,18.6,0c0.8,0,1.7,0,2.6,0.1s1.3,0.5,1.3,1.3c0.1,0.7,0,1.5,0,2.2c0,7.5,0,15.2,0,22.7c0,0.7,0,1.5-0.1,2.2
		c-0.1,0.7-0.5,1.1-1.1,1.1c-1.1,0.1-2.3,0.1-3.5,0.1c-6.3,0-12.6,0-19,0c-0.7,0-1.5,0-2.2,0c-1.1,0-1.5,0.7-1.5,1.6
		c0,1.2,0,2.3,0,3.5C1529.3,514.2,1529.3,524.9,1529.4,535.7C1529.3,535.7,1529.4,535.7,1529.4,535.7z"/>
	<path class="st0" d="M1016.7,183.9c0.8-0.7,1.3-1.6,2-2.6c2.4-3.2,4.8-6.3,7.7-9.3c6.3-6.6,14.1-9.6,23.1-9.8
		c8.7-0.1,17.1,2,24.9,5.9c2,1.1,2.2,1.2,1.3,3.2c-3.5,9.4-7.1,18.7-10.6,28.1c-0.3,0.7-0.4,1.3-1.2,1.7c-2.6-1.2-5.1-2.4-7.8-3.5
		c-5.4-2-10.8-2.8-16.4-1.5c-6.1,1.3-10.6,4.7-13.7,10.1c-3,5.5-4.6,11.4-5.4,17.5c-1.1,9.8-1.6,19.6-1.6,29.6c0,15.7,0,31.5,0,47.2
		c0,0.9,0,2,0,3c-0.1,2.2-0.3,2.4-2.6,2.4c-4.4,0-8.9,0-13.3,0c-6.5,0-12.9,0-19.4,0c-0.9,0-2,0-3-0.1c-0.8,0-1.2-0.7-1.3-1.3
		c0-0.9,0-2,0-3c0-44,0-88,0-132c0-0.9,0-2,0-3c0-0.8,0.4-1.3,1.2-1.5c0.5,0,1.1-0.1,1.7-0.1c10.2,0,20.3,0,30.5,0
		c0.7,0,1.5,0,2.2,0.1s0.9,0.5,1.1,1.2c0,0.9,0.1,2,0.1,3c0,3.9,0,7.8,0,11.6C1016.2,182.1,1015.8,182.9,1016.7,183.9z"/>
	<path class="st0" d="M1289,948.5c-1.3,0.1-2.2-0.5-3-0.9c-8.5-4.2-17-8.2-25.6-12.4c-0.7-0.3-1.3-0.7-1.9-0.9
		c-0.8-0.4-1.3-1.1-1.2-2c0-0.7,0-1.5,0.1-2.2c0.7-10.1,1.5-20.3,2.2-30.4c0.5-7.5,1.1-15.2,1.5-22.7c0-0.5,0.1-1.1-0.8-1.5
		c-0.7,0.9-0.9,2.2-1.3,3.4c-4.6,14.4-9,28.7-13.6,43.1c-1.6,5-0.9,5.1-5.8,2.6c-18-9.6-35.9-19.1-53.9-28.7
		c-3.5-1.9-3.4-1.5-1.6-5.1c5.1-10.4,10.2-20.9,15.3-31.2c0.4-0.8,0.8-1.5,1.2-2.3c0.4-0.7,0.9-1.1,1.7-0.9c0.8,0.1,1.7,0.3,2.6,0.5
		c17.6,4.4,35.2,9,52.9,13.5c5.4,2.4,11.2,2,16.8,2.3c13.9,0.8,27.8,1.3,41.7,2c0.7,0,1.5,0.1,2.2,0.1c0.5,0,0.7,0.5,0.7,0.9
		c-0.1,0.7-0.4,1.3-0.7,2c-9.4,22.7-18.7,45.6-28.1,68.3C1289.8,946.8,1289.3,947.6,1289,948.5z"/>
	<path class="st0" d="M1149.8,539.3c0-21.8,0-43.6,0-65.4c0-1.2,0-2.3,0-3.5c0-1.5,0.4-1.9,1.7-1.9c0.7,0,1.5,0,2.2,0
		c10.6,0,21.3,0,31.9,0c0.8,0,1.7,0,2.6,0.1c0.8,0,1.2,0.7,1.3,1.5c0.1,0.9,0,2,0,3c0,44,0,88,0,132c0,0.8,0,1.7,0,2.6
		c-0.1,1.5-0.3,1.7-1.7,1.9c-0.5,0-1.2,0-1.7,0c-10.9,0-21.8,0-32.7,0c-0.7,0-1.5,0-2.2,0c-0.8-0.1-1.3-0.5-1.3-1.3
		c0-1.3,0-2.6,0-3.9C1149.8,582.5,1149.8,561,1149.8,539.3z"/>
	<path class="st0" d="M1270.4,862.6c0.7-6.1,1.2-12.2,1.9-18.3c0.8-7.1,1.5-14.3,2.3-21.4c0.7-5.8,1.2-11.7,1.9-17.5
		c0.1-0.9,0.5-1.3,1.5-1.1c0.8,0.3,1.6,0.7,2.4,0.9c20.3,8.6,40.5,17.4,60.8,26c0.5,0.3,1.1,0.4,1.6,0.7c1.5,0.7,1.6,0.9,0.9,2.6
		c-5.1,12.1-10.4,24.2-15.5,36.3c-0.5,1.2-1.2,1.9-2.6,1.6c-3-0.4-5.9-0.7-9-1.1c-11.6-1.6-23.3-3.2-34.8-4.8
		c-3.1-0.4-6.2-0.8-9.4-1.2c-1.7-0.3-2-0.5-2-2.2C1270.3,863.2,1270.3,862.9,1270.4,862.6C1270.3,862.6,1270.4,862.6,1270.4,862.6z"
		/>
	<path class="st0" d="M1199.7,849.8c0.4-0.9,0.8-1.7,1.2-2.7l0,0c0.3-0.3,0.4-0.7,0.7-0.9c0.3-0.4,0.4-0.8,0.7-1.3v0.1
		c7.1-13.1,14.3-26.1,21.5-39.2c2.7-4.8,5.4-9.8,8.1-14.7c0.4-0.7,0.7-1.2,1.1-1.9c0.5-0.8,1.2-1.2,2.2-0.9c0.5,0.1,1.1,0.4,1.6,0.5
		c10.1,3.6,20.2,7.4,30.3,11c2.7,0.9,2.8,1.1,2.4,4c-0.9,7.4-2,14.8-3,22.2c-0.9,7.4-1.9,14.8-2.8,22.2c-0.7,4.8-1.2,9.7-1.9,14.5
		c-0.3,1.9-0.5,2-2.6,1.6c-5.5-1.3-11.2-2.8-16.7-4.2c-12.8-3.2-25.6-6.5-38.3-9.7C1202.5,850.2,1201.2,850.1,1199.7,849.8z"/>
	<path class="st0" d="M1169.7,449.6c-5.9,0-11.7,0-17.6,0c-1.9,0-2.3-0.3-2.3-2.3c0-9.8,0-19.8,0-29.6c0-2.3,0.3-2.6,2.4-2.6
		c11.6,0,23.1,0,34.8,0c0.4,0,0.8,0,1.3,0.1c0.7,0.1,1.1,0.5,1.1,1.1c0.1,0.7,0.1,1.5,0.1,2.2c0,9.3,0,18.6,0,27.8
		c0,0.4,0,0.8,0,1.3c-0.1,1.6-0.3,1.9-2.2,1.9c-0.9,0-2,0-3,0C1179.5,449.6,1174.7,449.6,1169.7,449.6L1169.7,449.6z"/>
</g>
</svg>
