<?xml version="1.0" encoding="utf-8"?>
<!-- Generator: Adobe Illustrator 25.0.0, SVG Export Plug-In . SVG Version: 6.00 Build 0)  -->
<svg version="1.1" id="Слой_1" xmlns="http://www.w3.org/2000/svg" xmlns:xlink="http://www.w3.org/1999/xlink" x="0px" y="0px"
	 viewBox="0 0 2500 1200" style="enable-background:new 0 0 2500 1200;" xml:space="preserve">
<style type="text/css">
	.st0{fill:#204283;}
	.st1{fill:#249239;}
</style>
<g>
	<path class="st0" d="M234.7,779.1c14,0,27.8-0.2,41.8,0c8.1,0,16.2-0.6,24.4-0.2c2.4,0.2,3.5,0.8,3.7,3.2
		c2.4,17.9,5.1,35.7,7.7,53.6c1.4,10.4,3,20.7,4.5,31.1c0,0.6,0,1.4,1.2,2c1-8.3,2-16.4,3-24.8c2.4-20.3,5.1-40.6,7.5-60.7
		c0.4-3.2,1.8-4.5,5.3-4.5c19.9,0.2,40,0.2,59.9,0c3,0,4.1,0.6,4.1,4.1c0,65,0,129.8,0,194.7c0,2.6-0.6,4.1-3.7,4.1
		c-12.8-0.2-25.6-0.2-38.4,0c-3.7,0-4.7-1.2-4.3-4.5c0-0.2,0-0.4,0-0.8c0-40-0.2-80-0.2-120c0-1.4,0-2.6-0.6-4.1
		c-1.2,9.3-2.6,18.9-3.9,28.2c-3.7,27-7.3,54.2-11,81.2c-0.8,5.3-1.4,10.8-2,16c-0.4,2.8-1.6,3.7-4.5,3.7c-8.1-0.2-16.2-0.2-24.4,0
		c-3.2,0-4.3-1.2-4.7-4.1c-2.2-15.6-4.5-31.3-6.7-46.7c-3.5-24.4-7.1-48.7-10.6-73.1c0-0.6,0-1.2-1.2-1.4c0,1.4,0,2.6,0,3.9
		c0,38.8,0,77.6,0,116.4c0,4.9-0.2,5.1-4.9,5.1c-14.2,0-28.4,0-42.4,0.2C234.7,914.1,234.7,846.7,234.7,779.1z"/>
	<path class="st0" d="M897.1,1006.9c-1-1.4-2.4-1.2-3.9-1.4c-11.4-1.6-15.4-6.3-16-17.9c-0.2-5.5-0.8-6.1-6.1-6.5
		c-24.2-2-41.2-18.5-44.3-42.4c-1.2-10.2-1.8-20.3-1.8-30.5c0-20.7-0.2-41.6,0-62.3c0-9.7,0-19.7,2.2-29.4
		c4.5-20.1,16.7-33.5,36.8-38.8c18.7-4.9,36.8-3.7,54.4,4.7c17.7,8.5,26.6,22.9,27.8,42c2,33.3,0.6,66.4,0.8,99.7
		c0,5.3-0.8,10.6-1.2,15.8c-1.2,16.2-10.8,25.4-25.6,30.3c-2,0.6-5.7,0-5.3,4.1c0.4,3.5,3,6.3,6.7,6.7c7.3,1,14.8,0.2,22.1,0.6
		c2.6,0.2,3.2,1.2,3.2,3.7c0,7.3,0,14.4,0,21.7C930.2,1006.9,913.6,1006.9,897.1,1006.9z M893.9,880c0-17.7,0-35.1,0-52.8
		c0-4.1-0.2-8.1-1-12.2c-0.6-3.5-2.4-5.5-6.1-5.7c-3.9-0.2-6.3,1.6-7.3,5.3c-0.8,3.5-1.2,7.1-1.2,10.6c0,36.1,0,72.1,0,108.2
		c0,3.7,0.2,7.1,0.8,10.8c0.6,4.5,3.2,7.3,6.9,7.3c4.1,0,6.1-2,7.1-6.9c0.8-4.1,1-8.3,1-12.4C893.9,914.7,893.9,897.3,893.9,880z"/>
	<path class="st0" d="M2265.4,981.7c-14.8,0-29.6-0.2-44.5,0c-3.5,0-4.3-1.2-4.3-4.3c0-20.1,0-40.4,0-60.5c0-5.5,0-10.8-0.8-16.2
		c-1.2-6.7-3.9-9.3-10.6-10.2c-3.2-0.4-4.5,0.8-4.3,4.1c0.2,7.9,0,15.8,0,23.6c0,19.9,0,39.6,0,59.5c0,3.5-1,4.3-4.5,4.3
		c-14.8-0.2-29.6-0.2-44.5,0c-3.2,0-4.3-1-4.3-4.3c0-65,0-129.8,0-194.7c0-1.6-0.6-3.7,2.4-3.7c21.7,0.2,43.7-0.4,65.4,0.6
		c6.5,0.4,13,0.6,19.5,2c16.2,3.7,27.6,17.7,28.8,35.5c0,1.2-0.2,2.4,0.8,3.5c0,9.5,0,19.3,0,28.8c-1.2,0.6-0.6,1.6-0.8,2.6
		c-1.2,13.4-7.1,19.9-20.3,22.7c-1.4,0.2-2.8,0.2-4.3,1.6c2.6,1,5.1,1.8,7.5,2.8c7.7,3,13,8.7,16,16.4c1.4,3.5,0.6,7.3,1.6,10.8
		C2265.4,931.4,2265.4,956.6,2265.4,981.7z M2201,836.1c0,6.3,0,12.6,0,18.9c0,1.4-0.2,2.8,1.6,3.2c5.1,1.6,12-2.4,13.2-7.7
		c1.6-8.1,1.4-16.4,0.6-24.6c-0.8-9.3-3.7-10.8-10.6-12c-4.1-0.6-4.7-0.2-4.7,4.1C2201,824,2201,830.1,2201,836.1z"/>
	<path class="st1" d="M1298.6,646.1c-7.9-0.4-12.4,4.1-16.7,8.7c-6.5,7.3-7.5,16.2-8.5,25.6c-1,11.2,0.6,21.5,4.3,31.7
		c2.4,6.7,6.7,12.6,10.8,18.5c1.6,2.4,3.2,4.7,4.3,7.7c-3.9,1-7.5,0.2-11.2,0.2c-13,0-26.2,0-39.2-0.2c-1.2,0-3,0.6-3.9-0.4
		c-0.8-1.4,0.6-2.6,1.4-3.9c5.1-8.1,9.7-16.4,12.6-25.6c5.1-16,5.3-31.9-2.6-47.3c-3.5-6.9-8.3-12.6-16.2-14.6
		c-2.4-0.6-4.9-0.8-7.5-1.2c-0.2,1.2,0.8,1.8,1.6,2.2c12,6.9,17.9,17.5,19.7,30.9c2.2,17.1-0.8,33.1-8.1,48.7
		c-1.2,2.6-3,4.9-4.7,7.3c-2.4,3.7-5.9,4.5-10.2,4.5c-15.4,0.4-29.6-3.5-44.1-8.1c-26.8-8.9-51.8-21.1-74.7-37.6
		c-16.2-11.6-30.9-25-44.1-39.8c-17.5-19.7-31.9-41.6-43.3-65.4c-10-20.7-17.1-42.4-21.7-64.8c-2-9.7-3.2-19.7-4.7-29.6
		c-1.8-14.4-1.6-28.8-1.2-43.3c0.2-8.7,1.4-17.7,2.6-26.4c1.8-13.2,4.7-26,8.3-38.8c4.3-15.2,10-29.9,17.1-44.1
		c7.9-15.8,17.1-30.9,28-44.9c8.3-10.8,17.1-21.3,27.2-30.7c15.8-14.8,32.9-27.8,51.8-38.4c18.3-10.4,37.4-18.7,57.3-24.8
		c12.2-3.7,24.8-6.7,37.4-8.7c15.8-2.4,31.7-4.1,47.7-3.9c19.5,0.2,38.6,2.4,57.7,6.7c22.7,5.1,44.1,13.2,64.4,24.4
		c13.2,7.1,25.6,15.8,37.4,25.2c10.8,8.5,20.5,17.9,29.9,27.8c8.9,9.3,17.1,19.7,24.4,30.3c13.4,19.5,24.4,40.4,32.7,62.7
		c6.5,17.3,11.4,35.1,14.2,53.4c1.4,10,3,19.9,3.7,29.9c0.6,8.3,1.4,16.9,1.2,25.2c-0.2,10.6-0.8,21.1-1.8,31.7
		c-2.4,25-7.9,49.3-16.2,73.1c-7.9,22.1-18.3,43-31.3,62.5c-6.3,9.3-13.4,18.5-21.1,26.8c-6.1,6.9-12.6,13.4-19.5,19.3
		c-10.2,8.9-21.3,16.7-33.1,23.6c-13.2,7.5-27,13.6-41.6,17.9c-12.2,3.7-24.6,6.3-37.4,7.5c-8.3,0.8-16.7,0.6-25,1
		c-4.1,0.2-6.5-1.6-8.5-4.7c-6.5-10.6-12-21.7-14.4-33.9c-3-15.6-2.4-30.7,6.9-44.5C1292.3,652.6,1294.9,649.5,1298.6,646.1z
		 M1260,331.1c3.9,7.1,7.7,14,11.4,21.1c9.3,18.5,18.1,37.4,26.2,56.5c9.5,22.5,17.9,45.5,24.2,69.2c5.3,19.7,8.9,39.6,7.5,60.1
		c-0.6,10.4-2.8,20.1-8.7,28.8c-4.5,6.7-10.8,11.6-16.7,16.9c-9.1,8.1-18.5,16-24.8,26.6c-3.9,6.5-6.9,13.4-4.1,21.3
		c1,2.6,2,3,4.3,1.4c3.9-2.6,7.3-5.5,10.2-9.1c5.5-6.9,11-13.6,16.2-20.5c8.3-10.6,18.5-18.7,31.1-23.6c16.2-6.3,32.9-6.7,50-5.3
		c16.9,1.4,33.5,3.5,50.6,3.5c1.2,0,2.8-0.8,3.2,0.6c0.4,1.2-1,2-1.8,3c-12.6,14.2-25.6,28-37.8,42.4c-7.5,8.9-16.9,15.8-27.8,20.1
		c-10.4,4.1-20.9,4.1-31.7,2.6c-11.8-1.4-23.8-3.5-35.7-2.6c-1.2,0-2.8-0.4-3.2,1c-0.4,1.4,1.4,1.8,2,2.8c0.2,0.2,0.4,0.6,0.8,0.6
		c11.8,7.5,25,10.6,38.4,11.6c8.9,0.8,18.1,0.2,27-1c15.8-2.2,30.9-6.3,44.7-14.6c13.8-8.3,24-19.7,27-36.1c0.4-2.6,2.2-4.5,4.5-5.9
		c30.5-19.3,51-46.7,63.4-80c6.1-16.4,9.3-33.7,6.7-51.4c-3.5-24.4-16-42.6-38.2-54c-3-1.6-4.5-4.1-4.7-7.5
		c-0.2-19.3-2.8-38.4-8.9-56.9c-6.5-19.3-16.7-36.1-33.5-48.5c-19.3-14-41.2-19.5-64.4-20.7c-3.7-0.2-6.3-1.6-7.9-4.7
		c-4.5-7.9-9.5-15.4-15.4-22.3c-21.3-25-47.7-38.4-81.2-36.6c-22.1,1.2-41.4,9.5-59.1,22.5c-8.3,6.1-16,13-22.7,20.9
		c-4.1,4.9-8.1,10-11.6,15.2c-1.6,2.6-3.7,3.9-6.7,4.3c-6.3,0.6-12.6,1.2-18.7,2.2c-16.4,2.6-32.5,6.1-47.1,14.8
		c-7.7,4.7-14.8,10.2-20.1,17.7c-6.9,10-11.6,20.9-14.4,32.7c-4.9,19.1-6.5,38.6-8.7,58.1c-0.4,3.5-2,6.3-4.5,8.3
		c-3.9,3-7.3,6.5-10.6,10.2c-6.1,7.3-11,15.2-14.6,24c-7.7,17.7-9.7,36.3-8.3,55.2c0.6,9.5,2.8,19.1,5.7,28.4
		c4.9,15.6,12.2,30.1,22.7,42.4c10.4,12.2,22.7,21.9,38.6,26.2c2.4,0.6,3.9,2,4.1,4.5c1.8,15.4,9.7,26.8,22.1,35.7
		c7.9,5.7,16.9,9.3,26,12.2c7.7,2.4,15.6,4.1,23.8,4.5c9.3,0.6,18.9,0.6,28.2-1.2c9.7-1.8,19.5-4.3,27.6-10.4
		c1.2-0.8,2.4-1.6,2.4-3.5c-9.7,1.8-19.5,3.2-29.2,4.1c-12,0.8-24,0.6-35.7-3.5c-12.6-4.5-22.5-12.6-30.7-22.9
		c-11.8-14.8-22.3-30.5-36.6-42.8c-0.8-0.6-1.6-1.6-1.8-2.8c1.4-1,3-0.8,4.7-0.8c22.3-0.8,44.5-2.4,66.8-4.1c13.6-1,27,0.8,39.2,7.1
		c14,7.3,25,17.9,34.9,30.1c6.9,8.5,13.6,17.3,21.1,25.4c2,2,3,2,3.9-0.8c2.6-9.7,0.4-18.1-7.3-24.6c-5.5-4.7-11.4-9.1-16.9-13.8
		c-13-11.6-21.1-25.6-20.3-43.7c0.6-11.2,2.6-21.9,6.5-32.5c7.7-20.3,15.6-40.6,23.8-60.7c8.7-22.1,15.2-44.9,17.7-68.6
		c1.8-18.1,2-36.1,2-54.2C1259,334.6,1258.6,332.7,1260,331.1z"/>
	<path class="st0" d="M1234.6,879.8c0-32.5,0-65,0-97.5c0-2.2,0.4-3.2,3-3.2c21.1,0.2,42.2,0.2,63.2,0.4c7.3,0,14.6,0.8,21.7,2.2
		c20.9,4.3,32.1,17.1,33.3,38.6c0.6,10.4,0.6,20.9,0.8,31.5c0,27.4,0,54.6-0.2,82c0,6.5-0.4,13-1.4,19.5
		c-2.2,14.6-10.8,23.1-25.6,26.4c-7.1,1.6-14.4,2-21.7,2c-22.7,0.2-45.7,0-68.4,0.2c-3.7,0-4.9-1-4.9-4.7
		C1234.6,944.6,1234.6,912.1,1234.6,879.8L1234.6,879.8z M1287.6,880.4c0,11.4,0,22.5,0,33.9c0,9.5,0,18.9,0,28.4
		c0,1.8,0.2,3.5,2.6,3.7c6.9,0.6,11.4-2.8,12.4-9.7c1.8-12.4,0.8-24.8,1-37.2c0.4-23.1,0-46.3-0.2-69.4c0-2.6-0.2-5.1-0.6-7.7
		c-0.8-5.7-3.5-8.1-9.1-8.7c-4.9-0.4-5.9,0.4-5.9,5.3C1287.6,839.6,1287.6,860.1,1287.6,880.4z"/>
	<path class="st0" d="M1140.4,894c0,1.2,0,2.4,0,3.9c0,26.4,0,53,0,79.4c0,3.5-0.8,4.5-4.3,4.5c-12-0.2-24-0.2-35.9,0
		c-3.2,0-4.3-1-4.3-4.3c0-64.6,0-129.1,0-193.7c0-3.7,1.2-4.7,4.7-4.7c12.2,0.2,24.2,0.2,36.3,0c2.4,0,3.7,0.6,4.3,3.2
		c8.5,26.6,17.1,53,25.6,79.6c0.4,1.4,1,2.6,1.8,4.7c1-1.6,0.6-3,0.6-4.3c0-26.4,0-52.8,0-79c0-3.2,0.8-4.3,4.1-4.3
		c12,0.2,24,0.2,35.9,0c3.2,0,4.3,1,4.3,4.3c0,65,0,129.8,0,194.7c0,3-1,3.7-3.9,3.7c-12.8-0.2-25.6-0.2-38.4,0
		c-3,0-4.3-1.2-5.1-3.9c-7.9-27-16-54.2-24.2-81.2c-0.2-0.8-0.6-1.6-1-2.6C1141,894,1140.6,894,1140.4,894z"/>
	<path class="st0" d="M641.1,876.1c2.6,1,4.9,1.8,7.1,2.8c11.2,4.3,17.7,14,18.1,25.8c1,24.2,0.4,48.3,0.6,72.3
		c0,3.5-1.2,4.5-4.5,4.5c-13.2-0.2-26.4,0-39.6,0c-4.3,0-5.1-1-5.1-5.3c0-21.1,0-42,0-63.2c0-5.1-0.2-10.2-1.2-15
		c-1-5.1-7.9-9.3-13-7.9c-1.8,0.6-1.4,2-1.4,3.2c0,10.6,0,20.9,0,31.5c0,17.7,0,35.5,0,53.2c0,2.6-0.6,3.7-3.5,3.7
		c-15,0-30.1,0-45.1,0.2c-3,0-4.3-0.8-4.3-4.1c0-64.8,0-129.6,0-194.3c0-2-0.4-4.3,2.8-4.3c21.9,0.2,43.9-0.4,65.8,0.6
		c6.3,0.2,12.6,0.6,18.7,2c16.9,4.1,25.6,15.8,28.4,32.1c2.4,13.8,2.4,27.8-0.2,41.8c-2,11-8.5,16.7-19.1,18.9
		C644.5,874.9,642.9,874.9,641.1,876.1z M601.9,835.9c0,6.1,0,12.4,0,18.5c0,0.2,0,0.2,0,0.4c-0.2,2.6,0.8,3.7,3.7,3.7
		c7.3-0.2,11.4-3.9,11.8-11.2c0.2-6.9,0-14,0.2-20.9c0.2-6.7-4.5-12.4-12.2-12.4c-2.6,0-3.5,0.8-3.5,3.5
		C602.1,823.4,601.9,829.6,601.9,835.9z"/>
	<path class="st0" d="M685.5,883.7c0-19.5-0.4-39,0.8-58.3c1.2-22.7,13.4-39.4,34.1-46.7c11-3.9,22.3-4.7,33.9-3.7
		c9.3,0.8,18.5,2.8,26.8,7.7c16,9.3,24,23.6,25,41.8c1.6,27.2,0.6,54.4,0.8,81.6c0,11.4,0.2,22.9-1.2,34.3
		c-3,22.9-16.4,36.8-38.2,42.8c-15.2,4.3-30.5,3.7-45.5-0.8c-21.5-6.7-34.3-23.8-35.7-46.9c-0.4-8.5-0.8-17.3-0.8-25.8
		C685.5,900.9,685.5,892.2,685.5,883.7z M754.2,883.5c0-20.1,0-36.6,0-53.2c0-5.1-0.2-10.2-1.2-15c-0.8-4.3-2.6-5.9-6.3-5.9
		c-3.9-0.2-6.3,1.8-7.3,5.9c-1,4.3-1.2,8.7-1.4,13.2c0,34.3,0,68.6,0,103c0,4.9,0.2,9.7,1.4,14.6c0.8,3.5,3.2,5.5,6.5,5.5
		c3.5,0,6.1-2.2,6.7-5.7c0.4-2.4,0.8-4.9,0.8-7.3C754.8,919,753.8,899.5,754.2,883.5z"/>
	<path class="st0" d="M1474.6,854c2-6.3,3.7-12.2,5.5-17.9c5.5-17.9,10.8-35.7,16-53.6c0.8-2.8,2-3.5,4.9-3.5c13,0.2,26.2,0,39.2,0
		c6.3,0,6.3,0,4.5,5.9c-4.3,13.2-8.5,26.4-13,39.6c-4.7,13.8-9.1,27.8-13.8,41.6c-1.2,3.5-0.6,6.5,0.4,9.7
		c10.2,33.9,20.1,67.8,30.3,101.7c1,3.5,0.2,3.9-3,3.9c-15.2-0.2-30.7-0.2-45.9,0c-3.2,0-4.9-1.2-5.5-4.5
		c-6.1-24.8-12.2-49.3-18.3-74.1c-0.2-1.2-0.2-2.4-1.4-3.2c-0.8,1.2-0.4,2.6-0.4,3.9c0,24.2,0,48.3,0,72.5c0,4.5-0.8,5.5-5.3,5.5
		c-14.6,0-29.2,0-44.1,0c-2.8,0-3.5-1.4-3.5-3.9c0-13.4,0-26.6,0-40c0-51.2,0-102.5,0-153.7c0-5.1,0-5.1,5.1-5.1
		c14.2,0,28.4,0,42.4,0c5.1,0,5.1,0,5.1,5.1c0,21.7,0,43.7,0,65.4C1474,850.8,1473.6,852.2,1474.6,854z"/>
	<path class="st0" d="M1059.4,981.5c-7.5,0-15,0-22.5,0c-2.6,0-3.7-0.8-3.9-3.7c-0.6-9.3-1.6-18.7-2-28c-0.2-3.5-1.4-5.1-5.1-4.9
		c-3.5,0.2-6.9,0.2-10.4,0c-2.6,0-3.9,1-4.1,3.7c-0.6,8.9-1.4,17.9-2,26.8c-0.4,5.7-0.4,5.7-6.1,5.7c-14.8,0-29.9-0.2-44.7,0
		c-3.7,0-4.5-1-3.9-4.5c2.6-19.7,5.3-39.6,7.9-59.3c3.2-25.2,6.7-50.2,10-75.3c2.6-19.7,5.3-39.2,7.7-58.9c0.4-3.7,2-4.7,5.5-4.7
		c22.1,0.2,44.5,0.2,66.6,0c3.9,0,5.1,1.2,5.7,4.9c3.5,24.2,7.1,48.1,10.8,72.3c4.3,29.2,8.7,58.7,13,87.9
		c1.6,10.6,3.2,20.9,4.7,31.5c0.8,5.3,0,6.1-5.3,6.1C1074,981.5,1066.7,981.5,1059.4,981.5z M1021,830.5c-1,1.2-1,2.6-1.2,4.1
		c-1.4,11-2.8,21.9-4.1,32.9c-1.4,12.4-2.6,25-4.1,37.4c-0.4,3.2,0.8,4.7,4.1,4.5c2.8-0.2,5.7,0,8.5,0c4.9,0,4.7,0,4.3-4.7
		C1026.1,879.8,1023.6,855.2,1021,830.5z"/>
	<path class="st0" d="M513.1,981.5c-7.5,0-15-0.2-22.5,0c-2.8,0-4.3-0.8-4.5-3.9c-0.6-8.9-1.4-17.9-2-26.8c-0.4-5.7-0.4-5.7-5.9-5.7
		c-2.6,0-5.3,0-7.7,0c-5.7,0-5.9,0.2-6.3,6.1c-0.6,8.5-1.4,17.3-2,25.8c-0.2,3.2-1.8,4.5-4.9,4.5c-15.4,0-30.9,0-46.3,0
		c-3,0-3.9-0.6-3.5-3.9c5.9-44.1,11.6-88.3,17.5-132.4c2.6-20.7,5.5-41.2,8.1-61.9c0.4-3.2,1.8-4.7,5.3-4.7
		c22.7,0.2,45.7,0.2,68.4,0c2.6,0,3.5,0.8,3.9,3.5c6.3,42.6,12.6,85.5,19.1,128.1c3.2,21.7,6.5,43.5,9.7,65.4
		c0.8,5.3,0.2,5.7-5.1,5.7C527.5,981.5,520.2,981.5,513.1,981.5z M474.5,829.6c-0.2,0-0.4,0-0.6,0c-2,14.6-4.1,29.2-5.9,43.9
		c-1.2,10-2.2,19.7-3,29.6c-0.6,5.9-0.4,5.9,5.3,5.9c2.4,0,4.9-0.2,7.3,0c3.2,0.2,4.3-1.2,3.9-4.5c-1.8-17.1-3.2-34.1-4.9-51
		C476,845.7,475.2,837.8,474.5,829.6z"/>
	<path class="st0" d="M1715.1,779.1c11.4,0,22.7,0,34.1,0c2.8,0,4.1,0.8,4.5,3.9c3.2,22.5,6.7,45.3,10.2,67.8
		c4.7,30.9,9.1,61.7,13.8,92.6c1.6,11.4,3.5,22.9,5.1,34.3c0.4,2.6-0.8,4.1-3.5,4.1c-15.8,0-31.9,0-47.7,0c-2,0-2.4-1-2.4-2.8
		c-0.6-9.5-1.6-19.1-2-28.6c-0.2-3.7-1.6-5.1-5.3-4.9c-3.7,0.2-7.1,0.2-10.8,0c-2.4-0.2-3.5,0.6-3.7,3.2c-0.6,9.5-1.6,19.1-2.2,28.6
		c-0.2,3.5-1.4,4.5-5.1,4.5c-15-0.2-30.1,0-45.1,0c-4.5,0-4.9-0.6-4.3-5.1c3.5-26.8,7.1-53.4,10.6-80c3.7-27.4,7.1-54.8,10.8-82.2
		c1.4-10.4,2.8-20.7,4.3-31.1c0.4-3,1.8-4.1,4.9-4.1C1692.3,779.1,1703.7,779.1,1715.1,779.1z M1716.5,828.2
		c-1.6,13.6-3.5,27-5.1,40.6c-1.4,12-2.4,24-3.9,35.9c-0.4,3.2,0.6,4.7,4.1,4.3c2.4-0.2,4.9,0,7.3,0c5.9,0,6.1-0.2,5.5-6.1
		c-1.8-17.7-3.5-35.3-5.1-53C1718.3,842.8,1718.1,835.5,1716.5,828.2z"/>
	<path class="st0" d="M1878.1,840.6c-6.7,0-13.4-0.2-19.9,0c-3.2,0.2-4.3-1.2-4.3-4.3c-0.2-6.7,0.6-13.6-0.6-20.3
		c-0.6-3.5-2.2-6.1-5.9-6.5c-4.1-0.6-7.1,1.2-8.7,5.1c-5.3,12.2-1.2,26.4,9.7,33.7c10.8,7.3,22.1,13.6,32.7,21.5
		c10.8,8.1,20.3,16.9,23.6,30.7c1.6,6.9,2.4,14,2.8,21.1c0.6,11.2,0,22.1-2.4,33.1c-1.8,8.1-6.7,14.4-13.4,19.1
		c-14.4,10-30.5,12.6-47.5,11.8c-10-0.4-19.7-2.6-28.8-6.9c-15-7.1-23.1-18.9-25-35.3c-1.2-10.2-1.4-20.1-1.4-30.3
		c0-3,1.4-4.7,4.5-4.7c13.8,0,27.6,0,41.4,0c3,0,3.5,1.6,3.5,3.9c0,7.9,0,16,0,24c0,2.8,0,5.7,0.8,8.5c1,4.1,3,5.9,7.3,6.1
		c4.1,0.4,7.3-1.4,8.7-4.7c4.3-10.6,2.8-20.9-0.4-31.3c-1.2-3.7-4.5-5.9-7.3-8.1c-12-9.3-25-17.5-37.6-26.2
		c-13-9.1-19.7-21.3-21.7-36.6c-1.6-12.4-1-24.6,1.6-36.8c2.8-13.6,11.8-22.7,24.6-27.4c23.1-8.3,46.3-7.7,68.8,3
		c11.2,5.5,17.3,14.6,18.9,26.8c1.2,9.1,1,18.3,1.4,27.2c0,2.8-1.8,3-4.1,3C1892.3,840.6,1885.2,840.6,1878.1,840.6L1878.1,840.6z"
		/>
	<path class="st0" d="M2042,880c0-32.3,0-64.6,0-96.9c0-3,0.6-4.3,4.1-4.3c26.8,0.2,53.4,0.2,80.2,0c2.8,0,3.9,0.6,3.9,3.7
		c-0.2,11-0.2,21.9,0,32.9c0,3-1.2,4.1-4.1,4.1c-9.1,0-18.3,0-27.4,0c-2.6,0-3.7,1-3.5,3.7c0.2,10,0,19.9,0,29.9
		c0,3.9,1,4.9,5.1,4.9c7.7,0,15.6,0.2,23.4,0c3,0,4.5,0.8,4.3,4.1c-0.2,10.2-0.2,20.1,0,30.3c0,3-1.2,4.1-4.1,4.1
		c-8.3-0.2-16.4,0-24.8,0c-2.8,0-3.9,1-3.9,3.9c0.2,12.2,0.2,24.4,0,36.6c0,3,0.8,4.1,3.9,4.1c10.4-0.2,20.7,0,31.1-0.2
		c2.8,0,3.7,0.8,3.7,3.7c-0.2,11.2-0.2,22.1,0,33.3c0,3.2-1.2,3.9-4.3,3.9c-27.4,0-54.8,0-82,0c-5.1,0-5.3-0.2-5.3-5.3
		C2042,944.2,2042,912.1,2042,880z"/>
	<path class="st0" d="M1946.4,900.1c0-25.4,0-50.8,0-76.1c0-3.2-0.6-4.5-4.3-4.5c-7.9,0.2-15.8,0-23.8,0c-2.4,0-3.5-0.8-3.5-3.5
		c0.2-11.4,0.2-22.7,0-33.9c0-2.4,1-3,3.2-3c36.3,0,72.5,0,108.8,0c2.2,0,3,0.4,3,2.8c-0.2,11.4-0.2,22.7,0,33.9
		c0,2.8-1.2,3.7-3.9,3.7c-7.3,0-14.8,0-22.1,0c-4.9,0-4.9,0.2-4.9,5.1c0,50.6,0,101.3,0,151.9c0,5.3,0,5.3-5.3,5.3
		c-14.4,0-28.8-0.2-43.3,0c-3.5,0-4.5-1-4.5-4.5C1946.4,951.5,1946.4,925.7,1946.4,900.1z"/>
	<path class="st0" d="M1558.3,880c0-32.3,0-64.6,0-96.9c0-3.5,1-4.3,4.3-4.3c14.8,0.2,29.9,0.2,44.7,0c3.5,0,4.1,1,4.1,4.3
		c0,51.2,0,102.1-0.2,153.3c0,3.7,1,4.7,4.5,4.5c7.9-0.2,15.8,0,23.8-0.2c2.8,0,3.7,1,3.7,3.7c-0.2,11.2-0.2,22.1,0,33.3
		c0,2.8-1.2,3.9-4.1,3.9c-25.8,0-51.6,0-77.4,0c-3.5,0-3.5-1.6-3.5-4.1C1558.3,945,1558.3,912.5,1558.3,880z"/>
</g>
</svg>
