<?xml version="1.0" encoding="utf-8"?>
<!-- Generator: Adobe Illustrator 25.0.0, SVG Export Plug-In . SVG Version: 6.00 Build 0)  -->
<svg version="1.1" id="Слой_1" xmlns="http://www.w3.org/2000/svg" xmlns:xlink="http://www.w3.org/1999/xlink" x="0px" y="0px"
	 viewBox="0 0 2500 1200" style="enable-background:new 0 0 2500 1200;" xml:space="preserve">
<style type="text/css">
	.st0{fill:#244282;}
	.st1{fill:#264383;}
</style>
<g>
	<path class="st0" d="M179.6,475.9c1.3-2.1,2.8-4.3,4.7-6c42.8-43.3,85.4-86.3,128-129.1c6.2-6.2,6.2-6.2,12.4,0
		c42.8,43,85.6,86.1,128.7,129.1c5.4,5.6,5.6,7.5,0.2,12.8c-42.8,43-85.6,86.1-128.5,129.3c-5.6,5.6-7.5,5.6-13.3,0
		c-42.6-43.3-85.4-86.3-128-129.5c-1.5-1.5-2.8-3.6-4.1-5.4C179.6,476.5,179.6,476.1,179.6,475.9z"/>
	<path class="st0" d="M2181.6,1022.7c-7.5-1.7-15-3-22.5-4.9c-15.4-3.6-29.8-9.8-42.8-19.1c-2.4-1.7-2.8-2.6-1.3-5.4
		c8.6-15.2,17.1-30.4,25.5-45.8c1.7-3.4,3.2-3,5.8-1.1c12.4,8.8,26.1,15,41.3,17.1c9.8,1.5,19.7,0.9,29.3-2.1
		c10.3-3.2,15.4-16.3,4.3-24.4c-4.7-3.4-9.4-6.2-14.6-8.6c-10.1-4.9-19.5-10.9-28.5-17.3c-40.7-29.5-34.9-91,4.9-115.4
		c20.3-12.4,42.8-16.3,66.2-15.4c24.2,0.9,46.9,7.5,67.2,21.2c3.6,2.4,3.6,4.1,1.5,7.5c-8.1,13.9-15.8,27.8-23.8,41.8
		c-3,5.4-3.2,5.6-7.9,1.7c-14.3-11.3-30.4-16.1-48.6-14.1c-4.5,0.4-9,1.3-13.1,3.6c-8.1,4.7-9.4,14.8-2.8,21.4
		c2.8,2.8,6.2,4.7,9.6,6.4c10.5,5.1,21.2,10.5,31,17.1c16.9,11.3,29.1,26.3,31.9,47.1c5.4,39.4-15.8,71.5-54.2,83.1
		c-8.6,2.6-17.3,4.3-26.1,4.9c-1.1,0-2.4-0.2-3,0.9C2201,1022.7,2191.2,1022.7,2181.6,1022.7z"/>
	<path class="st0" d="M1979.2,1022.7c-10.9-1.9-22.1-3.6-32.5-6.9c-12.8-3.9-24.8-9.4-35.8-17.1c-2.1-1.5-2.6-2.6-1.3-4.9
		c8.8-15.4,17.3-30.6,25.7-46.2c1.7-3.2,3-2.8,5.4-1.1c12.6,9,26.3,15.2,41.8,17.3c9.2,1.3,18.4,0.9,27.4-1.7
		c5.8-1.7,10.7-4.7,12-11.3c1.5-6.9-2.6-10.9-7.3-14.6c-4.1-3-8.6-5.4-13.1-7.5c-10.3-4.9-19.7-10.9-28.9-17.6
		c-40.5-29.5-34.9-91,5.1-115.4c20.1-12.2,42.2-16.1,65.3-15.4c24.8,0.6,47.7,7.5,68.5,21.4c3,1.9,3.4,3.2,1.5,6.4
		c-8.6,14.6-16.9,29.5-25.1,44.3c-1.7,3.2-2.8,3.4-5.6,1.1c-16.3-13.5-34.9-18.4-55.9-14.3c-2.1,0.4-4.5,1.3-6.4,2.1
		c-9.2,4.7-10.5,15.6-3,22.5c4.1,3.6,9,5.6,13.7,8.1c10.9,5.6,21.4,11.3,31.3,18.4c41.3,29.8,33.4,93.4-6,116.9
		c-14.3,8.6-30,12.8-46.2,14.6c-1.5,0.2-3.2-0.4-4.5,0.9C1996.8,1022.7,1988,1022.7,1979.2,1022.7z"/>
	<path class="st0" d="M2218.6,442.9c30.2,0,60.4,0,90.4,0c9.6,0,11.1,1.5,11.1,11.3c0,59.3-0.2,118.6,0,177.7
		c0,7.5-2.1,12.6-8.6,16.9c-18.8,12.8-37.7,25.9-57.6,37c-31.5,17.3-65.7,25.3-100.8,29.8c-29.8,3.9-59.5,4.1-89.1-1.1
		c-37.9-6.6-73.9-18.4-103.2-44.7c-24.6-22.1-40.7-49.7-52.5-80.1c-16.7-43.5-23.8-88.2-20.3-134.7c3-40,11.6-78.8,29.5-114.8
		c26.8-53.5,70.2-86.7,128.3-99.3c48.8-10.7,98.3-10.1,147.3-0.9c56.7,10.5,92.5,45.6,112,98.7c2.6,7.1,4.9,14.1,7.3,21
		c1.7,5.1,0.9,6.9-4.3,7.9c-37.7,7.5-75.2,15-112.8,22.3c-6.2,1.3-7.5,0.4-9.6-5.1c-13.9-37.9-43.7-50.7-80.1-47.7
		c-42.4,3.6-65.3,29.5-77.3,67.9c-4.5,14.6-6.9,29.5-7.5,45c-1.3,28-1.5,56.1,4.5,83.7c2.1,10.1,4.9,19.7,9,29.1
		c14.6,33.6,46.2,53.1,84.1,52.2c31-0.6,58.2-12.6,83.7-28.9c2.1-1.3,3-3.2,3-5.6c0-11.6,0-22.9,0-34.5c0-3.9-1.3-5.4-5.4-5.4
		c-24.4,0.2-48.6,0.2-73,0.2c-7.7,0-9.4-1.7-9.4-9.4c0-26.1,0-52.5,0-78.6c0-8.1,1.7-10.1,10.1-10.1
		C2157.6,442.9,2188,442.9,2218.6,442.9z"/>
	<path class="st0" d="M1197.9,717.6c-28.5,0-55.9-2.4-82.6-9.2c-48.4-12.2-79.6-43.5-98.1-88.9c-7.1-17.8-11.3-36-13.7-54.8
		c-1.1-8.1,0.6-9.8,8.6-10.3c34.9-1.9,69.8-4.3,104.7-7.1c8.1-0.6,10.9,1.5,12.2,9.6c2.4,15.6,6.6,30.6,16.7,43.3
		c22.1,27.4,65.9,34,95.1,14.1c24-16.5,25.5-52.2,2.8-70.9c-12-9.8-26.5-14.8-41.1-19.1c-25.9-7.7-52.2-13.9-77.5-23.3
		c-16.7-6.2-33-13.7-47.7-23.6c-39.6-26.1-58.9-63.2-58-110.3c0.9-56.7,35.5-102.1,91.4-120.8c34-11.3,69.2-13.5,104.7-12.2
		c23.6,0.9,46.9,4.3,69.2,12.4c49,17.8,76.4,53.3,86.1,103.6c1.1,5.1,1.7,10.3,2.1,15.4c0.6,6.2-0.4,7.7-6.6,8.1
		c-18,1.3-36,2.6-53.7,3.6c-16.7,1.1-33.4,2.4-49.9,3.6c-8.8,0.6-12-1.3-13.9-9.8c-1.1-5.1-2.6-10.1-4.5-14.8
		c-9.2-22.1-25.9-33.4-49.5-35.1c-9-0.6-17.8-0.2-26.5,1.9c-17.8,4.1-29.8,20.3-27.4,37.5c1.1,8.1,5.8,14.3,12.2,19.1
		c5.6,4.1,11.8,6.4,18.4,8.4c35.5,10.3,71.5,19.1,106.6,31c27,9.2,52.2,21.8,72.6,42.6c27.6,28.5,39.2,62.5,36.8,101.7
		c-1.9,32.8-10.9,62.9-30.8,89.5c-25.1,33.2-58.9,51.6-99.1,59.5C1237.3,716.7,1217.2,717.2,1197.9,717.6z"/>
	<path class="st0" d="M1804.5,710.3c-19.5,0-39,0-58.5,0c-8.8,0-10.9-1.5-13.3-10.3c-5.1-19.3-10.3-38.8-15.6-58
		c-1.9-7.5-4.3-9.2-12-9.2c-43.3,0-86.5,0-129.8,0c-8.4,0-10.1,1.5-12.4,9.8c-5.6,19.9-10.9,39.8-16.5,59.7c-1.9,7.1-3,7.7-10.1,7.7
		c-39.8,0-79.4-0.2-119.3-0.2c-6.4,0-6.4,0-4.3-6.2c50.7-149.2,101.5-298.5,152.2-447.7c4.1-11.8,7.7-14.6,20.3-14.3
		c39,0.6,78.2,0.4,117.1,0c10.3,0,11.8,1.1,15.2,10.7c50.7,149,101.3,298.3,152,447.3c0.2,0.6,0.4,1.3,0.6,1.9
		c2.1,6.9,1.1,8.6-6,8.6C1844.3,710.3,1824.4,710.3,1804.5,710.3L1804.5,710.3z M1639.9,531.7L1639.9,531.7c12.8,0,25.7,0,38.3,0
		c7.1,0,8.1-1.3,6.4-8.1c-13.9-50.7-28-101.5-42-152.2c-0.4-1.3,0-3.6-2.4-3.4c-1.9,0-1.7,2.1-1.9,3.4
		c-14.1,50.7-28.3,101.5-42.2,152.2c-1.9,7.1-1.1,8.1,6.4,8.1C1615,531.7,1627.4,531.7,1639.9,531.7z"/>
	<path class="st0" d="M475.3,460.4c-0.9-0.6-1.5-1.3-2.1-1.7c-1.5-1.5-3.2-2.8-4.7-4.3c-42.4-42.6-84.6-85.4-127-128
		c-6.4-6.4-6.4-7.9,0-14.3c42.2-42.6,84.4-85,126.3-127.6c6.2-6.4,8.4-6.4,14.8,0.2c42.4,42.6,84.8,85.2,127.2,127.8
		c6,6,6,7.5,0,13.5c-43,43.3-86.1,86.3-128.9,129.5C478.9,457.2,477.2,458.7,475.3,460.4z"/>
	<path class="st0" d="M926.7,318.9c-0.2,2.6-1.7,4.1-3.2,5.6c-3.6,3.9-7.5,7.5-11.3,11.3c-39,39.2-77.9,78.4-116.9,117.3
		c-1.3,1.3-2.8,2.8-4.3,4.1c-2.4,1.9-4.7,2.1-7.1,0c-1.5-1.3-3.2-2.8-4.5-4.3c-41.8-42.2-83.3-84.4-125-126.5c-6.9-6.9-6.9-7.9,0-15
		c42.8-43.3,85.4-86.3,128.3-129.5c3.9-4.1,5.1-4.3,9.2-0.2c9.6,9.4,19.1,19.1,28.5,28.5c33.8,33.8,67.7,67.9,101.7,101.7
		C924.1,314.2,926.2,316.1,926.7,318.9z"/>
	<path class="st0" d="M631.6,615.7c-3-0.2-4.7-2.4-6.6-4.3c-18.8-19.1-37.5-38.1-56.3-57.2c-23.6-23.8-46.9-47.3-70.4-71.1
		c-6.2-6.2-6.2-7.7,0-13.9c42.8-43.3,85.6-86.5,128.5-129.8c4.9-4.9,5.1-5.1,10.1-0.2c43.7,43.7,87.1,87.4,130.6,131
		c4.5,4.7,4.5,6.9-0.4,11.8c-22.3,22.3-44.3,44.5-66.6,66.8c-20.8,20.8-41.3,41.8-61.9,62.5C636.5,613.5,634.8,615.7,631.6,615.7z"
		/>
	<path class="st1" d="M1629.8,1018.4c-9.6,0-19.5-0.2-29.1,0.2c-4.5,0.2-6-1.5-7.3-5.4c-6.4-19.7-12.6-39.4-20.6-58.5
		c-1.1-2.6-2.1-5.1-3.4-7.5c-3.9-7.9-4.9-8.4-13.7-7.5c-3,0.2-2.8,2.4-3.2,4.1c-4.9,20.3-9.8,40.9-14.8,61.2
		c-1.1,4.3-1.1,10.1-3.9,12.6c-3,2.6-8.8,0.6-13.3,0.9c-15.8,0-31.7,0-47.7,0c-3.9,0-4.9-0.6-4.1-4.9c17.6-73,34.9-146,52.2-219.2
		c1.1-4.3,3-5.4,7.1-6.2c23.8-4.3,47.5-6.2,71.5-5.4c15.4,0.4,30.2,3.6,44.1,10.5c29.1,13.9,43,41.3,38.3,73
		c-4.3,29.1-21.4,47.1-47.1,58.9c-3.2,1.5-4.1,2.6-2.4,6c12.8,27,22.7,54.8,31.7,83.3c1.3,3.6,0,4.1-3.2,4.1
		C1650.8,1018.2,1640.3,1018.4,1629.8,1018.4z M1567.1,883.5c8.1,0.6,15.6,0,23.1-1.3c7.3-1.3,14.1-3.4,19.9-8.1
		c6.2-5.4,7.5-12.2,6-19.9c-1.3-7.1-6.6-9.8-12.8-11.3c-7.9-1.9-16.1-1.7-24.2-1.1c-1.5,0.2-2.4,0.4-2.6,2.1
		C1573.3,857,1570.3,870.2,1567.1,883.5z"/>
	<path class="st1" d="M859.8,960.4c31.7,0,62.5,0,93.6,0c6.2,0,6.2,0,4.7,6.2c-3.9,16.1-7.9,31.9-11.8,48c-0.6,2.8-1.9,3.9-4.9,3.9
		c-55.7,0-111.6,0-167.2,0c-3.6,0-4.3-0.9-3.2-4.5c21-74.9,42-149.9,62.9-224.8c0.9-3.2,2.1-4.3,5.6-4.3c50.1,0.2,100.2,0.2,150.3,0
		c4.3,0,4.7,1.1,3.6,4.9c-4.3,16.1-8.1,32.3-12,48.4c-0.9,3.4-2.4,4.5-5.8,4.5c-27.6-0.2-55.5,0-83.1-0.2c-3.6,0-5.1,1.1-5.6,4.7
		c-0.9,5.8-2.4,11.8-4.1,17.6c-1.1,3.4,0.2,3.6,3.2,3.6c24.4,0,48.6,0,73-0.2c4.5,0,4.9,1.1,3.9,5.1c-4.1,15.8-8.1,31.9-11.8,48
		c-0.9,3.4-2.1,4.3-5.6,4.3c-24.2-0.2-48.4,0-72.4-0.2c-3.4,0-5.1,0.9-5.8,4.5C864.8,939.8,862.2,949.9,859.8,960.4z"/>
	<path class="st0" d="M787.7,687.8c-27,0-54.2,0-81.1,0c-3.4,0-5.8-0.9-7.9-3.4c-15-15.4-30.2-30.6-45.4-46c-5.4-5.4-5.4-6.4,0-11.8
		c42.4-43,85-85.9,127.4-128.9c6.4-6.6,7.7-6.6,14.1,0c43,43.3,86.1,86.7,128.9,130c4.7,4.7,4.9,4.9,0,9.6
		c-15.8,16.1-31.7,31.9-47.5,48c-2.1,2.1-4.3,2.6-6.9,2.6C842.1,687.8,814.9,687.8,787.7,687.8z"/>
	<path class="st0" d="M475.9,687.8c-26.3,0-52.5,0-78.8,0c-3.2,0-5.4-0.9-7.7-3c-16.1-15.4-32.3-30.8-48.6-46.2
		c-5.6-5.4-5.6-6.6,0-12.2c42.6-43.3,85.4-86.5,128-129.5c5.4-5.4,7.1-5.4,12.4-0.2c43.3,43.5,86.3,86.9,129.5,130.2
		c5.1,5.1,5.1,6.4-0.2,11.3c-16.1,15.6-32.1,31-48,46.7c-2.1,1.9-4.1,2.8-6.9,2.8C529,687.8,502.5,687.8,475.9,687.8z"/>
	<path class="st1" d="M1806,868.3c27.4,0,54.4,0,81.8,0c-4.5,18.6-9.2,36.6-13.5,54.6c-0.9,3.2-2.8,2.6-4.7,2.6
		c-23.8,0-47.7,0.2-71.5,0c-4.5,0-6.6,0.9-7.5,5.6c-1.5,8.4-3.6,16.7-5.8,25.1c-0.9,3.4-0.6,4.7,3.6,4.7c29.8-0.2,59.7,0,89.5,0
		c1.7,0,3.6,0,5.8,0c-4.7,18.6-9.2,37-13.7,55.2c-0.4,1.9-1.5,2.8-3.4,2.6c-0.6,0-1.3,0-1.9,0c-52,0-104.1,0-156.1,0
		c-4.7,0-5.1-1.3-4.1-5.6c18-74.5,35.8-149,53.5-223.3c0.9-3.4,1.9-4.7,5.6-4.7c49.9,0.2,99.8,0.2,149.9,0c4.5,0,5.1,1.1,4.1,5.1
		c-4.3,16.1-8.4,32.3-12.2,48.4c-0.9,3.2-2.1,4.3-5.6,4.3c-27.6-0.2-55.5,0-83.1-0.2c-3.9,0-5.4,1.1-6,4.9
		C1809.6,854.4,1807.7,861,1806,868.3z"/>
	<path class="st1" d="M972.3,1018c9-10.7,17.6-21,26.1-31.3c25.7-30.8,51.4-61.7,77.3-92.3c2.4-2.8,2.4-4.7,1.1-7.9
		c-14.6-32.3-28.9-64.7-43.5-96.8c-1.9-4.3-0.9-4.7,3.2-4.5c21.2,0.2,42.4,0.2,63.6,0c3.4,0,5.1,1.1,6.4,4.3
		c6.2,16.3,12.6,32.5,18.8,48.8c0.6,1.5,1.3,3,2.1,5.1c5.1-6.4,9.8-12.4,14.6-18.6c9-12,18-24.2,26.8-36.4c1.3-1.7,2.4-3.2,4.9-3.2
		c23.3,0.2,46.7,0,70,0.2c0.2,0,0.6,0.2,1.1,0.2c0.6,2.1-1.3,3.2-2.1,4.5c-25.7,36.8-53.3,72.6-83.1,106.4c-2.4,2.6-2.8,4.7-1.3,7.9
		c16.5,35.5,30.4,71.9,42.4,109.2c1.5,4.7,0.4,5.1-3.9,5.1c-20.3-0.2-40.5-0.2-60.8,0c-3.6,0-4.9-1.3-6-4.5
		c-6.4-19.9-13.1-39.8-21.2-59.3c-1.9-4.7-2.1-4.7-5.4-0.6c-16.7,20.3-33.4,40.9-50.1,61.2c-1.5,1.7-2.8,3.2-5.6,3.2
		c-24.4-0.2-48.6,0-73,0C974,1018.4,973.3,1018.2,972.3,1018z"/>
	<path class="st0" d="M1271.2,1018.4c-9.6,0-19.1-0.2-28.7,0c-3.6,0-4.7-0.2-3.6-4.5c14.6-60.6,29.1-121.2,43.5-182
		c3.2-13.1,6.2-26.1,9.2-39.2c0.6-2.4,1.5-3.9,4.3-4.3c23.3-4.3,46.9-6.6,70.7-6c16.3,0.4,32.1,3.2,47.1,9.8
		c28.5,12.6,42.4,38.3,40,69.4c-3.2,38.8-27.6,67.2-71.5,78.2c-18.4,4.5-37,6.2-55.9,6c-3.6,0-4.9,1.1-5.6,4.7
		c-4.9,21.2-10.3,42.4-15.2,63.6c-0.9,3.4-2.1,4.3-5.6,4.3C1290.2,1018.2,1280.6,1018.4,1271.2,1018.4z M1344.6,887.6
		c4.3-0.2,10.5-0.9,16.5-2.1c17.1-3.6,25.3-12.8,25.1-27.6c0-7.9-2.6-11.3-10.3-13.9c-8.6-3-17.6-2.8-26.3-2.6c-2.6,0-3,1.7-3.4,3.6
		c-2.8,12.2-5.8,24.2-8.6,36.4C1335.8,887.8,1335.8,887.8,1344.6,887.6z"/>
	<path class="st1" d="M337.8,846.7c-0.6-1.3,0-1.9,0.2-2.6c8.8-18.6,17.8-37.5,26.5-56.1c1.1-2.4,2.4-3.2,4.9-3c0.6,0,1.3,0,1.9,0
		c145.6,0,291.2,0,436.8,0c5.8,0,5.8,0,4.1,5.6c-5.6,17.3-11.1,34.7-16.5,52.2c-0.9,3-2.1,4.1-5.4,4.1c-149.9,0-299.5,0-449.4,0
		C340,846.7,338.9,846.7,337.8,846.7z"/>
	<path class="st0" d="M435.3,932.1c7.9-20.1,15.6-39.6,23.3-59.1c0.6-1.7,1.7-2.1,3.2-2.1c1.1,0,1.9,0,3,0c104.9,0,209.8,0,314.5,0
		c6,0,6,0,4.3,5.6c-5.1,17.3-10.5,34.7-15.6,52c-0.9,2.6-1.7,3.9-4.9,3.9c-108.3,0-216.9,0-325.2,0
		C437.2,932.3,436.6,932.3,435.3,932.1z"/>
	<path class="st0" d="M943.4,336.9c0,2.1,0,3.6,0,5.4c0,89.1,0,177.9,0,267c0,0.4,0,0.6,0,1.1c-0.4,1.5,1.1,3.6-0.9,4.3
		c-1.7,0.6-3-1.1-4.1-2.1c-34-34.7-68.3-69.2-102.3-103.8c-8.8-8.8-17.6-17.8-26.3-26.5c-4.9-5.1-5.1-6.9,0-12
		c7.9-8.1,16.1-16.1,24-24c34.3-34.7,68.5-69.4,103-103.8C938.6,340.1,940.1,338.2,943.4,336.9z"/>
	<path class="st1" d="M540.4,1018.4c7.1-14.6,13.7-28.5,20.1-42.2c2.4-5.1,5.1-10.1,7.3-15.4c1.3-3.2,3.2-4.1,6.6-4.1
		c56.3,0.2,112.8,0,169.1,0c4.1,0,8.1,0.2,12.2,0c3-0.2,3.2,1.1,2.6,3.4c-4.9,18.4-9.8,36.8-14.6,55.2c-0.9,3.6-3.2,2.8-5.6,2.8
		c-40.7,0-81.4,0-122,0C591.4,1018.4,566.3,1018.4,540.4,1018.4z"/>
</g>
</svg>
