<?xml version="1.0" encoding="utf-8"?>
<!-- Generator: Adobe Illustrator 25.0.0, SVG Export Plug-In . SVG Version: 6.00 Build 0)  -->
<svg version="1.1" id="Слой_1" xmlns="http://www.w3.org/2000/svg" xmlns:xlink="http://www.w3.org/1999/xlink" x="0px" y="0px"
	 viewBox="0 0 2500 1200" style="enable-background:new 0 0 2500 1200;" xml:space="preserve">
<style type="text/css">
	.st0{fill:#2C2B2A;}
	.st1{fill:#302F2E;}
</style>
<g>
	<path class="st0" d="M1125.7,99.5c-0.6,1.7-0.2,3.5-0.3,5.2c0,1.5-0.4,2.4-1.9,3c-1.1,0.4-2.1,0.9-3.1,1.3
		c-16.1,6.5-32.3,13.1-48.4,19.6c-1,0.4-2,0.9-3.1,1.3c-1.2,0.4-1.7,1.2-1.9,2.4c-0.9,5.4-1.9,10.7-2.7,16.1
		c-1.9,13.3-3.8,26.6-5.5,39.9c-1.3,9.8-2.3,19.7-3.3,29.6c-1.2,11.3-2.3,22.6-3.4,33.9c-0.8,8.4-1.5,16.9-2.2,25.3
		c-0.9,10.8-1.8,21.7-2.6,32.5c-0.4,4.9-0.8,9.9-1.1,14.8c-1.1,18.5-2.2,37-3.3,55.6c-1.5,25.2-2.3,50.5-3,75.7
		c-0.5,17.6-0.6,35.2-0.6,52.8c0,96.5,0,192.9,0,289.4c0,21.8,0.4,43.5,1.2,65.2c0.7,19.3,1.7,38.7,3.3,58c1.1,13.2,2,26.5,3.3,39.7
		c1.3,13.4,2.9,26.7,4.4,40c0.7,5.9,1.5,11.7,2.1,17.6c0.2,1.5,0.8,2.2,2.3,2.5c11.6,2.5,23.1,5.2,34.6,7.6
		c18.3,3.9,36.7,7.3,55.1,10.3c14,2.3,28.1,4.3,42.2,6.2c12,1.6,24.1,3.1,36.2,4.4c11.9,1.3,23.9,2.3,35.8,3.3
		c11.6,0.9,23.3,1.7,34.9,2.5c8.8,0.5,17.6,0.9,26.4,1.2c34.5,1.2,69.1,1.3,103.6,0.3c17.6-0.5,35.2-1.3,52.7-2.4
		c16.9-1.1,33.8-2.4,50.6-4.3c13.8-1.5,27.7-2.7,41.5-4.3c16.7-1.9,33.4-3.7,49.9-6.5c2.2-0.4,4.4-0.8,6.6-1.2
		c1.3-0.2,2.3-0.9,2.9-2.2c0.4-0.9,0.8-1.7,1.3-2.6c30-59.1,60.1-118.2,90.1-177.4c3-5.8,1.3-4.8,7.8-4.9c2.6,0,5.1,0.1,7.7,0.1
		c0,1.6,0,3.2,0,4.8c-0.8,0.5-0.8,1.3-0.9,2.1c-0.1,1.4-0.1,2.9-0.4,4.3c-2.9,17.2-5.9,34.3-8.9,51.4c-2.7,15.7-5.4,31.5-8.1,47.2
		c-2.8,16-5.5,32.1-8.3,48.1c-2.7,15.7-5.4,31.5-8.1,47.2c-2.5,14.8-5.1,29.6-7.7,44.4c-0.6,0-1.3,0-1.9,0c-0.3-0.6-0.8-0.9-1.5-0.9
		c-1.3,0-2.6,0-3.8,0c-306.9,0-613.7,0-920.6,0c-0.6-1.6-0.2-2.8,1.4-3.5c1-0.5,2-1,3-1.5c15.9-7.8,31.8-15.7,47.8-23.4
		c2.2-1.1,3.7-2.4,4.1-4.8c0.1-0.5,0.2-0.9,0.4-1.4c3.3-11.5,5.6-23.3,7.6-35.1c2-11.8,3.7-23.7,5.1-35.6
		c1.2-11.1,2.5-22.2,3.7-33.4c0.8-7.8,1.4-15.6,2.1-23.4c1.2-13.4,2.3-26.8,3.4-40.1c0.9-10.8,1.6-21.7,2.3-32.5
		c1.2-17.1,2.4-34.1,3.4-51.2c0.9-15.5,1.6-31,2.3-46.5c0.4-7.3,0.8-14.7,1.1-22c0.8-19.8,1.9-39.6,2.4-59.4
		c0.5-17.3,0.5-34.5,0.6-51.8c0.1-40.5-0.1-80.9,0.1-121.4c0.2-56.1-0.9-112.3-4.1-168.3c-1-16.6-1.9-33.2-2.8-49.8
		c-1-18-2.4-36.1-3.9-54.1c-1.2-13.9-2.4-27.7-3.8-41.5c-2-18.4-4.7-36.8-8.1-55c-0.7-3.9-1.7-7.8-2.5-11.7c-0.2-1-0.7-1.7-1.7-2
		c-0.9-0.3-1.8-0.6-2.7-1c-17.4-6.3-34.8-12.6-52.2-19c-2.3-1-4.7-1.9-7.1-2.8c-1.1-0.4-1.4-1.1-1.4-2.2c-0.1-1.9-0.1-3.8-0.2-5.7
		c0.6,0,1.3,0,1.9,0c0.5,0.7,1.3,0.9,2.1,1c1.3,0,2.6,0,3.8,0c114.7,0,229.4,0,344.1,0c1.3,0,2.6,0,3.8,0c0.8,0,1.6-0.3,2.1-1
		C1124.5,99.5,1125.1,99.5,1125.7,99.5z M909.1,194.5c-0.1-5.4-0.5-10.9-0.2-16.3c0.9-16.3,12.4-30.4,29.2-34.5
		c2.1-0.5,4.4-0.4,6.4-1.6c0-2.2,0.1-4.4,0.1-6.7c0-1.8,0-3.5,0-5.3c0-1.1,0-2.2,0-3.4c0-0.9-0.4-1.5-1.4-1.5
		c-1.3,0-2.6-0.1-3.8-0.1c-17.3,0-34.5,0-51.8,0.1c-2.3,0-4.8-0.8-7,0.6c-0.6,2.2-0.3,4.4-0.3,6.6c0,263.4,0,526.8,0,790.2
		c0,1.4,0,2.9,0,4.3c-0.1,2.4-0.2,2.5-2.4,2.6c-2.2,0.1-4.5,0-6.7,0.1c-3.2,0.1-3.2,0.1-3.2,3.2c0,0.8,0,1.6,0,2.4
		c-0.1,38.9-0.1,77.7-0.2,116.6c0,1.3,0,2.6,0,3.8s0.7,1.6,1.8,1.7c1.9,0,3.8,0,5.8,0.1c5.3,0.1,4.9-0.4,5,4.9c0,3.2,0,6.4,0,9.6
		c0,1.2,0.6,1.7,1.8,1.8c0.6,0,1.3,0,1.9,0c19,0,38.1,0,57.1,0c0.6,0,1.3,0,1.9,0c1.2,0,1.6-0.7,1.6-1.8c0-0.8,0-1.6,0-2.4
		c0-3.4,0-6.7,0-10.1c0-1.6,0.4-1.9,2.1-1.9c1.9,0,3.8,0.1,5.8,0c0.9,0,1.4-0.6,1.5-1.5c0-1,0-1.9,0-2.9c0-39.5,0-79,0-118.5
		c0-1.1,0-2.2-0.1-3.4c0-0.7-0.5-1.2-1.2-1.3c-0.5-0.1-1-0.1-1.4-0.1c-1.7-0.1-3.9,0.7-5.1-0.4c-1.5-1.3-0.6-3.6-0.6-5.5
		c-0.2-185.8-0.4-371.7-0.6-557.5c-0.1-47.7-0.1-95.3-0.2-143c0-1.6,0.4-3.2-0.5-4.7c-2-0.4-4.1-0.7-6.1-1.2
		c-12.5-3.3-21.6-10.6-26.3-22.9c0-0.6,0-1.3-0.6-1.6c-0.8-0.4-1,0.3-1.4,0.8C909.5,194,909.3,194.3,909.1,194.5z M941.7,180.6
		c0,2.7,2.4,5.2,5.1,5.1c2.7,0,5.1-2.5,5-5.2c-0.1-2.5-2.4-4.8-4.9-4.9C944.3,175.5,941.7,177.9,941.7,180.6z"/>
	<path class="st1" d="M765.9,1100.5c0-0.3,0-0.6,0-1c306.9,0,613.7,0,920.6,0c1.3,0,2.6,0,3.8,0c0.7,0,1.2,0.4,1.5,0.9
		C1383.2,1100.5,1074.6,1100.5,765.9,1100.5z"/>
	<path class="st1" d="M1123.8,99.5c-0.5,0.7-1.3,0.9-2.1,1c-1.3,0-2.6,0-3.8,0c-114.7,0-229.4,0-344.1,0c-1.3,0-2.6,0-3.8,0
		c-0.8,0-1.6-0.3-2.1-1C886.5,99.5,1005.2,99.5,1123.8,99.5z"/>
	<path class="st1" d="M1304.8,895c-1.5,0.9-3.2,0.5-4.7,0.5c-12,0-24,0-36,0c-58.7,0-117.4,0-176,0c-1.6,0-3.2-0.1-4.8-0.2
		c-0.5,0-0.8-0.5-0.8-1c0-0.6,0.4-1,0.8-1.1c4.1-0.7,8.2-1.3,12.3-1.9c11.2-1.7,22.4-3.3,33.7-4.9c2.1-0.3,2.3-0.4,2.7-2.6
		c0.5-2.8,1-5.7,1.3-8.5c0.7-7.3,1.5-14.6,1.9-22c2.5-39,4-77.9,3.8-117c-0.1-19.8,0-39.7-0.8-59.5c-0.8-19-1.6-38-3.5-57
		c-0.5-4.9-0.9-9.9-1.4-14.8c-0.3-2.7-0.5-3-3.1-3.4c-5.2-0.8-10.4-1.5-15.7-2.2c-9.8-1.4-19.6-2.7-29.4-4.1
		c-0.6-0.1-1.3-0.3-1.9-0.4c-0.6-0.1-1.2-0.3-1.4-1.1c-0.1-0.5,0.7-1.1,1.7-1.2c1.3,0,2.6,0,3.8,0c69.7,0,139.4,0,209.1,0
		c1,0,1.9,0,2.9,0c2.5,0.1,2.6,0.2,2.8,2.8c0.7,9.1,1.4,18.2,2.1,27.3c0.8,9.9,1.6,19.8,2.5,29.6c0.1,1,0.2,1.9,0.2,2.9
		c0,0.8-0.1,1.6-1.1,1.7c-1,0.1-2,0.1-2.4-1c-0.4-1.2-0.8-2.4-1.1-3.7c-4.1-13.8-8.2-27.6-12.3-41.3c-0.3-0.9-0.5-1.8-0.8-2.8
		c-0.3-1.1-1.1-1.5-2.1-1.6c-1.1-0.1-2.2-0.2-3.3-0.3c-21.3-1.1-42.5-1.4-63.8,0c-10.4,0.7-20.7,1.8-30.9,3.8
		c-0.9,0.2-1.9,0.5-2.8,0.7c-0.7,0.2-1.1,0.6-1.2,1.3c-0.2,1.3-0.5,2.5-0.6,3.8c-0.8,9.4-1.7,18.8-2.3,28.2
		c-1.3,22.4-1.3,44.8-0.8,67.1c0.1,5.8,0.6,11.5,1,17.2c0.1,2.3,0.3,2.4,2.5,2.6c18,1.1,36.1,2.4,54.2,1.5
		c9.6-0.4,19.1-1.3,28.7-1.9c0.3,0,0.6-0.1,1-0.1c3.5-0.5,3.5-0.5,4.4-3.8c2.3-8.8,4.7-17.6,7-26.4c0.3-1.2,0.6-2.5,1-3.7
		c0.4-1.3,1-1.6,2.5-1.5c0.7,0.1,1.3,0.3,1.3,1.1c0.1,1,0.1,1.9,0.1,2.9c0,26.7,0,53.4,0,80.1c0,0.8,0,1.6,0,2.4
		c0,0.9-0.4,1.5-1.4,1.6c-1,0-2,0.1-2.4-1.1c-0.4-1.2-0.7-2.5-1-3.7c-2.6-9.9-5.2-19.8-7.6-29.7c-0.5-2.1-1.5-2.9-3.6-3.1
		c-4.8-0.3-9.6-0.8-14.3-1.1c-16.6-0.8-33.3-0.7-49.9,0.1c-6.7,0.3-13.4,1-20.1,1.6c-2,0.2-2.2,0.4-2.4,2.3
		c-1.4,14.3-2.2,28.7-1.5,43.1c0.3,7.5,0.4,15,0.4,22.5c0.1,13.3,0.6,26.5,1.2,39.8c0.3,6.1,1.1,12.1,1.4,18.2
		c0.1,2.3,1.3,3,3.2,3.5c6.7,1.7,13.4,3.1,20.2,4.1c20.5,2.7,41.1,3.3,61.7,2.3c6.1-0.3,12.1-0.5,18.2-1.1c2.1-0.2,3.1-0.9,3.7-2.9
		c3.7-11.4,7.5-22.7,11.3-34.1c1.2-3.5,2.3-7,3.5-10.5c0.2-0.6,0.3-1.3,0.7-1.8c0.5-0.8,1.3-0.9,2.1-0.7s0.9,0.8,0.9,1.5
		c-0.2,3.8-0.4,7.7-0.7,11.5c-0.5,6.4-1,12.8-1.4,19.1c-0.7,10.2-1.4,20.4-2.1,30.6C1305.1,894.1,1304.9,894.6,1304.8,895z
		 M1158.8,744c0-45.6,0-91.1,0-136.7c0-1.3,0-2.6,0-3.8c-0.1-2.2-0.3-2.6-2.4-2.6c-3,0-6.1,0-9.1,0c-2.5,0-2.7,0.2-2.8,2.7
		c0,1,0,1.9,0,2.9c0,91.8,0,183.6,0,275.3c0,1.3,0,2.6,0,3.8c0,1.1,0.5,1.8,1.7,1.8c2.2,0,4.5,0,6.7,0c6.6-0.1,5.9,1,5.9-5.8
		C1158.8,835.7,1158.8,789.8,1158.8,744z"/>
	<path class="st1" d="M1387.1,886.2c2.5,0.4,5.2,0.8,7.9,1.2c14.3,1.9,28.5,3.8,42.8,5.7c0.6,0.1,1.3,0.1,1.9,0.3
		c0.4,0.1,0.9,0.3,0.9,0.9c0,0.8-0.5,1.1-1.1,1.2c-1.1,0.1-2.2,0.1-3.4,0.1c-35.5,0-71,0-106.5,0c-1.1,0-2.2-0.1-3.3-0.1
		c-0.6,0-0.9-0.5-0.8-0.9c0-0.4,0.4-1,0.7-1.1c1.7-0.4,3.4-0.8,5.2-1.1c9.3-1.7,18.5-3.5,27.8-5.2c4.4-0.8,4.3-0.9,6.5-4.7
		c9.2-16.3,17-33.3,23.8-50.7c31.1-79.1,62.2-158.1,93.4-237.2c2.1-5.4,1-4.6,6.8-4.6c3,0,6.1,0.1,9.1,0c1.7-0.1,2.6,0.7,3.2,2.2
		c2.6,6.2,5.2,12.4,7.8,18.6c27.8,66.3,55.6,132.6,83.4,198.8c10.5,25.1,22.6,49.4,35.8,73.1c0.2,0.4,0.5,0.8,0.7,1.3
		c0.8,1.7,2,2.6,3.9,3c8.8,1.7,17.5,3.6,26.3,5.5c1.6,0.3,3.1,0.7,4.7,1.1c0.3,0.1,0.6,0.8,0.6,1.2s-0.3,0.9-0.9,0.9
		c-1.1,0-2.2,0.1-3.3,0.1c-45.7,0-91.4,0-137.2,0c-1.1,0-2.2-0.1-3.3-0.1c-0.6,0-0.8-0.5-0.8-1c-0.1-0.5,0.4-1,0.8-1
		c2.5-0.4,5.1-0.8,7.6-1.1c15.1-1.9,30.1-3.9,45.2-5.8c0.3,0,0.6-0.1,1-0.1c1-0.2,1.3-0.8,1.2-1.7c-0.1-1.3-0.3-2.6-0.5-3.8
		c-5.2-26.5-13.9-51.8-26.3-75.8c-3.2-6.2-1.6-5.1-8.2-5.1c-39.5,0-79,0-118.5,0c-0.6,0-1.3,0-1.9,0c-4.2,0-3.7-0.3-5.2,3.4
		c-8.4,21.1-16.7,42.2-23.3,63.9c-1.6,5.2-2.9,10.5-4,15.8C1387,884,1386.7,884.9,1387.1,886.2z M1421.5,785.8
		c1.7,0.3,3,0.6,4.2,0.8c10.5,1,21,1.7,31.6,2c15,0.4,30.1,0.4,45.1,0.1c11-0.2,22-1.1,33-2.1c1.4-0.1,2.9,0,4.2-1.3
		c-0.5-1.6-1.1-3.2-1.7-4.9c-7.3-20.5-15.8-40.5-24.5-60.4c-9.8-22.6-20.1-44.9-31.6-66.7c-0.7-1.3-1.4-2.5-2.1-3.8
		c-0.3-0.6-1.2-0.6-1.5,0c-0.7,1.3-1.3,2.5-1.9,3.8c-6.5,13.6-12.4,27.3-18.3,41.1c-12.5,29.2-23.8,59-35.4,88.5
		C1422,783.8,1421.9,784.5,1421.5,785.8z M1488.8,614.1c-2,5.1-4,10.1-5.9,15c-0.4,0.9-0.3,1.9,0.1,2.8c0.4,1,0.9,2.1,1.3,3.1
		c31.6,75.8,63.2,151.5,94.7,227.3c3.2,7.7,6.4,15.3,9.6,23c0.6,1.5,1.4,2.3,3.2,2.2c3.2-0.1,6.4,0,9.6-0.1c1.3,0,1.7-0.7,1.2-1.9
		c-0.4-1.2-1-2.4-1.5-3.5c-25.1-60.3-50.2-120.6-75.3-180.9c-11.5-27.6-23-55.1-34.5-82.7C1490.6,617.1,1490.4,615.4,1488.8,614.1z"
		/>
	<path class="st1" d="M1253.8,482.3c-0.5-11.2-1-22.4-1.5-33.6c0-0.8,0-1.6,0-2.4c0-0.7,0.3-1.2,1.1-1.3c0.8-0.1,1.6-0.1,2,0.9
		s0.7,2.1,1.1,3.2c4.4,14.2,8.8,28.4,13.2,42.6c0.2,0.8,0.6,1.5,0.7,2.3c0.4,3.3,2.5,4.8,5.5,5.9c6.6,2.5,13.3,4.6,20.1,6.2
		c11.7,2.7,23.5,4.6,35.6,4.2c13.7-0.5,26.5-4,38.1-11.4c14.9-9.4,24.1-22.8,27.2-40c3.1-17.2-1.2-32.7-13.8-45.3
		c-6.2-6.3-13-11.8-20-17.2c-8.9-6.8-18-13.2-27.3-19.5c-13.9-9.4-27.6-19.1-40.5-30c-8.1-6.8-15.4-14.4-21.5-23.1
		c-5.5-7.9-9.9-16.4-12-25.9c-3.4-15.1-2.4-29.9,3.5-44.2c9.8-24.1,28-39.1,52.2-47.4c9.1-3.1,18.6-4.5,28.3-4.9
		c13.4-0.5,26.9,0.1,40.2,1.4c12.9,1.2,25.9,1.3,38.8,0c2-0.2,2.3,0,2.3,1.9c0.2,10.1,0.5,20.1,0.6,30.2c0.2,12.3,0.3,24.6,0.5,36.9
		c0,1,0,1.9,0,2.9c0,0.7-0.3,1.2-1.1,1.3c-0.9,0.1-1.6-0.2-1.9-1.1c-0.4-1.4-0.8-2.8-1.2-4.2c-3.8-13.9-7.6-27.7-11.3-41.6
		c-0.6-2.1-1.5-3.3-3.5-4.1c-11.8-5-23.9-9.1-36.6-11c-14.5-2.2-28.7-1-42.4,4.4c-9.8,3.9-18.3,9.8-24.8,18.3
		c-11.7,15.1-15,39.5,0.3,58.2c5.7,7,12.2,13.1,19.3,18.6c4.3,3.3,8.7,6.5,13.3,9.5c13.3,8.9,26.7,17.6,40,26.4
		c9.1,6,17.9,12.3,26.2,19.4c7.2,6.2,13.8,12.9,19.1,20.7c11.6,16.8,16.3,35.4,13.5,55.5c-3.3,24-14.2,43.8-34.3,58.2
		c-13.3,9.5-28,15.1-44.1,17.5c-13,2-26.1,2.3-39.2,1.4c-12.9-0.9-25.8-1.7-38.8-2.4c-6.9-0.4-13.7-0.2-20.6,0.8
		c-0.9,0.1-1.9,0.2-2.9,0.2c-1.5,0-1.9-0.4-2-2c-0.1-1.6-0.1-3.2-0.2-4.8C1254.8,503.4,1254.3,492.8,1253.8,482.3
		C1253.9,482.3,1253.8,482.3,1253.8,482.3z M1351.6,205.6c-12.7,0.4-20.1,1.8-28.3,4.3c-14.2,4.3-26.7,11.3-37.1,22
		c-21.8,22.5-27.9,60-5.8,89.1c3.7,4.8,7.7,9.4,12.1,13.6c9.7,9.3,20.4,17.4,31.5,25c13.8,9.5,27.6,19.1,41.4,28.7
		c4.7,3.3,9.3,6.8,13.6,10.6c5.9,5.2,11.4,10.7,15.8,17.3c10.9,16.3,13.1,33.7,6.5,52.1c-7.6,21.2-23,34.5-43.8,41.9
		c-7.1,2.5-14.5,3.7-22.1,4.1c-1.4,0.1-2.9-0.2-4.2,0.5c-0.4,0.2-0.7,0.6-0.5,1.1c0.1,0.3,0.3,0.6,0.5,0.7c0.8,0.2,1.6,0.3,2.3,0.3
		c4.5,0.1,8.9-0.2,13.4-0.7c16.4-1.7,31.4-7.3,44.5-17.4c19.1-14.7,29.4-33.8,27.8-58.4c-0.8-12.9-4.7-24.7-12.4-35.2
		c-5.4-7.2-11.5-13.7-18.6-19.2c-6.9-5.4-14.1-10.5-21.4-15.5c-14.1-9.7-28.2-19.3-42.3-29c-7.2-5-14.3-10.2-20.9-16
		c-9.1-8-16.5-17.4-21.1-28.8c-6.3-15.7-6.7-31.6,0.9-46.9c8.1-16.4,20.5-28.4,37.8-35.1c10.5-4.1,21.5-6,32.7-6.8
		c1.6-0.1,3.2-0.1,4.8-0.2c0.7,0,1.4-0.3,1.4-1c0-0.7-0.6-1.1-1.3-1.1C1356,205.6,1353.1,205.6,1351.6,205.6z"/>
	<path class="st1" d="M909.4,273.2c-0.1-1.1-0.2-2.2-0.3-3.3c-0.1-24.2-0.2-48.4-0.2-72.6c0-0.9,0.1-1.9,0.2-2.8
		c0.2-0.2,0.4-0.4,0.6-0.6c0.4-0.4,0.7-1.2,1.4-0.8c0.6,0.3,0.6,1,0.6,1.6c-0.4,0.2-0.9,0.3-0.9,0.9c0,1.6-0.1,3.2-0.1,4.8
		c0.1,22.5,0.1,45,0.2,67.6c0,1.8-0.1,3.5-0.2,5.3C910.3,273.2,909.8,273.2,909.4,273.2z"/>
	<path class="st0" d="M947.4,994.9c0,17.7,0,35.5,0,53.2c0,4.5,0.1,4.2-4.1,4.2c-21.4,0-42.8,0-64.2,0c-0.8,0-1.6,0-2.4,0
		c-1,0-1.5-0.6-1.5-1.5c-0.1-1.1-0.1-2.2-0.1-3.4c0-35.2,0-70.3,0-105.5c0-5.2-0.3-4.7,4.6-4.7c21.1,0,42.2,0,63.3,0
		c1,0,1.9,0,2.9,0c0.9,0,1.5,0.5,1.5,1.4c0,1.3,0.1,2.6,0.1,3.8C947.4,960.1,947.4,977.5,947.4,994.9z"/>
	<path class="st1" d="M912.1,686.9c0.6,1.6,0.3,3.2,0.3,4.8c0.1,13.6,0.2,27.2,0.1,40.8c0,2.8,0.7,5.2,2.1,7.7
		c7,12,13.9,24.1,20.8,36.2c0.8,1.3,1.9,2.6,2,4.5c-1.8,0-3.5,0.1-5.2,0.1c-1.6,0-3.2,0-4.8,0c-2,0-2.2,0.2-2.3,2.2
		c0,1.1,0,2.2,0,3.4c0,27.7,0,55.3,0,83c0,1.1,0,2.2,0,3.4c0.1,2,0.2,2.1,2.3,2.2c3,0,6.1,0,9.1,0c1.5,0,1.9,0.7,1.1,2.2
		c-0.4,0.7-0.8,1.4-1.2,2.1c-7.4,12.7-14.9,25.4-22.3,38c-0.5,0.8-0.9,1.7-1.5,2.4c-0.4,0.6-1,0.8-1.6,0.1c-0.5-0.6-0.9-1.3-1.3-2
		c-7.5-13-15-26-22.6-39c-0.4-0.7-0.8-1.4-1.2-2.1c-0.4-0.8,0-1.6,0.9-1.6c1.4,0,2.9,0,4.3,0c1.4,0,2.9,0,4.3,0
		c2.6-0.1,2.7-0.1,2.7-2.8c0-10.2,0-20.5,0-30.7c-0.1-18.6-0.1-37.1-0.2-55.7c0-1,0-1.9,0-2.9c-0.1-1.6-0.4-2-2-2.1
		c-2.6-0.1-5.1,0-7.7,0c-0.8,0-1.5-0.1-2.2-0.2c-0.3-1.9,0.9-2.9,1.6-4.1c6.8-11.9,13.6-23.9,20.6-35.7c1.8-3,2.7-5.9,2.6-9.5
		c-0.2-13.3-0.1-26.6-0.2-39.8c0-1.6,0.1-3.2,0.2-4.8C911.3,686.9,911.7,686.9,912.1,686.9z"/>
	<path class="st1" d="M910.4,549.6c-0.1-1.3-0.3-2.5-0.3-3.8c-0.1-34.9-0.2-69.8-0.3-104.7c0-1,0.1-1.9,0.2-2.9c0.4,0,0.9,0,1.3,0
		c0.1,1.3,0.3,2.5,0.3,3.8c0.1,34.7,0.2,69.5,0.3,104.2c0,1.1-0.1,2.2-0.2,3.3C911.3,549.6,910.9,549.6,910.4,549.6z"/>
	<path class="st0" d="M911.3,438.3c-0.4,0-0.9,0-1.3,0c-0.1-1.6-0.2-3.2-0.2-4.8c-0.2-51.7-0.4-103.4-0.6-155.1
		c0-1.7,0.1-3.5,0.2-5.2c0.4,0,0.9,0,1.3,0c0.1,1.4,0.2,2.9,0.2,4.3c0.2,52,0.4,104,0.6,156C911.5,435.1,911.4,436.7,911.3,438.3z"
		/>
	<path class="st0" d="M910.4,549.6c0.4,0,0.8,0,1.2,0c0.1,1.7,0.2,3.5,0.2,5.2c0.2,42.4,0.3,84.8,0.5,127.3c0,1.6,0.3,3.2-0.3,4.7
		c-0.4,0-0.8,0-1.2,0c-0.1-1.6-0.2-3.2-0.2-4.8c-0.2-42.4-0.4-84.8-0.5-127.3C910.2,553.1,909.9,551.3,910.4,549.6z"/>
</g>
</svg>
