<?xml version="1.0" encoding="utf-8"?>
<!-- Generator: Adobe Illustrator 25.0.0, SVG Export Plug-In . SVG Version: 6.00 Build 0)  -->
<svg version="1.1" id="Слой_1" xmlns="http://www.w3.org/2000/svg" xmlns:xlink="http://www.w3.org/1999/xlink" x="0px" y="0px"
	 viewBox="0 0 2500 1200" style="enable-background:new 0 0 2500 1200;" xml:space="preserve">
<style type="text/css">
	.st0{fill:#02A0E2;}
	.st1{fill:#244183;}
</style>
<g>
	<path class="st0" d="M606,242.5c10.3,8.5,19.4,18.1,28.6,27.7c12.7,13.3,25.5,26.6,38.2,40c2.2,2.4,4.6,4.6,7,6.8
		c1.5,1.5,3.1,2.2,5,2c1.3,0,2.6,0,3.9,0c30.1,0,60.5,0,90.6,0c1.7,0,3.5,0,5.2,0c2.2,0,2.6,0.4,2.6,2.8c0,1.5,0,3.1,0,4.6
		c0,29.7,0,59.2,0,88.9c0,0.9,0,2,0,2.8c-0.4,3.1,0.7,5.5,2.8,7.6c6.1,5.9,12,12.2,17.9,18.3c17.2,17.7,34.5,35.4,51.7,53.1
		c3.7,3.7,3.7,3.3,0.2,7c-17.2,17.7-34.3,35.6-51.5,53.3c-5.7,5.9-11.1,11.8-17,17.7c-2.4,2.4-3.3,4.8-3.3,8.1c0,29.9,0,60-0.2,89.9
		c0,2.8,1.3,6.1-0.9,8.1c-2,1.7-5,0.7-7.9,0.7c-6.5,0.2-13.3,0.4-19.9,0.4c-23.1,0.2-46.3,0.4-69.6,0.7c-8.5,0-8.5,0.2-14.8,6.3
		c-21.6,21.4-43.4,42.6-65.1,64c-1.1,1.1-2.2,2.2-3.3,3.1c-0.4,0.4-1.1,0.4-1.5,0c-1.1-0.9-2-1.7-2.8-2.6
		c-16.8-16.4-33.8-33-50.7-49.3c-6.8-6.5-13.5-12.9-20.1-19.4c-2.4-2.6-5-3.3-8.5-3.3c-30.6,0-61.1,0-91.9,0c-1.7,0-3.5,0-5-0.2
		c-0.9,0-1.3-0.7-1.5-1.5c0-1.5-0.2-3.1-0.2-4.6c0-12.4,0-25.1-0.2-37.6c-0.2-19.4-0.4-38.9-0.4-58.1c0-3.3-1.1-5.2-3.3-7.4
		c-22.5-22.3-44.8-44.5-67-66.8c-1.5-1.5-2.8-3.1-4.4-4.4c0.9-2.4,2.6-3.5,4.1-5c21.8-21.8,43.9-43.7,65.7-65.7
		c5.5-5.5,4.6-3.3,4.6-10.9c0.2-31,0.2-62,0.2-93c0-1.3,0-2.6,0-3.9c0-3.7,0.2-3.7,3.9-3.7c12.7,0,25.5,0,38.2-0.2
		c20.1-0.2,40.4-0.4,60.5-0.4c2.8,0,4.8-0.9,7-3.1c15.3-16.2,30.8-32.1,46.3-48c7.9-8.1,15.9-16.4,24.9-23.4
		c0.2-0.2,0.2-0.7,0.4-1.1C605.1,242.5,605.6,242.5,606,242.5z M605.4,347.3c-2,0.7-3.1,2.2-4.4,3.5c-13.3,12.7-26.4,25.1-39.5,37.8
		c-2.4,2.4-4.8,3.3-8.1,3.3c-16.6-0.2-33,0-49.6,0c-1.5,0-3.1,0-4.6,0c-1.1,0-1.7,0.7-1.7,1.7c0,1.5,0,3.1,0,4.6
		c0,17.2-0.2,34.5,0,51.7c0,3.7-1.1,6.3-3.7,9c-12.9,12.7-25.8,25.3-38.4,38c-1.1,1.1-2.6,2-3.1,4.4c1.1,0.9,2.4,2,3.7,3.3
		c12.4,12,24.9,24,37.3,36c5.2,5,4.1,3.3,4.1,9.8c0,17.9,0,35.8,0,53.5c0,5.9-0.2,5.5,5.7,5.5c17.2,0,34.5,0,52,0
		c6.5,0,4.8-0.7,9.4,3.9c12.2,11.8,24.7,23.8,36.9,35.6c1.3,1.3,2.4,2.8,4.4,3.5c2-0.7,3.3-2.4,4.8-3.9
		c12.4-11.8,25.1-23.8,37.6-35.8c2.6-2.6,5.5-3.5,9.2-3.5c17.2,0.2,34.5,0,52,0c1.5,0,3.1,0,4.6,0c1.1,0,1.7-0.7,1.7-1.7
		c0-1.5,0-3.1,0-4.6c0-15.5,0.2-31.2,0-46.7c0-3.3,0.9-5.7,3.1-8.3c12.4-14.2,24.7-28.4,36.9-42.8c1.1-1.1,2-2.4,2.8-3.5
		c0.7-0.9,0.7-1.7,0-2.6c-1.1-1.1-2.2-2.2-3.1-3.3c-12-12.4-24-24.9-36.2-37.1c-2.4-2.6-3.5-5-3.3-8.5c0.2-17.7,0-35.4,0.2-53.1
		c0-5.5,0.2-5.5-5.2-5.5c-17.9,0-35.8,0-53.5,0c-3.1,0-5.2-0.9-7.4-3.1c-13.1-12.7-26.2-25.3-39.5-38
		C608.4,349.7,607.3,348,605.4,347.3z"/>
	<path class="st1" d="M2341,459.1c-40.6,0-81.4,0-122,0c-3.3,0-6.5,0-9.6,0c-2.2,0-2.6,0.4-2.6,2.8c0,1.7,0,3.5,0,5
		c-0.2,122.5-0.2,245.2-0.4,367.7c0,1.7,0,3.5,0,5c0,1.3-0.9,2-2.2,2c-0.9,0-2,0-2.8,0c-27.3,0-54.8,0-82.1,0
		c-5.2,0-5.2,0.4-5.2-5.2c0-32.1,0-64.2,0-96.3c0-91.3,0-182.3,0-273.6c0-2,0-3.7,0-5.7c0-1.3-0.9-2-2.2-2c-1.5,0-3.1,0-4.6,0
		c-41.3-0.2-82.5-0.7-123.8-0.9c-5.9,0-5.7,0.4-5.7-5.5c-0.2-22.5-0.4-44.8-0.7-67.2c0-0.7,0-1.1,0-1.7c0-2.2,0.7-2.6,2.8-2.6
		c1.7,0,3.5,0,5.2,0c116.4,0,232.7,0,349.1,0c2.4,0,5,0.4,7.4-0.4C2341,406.7,2341,432.9,2341,459.1z"/>
	<path class="st1" d="M1441.8,514.3c-14,0.7-28.2,1.3-42.1,1.7c-3.3,0.2-3.3,0-4.4-3.3c-1.5-5-3.1-10.3-4.6-15.3
		c-4.8-15.9-14.6-28.2-29-36.5c-10.3-5.9-21.2-9.2-32.7-10.9c-19.4-2.8-38.6-0.9-57.4,5.5c-7.9,2.6-15.5,6.3-22.3,11.4
		c-3.9,3.1-7.4,6.3-10.3,10.5c-6.1,9-7,18.3-2.8,28.2c3.3,7.4,8.3,13.5,14.8,18.6c6.3,4.8,13.3,8.1,20.5,11.1
		c12,4.8,24.5,8.3,36.9,11.4c18.6,4.6,37.3,9,55.9,13.8c18.1,4.6,35.8,10.5,52.8,18.1c15.9,7.2,30.8,15.9,43.7,27.5
		c22.1,19.6,35.8,44.1,40.6,73.4c3.7,21.6,1.7,43.2-4.8,64.2c-6.3,20.5-16.4,39.3-29.9,55.9c-5,6.3-11.1,11.4-17.5,16.2
		c-16.6,12.7-34.9,21.2-54.8,27.3c-14.8,4.6-30.1,7.6-45.6,9.4c-13.3,1.5-26.4,2.2-39.7,2c-26.6-0.7-52.8-4.6-78.6-12.4
		c-24.5-7.4-44.3-21.4-59.8-41.5c-11.8-15.1-20.3-32.1-27.1-49.8c-6.5-17.7-11.1-35.8-14.6-54.4c0-0.7-0.2-1.1-0.2-1.7
		c-0.2-1.5,0.7-2.2,2-2.2c1.1-0.2,2.2-0.4,3.3-0.4c18.3-2,36.7-4.1,55-6.1c8.1-0.9,16.2-2,24.2-2.8c0.9-0.2,2-0.2,2.8-0.2
		c1.5-0.2,2.4,0.4,3.1,2c2.2,5,3.9,10.3,5.5,15.5c1.5,5.2,2.8,10.7,4.6,15.9c6.1,21,19.6,35.2,39.3,44.1c10.5,4.8,21.4,7.4,32.7,9.2
		c9.8,1.5,19.6,1.7,29.7,1.1c14.2-0.9,27.9-3.5,41-9c8.5-3.7,16.2-8.3,22.7-15.1c9-9.2,13.8-20.3,14.2-33.2c0.2-5,0-9.8-1.1-14.6
		c-1.7-7.6-5.2-14.2-10.7-19.9c-4.4-4.4-9.2-7.9-14.6-10.9c-9.8-5.5-20.3-9.2-31.2-12.4c-16.2-4.8-32.7-8.5-49.1-12.4
		c-19.6-4.8-39.1-9.8-57.9-16.8c-13.3-5-26.2-10.9-38.4-18.6c-21.2-13.1-37.8-30.6-48.9-52.8c-9.2-18.3-13.3-38-11.8-58.5
		c1.3-16.4,5.2-32.3,12-47.2c7.6-17.2,19.6-31,34.7-42.1c14.8-10.9,31.4-18.3,48.9-23.8c16.4-5,33.2-7.9,50.2-9.4
		c14.2-1.3,28.4-1.3,42.8-0.7c38.9,1.5,74.2,13.3,105.5,36.7c10.9,8.1,20.5,17.5,28.8,28.2c10.9,14.4,18.3,30.6,20.5,48.7
		c0.9,7.4,0.9,14.8,0.2,22.3c-0.4,3.9-0.7,4.1-4.6,4.1c-11.4,0.4-22.7,0.9-34.3,1.3C1447.2,514.3,1444.6,514.3,1441.8,514.3
		C1441.8,514.1,1441.8,514.3,1441.8,514.3z"/>
	<path class="st1" d="M1582.1,611.5c0-74.2,0-148.7,0-222.9c0-8.1-0.9-7,7-7c108.1,0,216.4,0,324.4,0c8.3,0,7.4-1.1,7.4,7.2
		c0,21-0.2,41.7-0.2,62.7c0,1.3,0,2.6,0,3.9c-0.2,2.8-0.4,3.1-3.5,3.3c-1.5,0-3.1,0-4.6,0c-77.1,0.2-153.9,0.4-231,0.7
		c-1.7,0-3.5,0-5.2,0c-1.3,0-2,0.9-2.2,2.2c0,1.1,0,2.2,0,3.5c0,29.9,0,60,0.2,89.9c0,6.3-0.4,5.7,5.9,5.7
		c71.8,0.4,143.7,0.7,215.5,1.1c8.3,0,7.6-1.3,7.6,7.6c0,21.4-0.2,43-0.4,64.4c0,1.1,0,2.2,0,3.5c-0.2,2.2-0.4,2.4-2.8,2.6
		c-1.7,0-3.5,0-5.2,0c-71,0.2-141.9,0.7-212.6,0.9c-9.4,0-8.1-1.3-8.1,8.3c0.2,27.1,0.2,53.9,0.4,81c0,9.8,0.2,19.6,0.4,29.7
		c0,0.9,0,2,0.2,2.8c0.2,1.1,0.9,1.7,2,1.7c2,0,3.7,0,5.7,0c76.6,0.2,153.3,0.4,229.9,0.9c2.6,0,5.9-1.1,7.6,0.9
		c1.5,1.7,0.4,4.8,0.4,7.2c0,20.7-0.2,41.5-0.2,62.2c0,7.6,0.9,6.8-6.5,6.8c-56.3-0.2-112.4-0.2-168.8-0.4
		c-52.2-0.2-104.6-0.4-156.8-0.7c-7.2,0-6.3,0.9-6.3-6.3C1582.4,760.4,1582.4,685.9,1582.1,611.5L1582.1,611.5z"/>
	<path class="st1" d="M796,950.5c-2-0.9-3.3-2.6-4.6-3.9c-22.1-22.1-44.1-44.1-66.2-65.9c-5.2-5.2-3.1-4.4-10.3-4.4
		c-31.4-0.2-62.7-0.2-94.1-0.2c-6.8,0-6.3,0.2-6.3-6.1c0.2-32.5,0.4-65.1,0.4-97.4c0-2.8,0.4-5,2.6-7c15.1-14.6,30.1-29.5,45.2-44.3
		c0.4-0.4,1.1-1.1,1.7-1.5c0.4-0.4,1.1-0.2,1.5,0c0.7,0.7,1.3,1.3,2.2,2c5,5,10,10.3,15.3,15.3c2.2,2,2.8,4.1,2.8,7
		c0.2,17.9,0.4,35.8,0.7,53.5c0,5.7-0.2,5.7,5.5,5.7c17.7,0,35.4,0.2,53.1,0.2c3.3,0,5.9,0.9,8.1,3.1c7.9,7.9,15.9,15.7,24,23.6
		c5.2,5.2,10.5,10.5,15.7,15.7c2,2,2.2,1.7,4.1,0c10-9.8,20.1-19.6,30.1-29.5c3.5-3.5,7.2-6.8,10.5-10.5c2-2.2,4.1-2.8,7-2.8
		c16.4,0.2,32.7,0,49.1,0.2c3.1,0,6.1,0,9.2,0c1.3,0,2.2-0.9,2.2-2.2c0-1.5,0-3.1,0-4.6c0.2-16.8,0.2-33.8,0.2-50.7
		c0-3.1,0.9-5.2,3.1-7.4c12.2-12.9,24.5-26,36.7-39.1c1.1-1.1,2.2-2.2,3.1-3.3c0.7-0.9,0.9-1.7,0-2.4c-1.1-1.1-2.2-2.2-3.1-3.3
		c-12-12.4-24-24.9-36-37.3c-4.4-4.6-3.7-2.6-3.7-9.4c0-17,0-34.3,0-51.3c0-8.5,1.1-7.2-7.6-7.4c-17.2-0.2-34.5-0.7-52-0.9
		c-3.1,0-5.5-0.9-7.6-3.1c-5.9-5.9-12.2-11.6-18.3-17.2c0.4-0.9,0.9-1.5,1.3-2c13.5-14,26.9-27.9,40.8-41.3
		c6.8-6.5,6.8-6.3,15.9-6.5c30.8-0.2,61.6-0.4,92.4-0.7c6.8,0,6.3-0.9,6.3,6.5c0.2,31,0.2,62,0.4,93c0,1.3,0,2.6,0,3.9
		c-0.2,2,0.7,3.3,2,4.6c0.9,0.9,2,2,2.8,2.8c21.8,22.3,43.7,44.5,65.3,66.8c1.1,1.1,2.2,2.2,3.1,3.3c0.4,0.4,0.4,1.1,0,1.5
		c-1.1,1.3-2.4,2.4-3.5,3.7c-21.8,21.6-43.9,43.2-65.7,64.8c-5.7,5.7-4.6,3.3-4.6,11.4c0,31.4,0,63.1,0,94.5c0,7.2,0.4,6.5-6.3,6.5
		c-31.2,0.2-62.4,0.4-93.4,0.9c-0.7,0-1.1,0-1.7,0c-3.5-0.4-6.1,0.9-8.5,3.5c-11.6,11.6-23.1,23.1-34.7,34.5
		c-10.7,10.5-21.4,21.2-32.1,31.7C798.8,948.1,797.7,949.9,796,950.5z"/>
	<path class="st1" d="M416.3,848.2c1.7-2,2.8-3.7,4.4-5.2c11.1-11.1,22.3-22.3,33.4-33.4c6.3-6.3,6.3-6.1,15.5-6.1
		c15.9,0,31.9-0.2,47.8-0.2c1.5,0,3.1,0,4.6,0c1.1,0,1.7-0.7,1.7-1.7c0.2-1.3,0-2.6,0.2-3.9c0.2-17.7,0.7-35.4,0.7-53.1
		c0-3.1,0.9-5.2,3.1-7.4c5.7-5.5,10.9-11.1,16.6-16.6c1.3-1.3,1.7-1.3,3.3,0c5.2,5,10.3,10,15.5,15.1c10,9.8,20.1,19.9,30.1,29.5
		c2.2,2.2,3.3,4.4,3.3,7.4c0,33,0.2,65.7,0.2,98.7c0,0.7,0,1.5,0,2.2c0,2.2-0.4,2.6-2.8,2.6c-1.5,0-3.1,0-4.6,0
		c-30.8,0-61.6,0.2-92.4,0.2c-1.3,0-2.6,0-3.9,0c-1.7-0.2-3.3,0.4-4.6,2c-1.1,1.1-2.2,2.2-3.3,3.3c-21.8,21.8-43.7,43.4-65.5,65.3
		c-1.1,1.1-2.2,2.2-3.3,3.3s-2,0.9-2.8-0.2c-1.1-1.1-2.2-2.2-3.3-3.3c-21.6-21.4-43.2-42.8-64.8-64.2c-0.9-0.9-2-1.7-2.8-2.8
		c-1.5-1.7-3.3-2.2-5.5-2.2c-8.1,0-15.9-0.2-24-0.2c-24.2-0.2-48.2-0.2-72.5-0.4c-1.7,0-3.5,0-5,0c-1.1,0-1.7-0.7-1.7-1.7
		c0-1.7,0-3.5,0-5c0-31.2,0-62.2,0-93.4c0-0.9,0-2,0-2.8c0.4-3.3-0.9-5.7-3.3-7.9c-22.3-21.8-44.5-43.7-66.6-65.5
		c-1.5-1.5-2.8-3.1-4.6-4.6c0.7-2,2.2-3.1,3.5-4.4c21.8-22.3,43.7-44.5,65.3-66.8c0.7-0.7,1.3-1.5,2-2c2.2-1.7,2.6-3.9,2.6-6.5
		c0-13.8,0.2-27.3,0.4-41c0.2-18.1,0.2-36,0.2-54.1c0-1.5,0-3.1,0-4.6c0-2.2,0.4-2.4,2.8-2.6c1.5,0,3.1,0,4.6,0
		c31.7,0.2,63.5,0.7,95.2,0.7c3.5,0,6.1,0.9,8.5,3.5c7.4,7.4,15.3,14.8,22.7,22.5c7,7,13.8,14.2,20.7,21.2c0.7,0.7,1.3,1.3,1.7,2
		c0.2,1.7-0.9,2.2-1.7,3.1c-5.5,5.2-11.1,10.3-16.6,15.7c-2,1.7-3.9,2.6-6.5,2.6c-17.9,0.2-35.8,0.4-53.5,0.9
		c-6.8,0.2-6.5-0.9-6.5,6.3c0,17.5,0,34.9,0.2,52.4c0,0.4,0,0.9,0,1.1c0.4,3.1-0.9,5.2-3.1,7.6c-12.4,12.7-24.7,25.3-36.9,38
		c-1.3,1.3-2.6,2.8-3.9,4.1c0.9,2.2,2.6,3.5,3.9,5c12,12.9,23.8,25.5,36,38.2c2.6,2.6,3.7,5.2,3.7,9c0,17,0.4,34.3,0.7,51.3
		c0,0.9,0,2,0,2.8c0.2,2.2,0.4,2.6,2.8,2.6c7,0,14,0,21.2,0c12,0,24,0,36-0.2c3.1,0,5.2,0.9,7.4,3.1c12.9,12.9,26,25.5,39.1,38.2
		C413.2,845.5,414.3,846.4,416.3,848.2z"/>
	<path class="st0" d="M1420.8,913.4c1.3,0,2-1.1,2.6-2c3.9-4.4,8.1-8.5,12-13.1c2.2-2.6,4.6-3.7,7.9-3.3c1.5,0.2,3.1,0,4.6,0
		c0.4,0,1.1,0,1.5,0.4c0.2,0.7,0,1.1-0.4,1.5c-2,2-3.9,4.1-5.9,6.1c-2.2,2.4-4.6,4.6-6.8,7c-2.4,2.6-2.4,2.6-0.7,5.2
		c4.8,7.4,9.6,14.6,14.2,22.1c0.4,0.7,0.7,1.3,2,1.5c1.3-0.2,1.3-2,1.7-3.1c4.8-12,9.4-24,14-36c2-4.8,1.1-4.8,7-4.8
		c0.7,0,1.5,0,2.2,0c1.7,0,2.8,0.9,3.3,2.4c0.2,0.4,0.2,0.7,0.4,1.1c5,12.7,10.3,25.3,15.3,38c0.4,1.1,0.9,2,0.7,3.7
		c-2.4,0-4.8,0-7.2,0c-1.3,0-2-0.7-2.4-2c-0.7-2-1.5-3.9-2.2-5.9c-0.7-1.5-1.5-2.6-3.3-2.4c-4.6,0-9.2,0-13.8,0
		c-1.3,0-2.2,0.4-2.6,1.7c-0.9,2.4-1.7,4.6-2.6,7c-0.4,0.9-1.1,1.5-2.2,1.5c-0.7,0-1.1,0-1.7,0c-5,0-10.3,0-15.3,0
		c-2.2,0-3.5-0.7-4.6-2.6c-2.6-4.8-5.5-9.6-8.3-14.2c-0.7-1.3-1.1-2.8-3.1-3.5c-2.2,1.3-3.7,3.5-5.7,5.5c-1.1,1.1-1.1,2.4-1.1,3.7
		c0,2.8,0,5.7,0,8.5c0,2.2-0.4,2.6-2.8,2.6c-7,0-6.5,0.9-6.5-6.3c0-10.9,0-22.1,0-33c0-1.3,0-2.6,0-3.9c0-1.1,0.9-1.7,1.7-1.7
		c0.4,0,0.7,0,1.1,0c6.8,0,6.3-0.4,6.3,6.1c0,3.3,0,6.5,0,9.6C1419.9,911.7,1419.7,912.8,1420.8,913.4z M1468.4,921.7
		c5.5,1.1,7.9,0.9,11.1-0.4c-2.2-7.9-3.5-11.1-5.9-14C1471.4,912.1,1469.7,916.9,1468.4,921.7z"/>
	<path class="st0" d="M1275.2,910.4c0,5.2,0,10.7,0,15.9c0,3.7,0,7.6,0,11.4c0,2.2-0.7,2.6-2.8,2.6c-5.9,0-5.9,0.4-5.9-5.2
		c0-11.6,0-23.1,0-34.7c0-0.9,0-2,0-2.8c0-1.3,0.7-2.2,2-2.2c3.3,0,6.5,0,9.6,0c1.5,0,2.4,0.9,2.8,2.4c0.9,3.1,1.5,6.3,2.4,9.4
		c1.1,4.4,2.4,8.7,3.5,13.1c0.4,1.3,0.4,2.6,1.7,3.7c0.7-1.7,1.1-3.5,1.5-5.2c1.7-7,3.7-14,5.5-21c0.7-2.4,0.9-2.4,3.1-2.6
		c3.1,0,6.1,0,9.2,0c1.3,0,2.2,0.9,2.2,2.2c0,0.9,0,2,0,2.8c0,11.8,0,23.6,0,35.4c0,1.5,0.2,3.1-0.7,4.6c-0.7,0.2-1.1,0.4-1.7,0.4
		c-6.8,0-6.3,0.7-6.3-5.9c0-7,0-14,0-21.2c0-1.1,0-2-0.2-4.1c-1.5,2.2-1.7,3.5-2.2,5c-2,7.6-3.9,15.5-5.9,23.1
		c-0.7,2.8-0.9,2.8-3.9,3.1c-0.9,0-2,0-2.8,0c-2.6,0-2.8-0.2-3.5-2.6c-2-7.4-3.7-14.6-5.5-22.1c-0.4-1.7-1.1-3.5-1.5-5.2
		C1276,910.4,1275.6,910.4,1275.2,910.4z"/>
	<path class="st0" d="M1724.5,920.6c5.9,5,9.2,11.4,12.9,17.2c0.9,1.3,0.2,2.2-1.1,2.4c-7.9,0.7-7.9,0.7-12.4-6.1
		c-2.2-3.1-4.4-6.3-6.5-9.4c-1.3-1.7-2.8-2.8-5.2-3.1c-4.4-0.4-4.6,0-4.6,4.1c0,3.9,0,7.9,0,12c0,2-0.4,2.4-2.4,2.4
		c-7.6,0-7,0.9-7-6.3c0-10.7,0-21.6,0-32.3c0-1.5,0-3.1,0.2-4.6c0-1.1,0.9-1.7,2-1.7c3.7,0,7.6,0,11.4,0c4.4,0,8.7,0,13.1,0.4
		c9.6,0.9,12.9,11.6,9.2,18.6c-1.1,2-2.4,3.3-4.4,4.4C1728,919.3,1726.7,919.8,1724.5,920.6z M1715.5,914.3c1.1,0,3.3,0,5.5-0.2
		c4.1-0.7,6.1-5.2,3.7-8.7c-1.1-1.7-3.1-2.4-4.8-2.4c-2.8-0.2-5.7-0.2-8.5,0c-3.7,0-3.7,0.2-3.9,3.7c0,0.2,0,0.4,0,0.7
		C1707.7,915,1706.6,914.3,1715.5,914.3z"/>
	<path class="st0" d="M1391.8,921.1c5.2,5,9.2,11.4,12.7,17.9c0.2,0.2,0,0.7-0.2,1.1c-0.4,0.2-0.7,0.4-1.1,0.4
		c-2.8,0-6.1,0.9-8.3-0.4c-2-1.1-3.1-3.7-4.4-5.9c-2-3.1-4.1-5.9-6.1-9c-2-2.8-4.8-3.7-7.9-3.3c-1.3,0-2.2,0.9-2.2,2.2
		c0,2.8,0,5.7,0,8.5c0,1.7,0,3.5,0,5c0,2.4-0.4,2.6-2.6,2.8c-0.9,0-2,0-2.8,0c-3.7,0-3.9-0.2-3.9-3.9c0-12.4,0-25.1,0-37.6
		c0-3.5,0.2-3.7,3.5-3.7c5.9,0,11.8,0,17.7,0c2,0,3.7,0.2,5.7,0.4c5.7,0.9,9.2,4.4,10.3,9.8c1.1,5.7-1.5,10.7-6.5,13.3
		C1394.4,919.5,1392.8,919.3,1391.8,921.1z M1381.3,914.1C1381.3,914.1,1381.3,914.3,1381.3,914.1c2.2,0,4.1,0.2,6.3-0.2
		c3.1-0.4,4.8-2.4,5-5.2c0.2-2.8-1.7-5-4.6-5.7c-1.7-0.2-3.7-0.2-5.7-0.2c-9.4,0.2-8.3-1.5-8.3,8.7c0,0.4,0,0.7,0,1.1
		c0.2,0.9,0.7,1.5,1.5,1.5C1377.6,914.1,1379.5,914.1,1381.3,914.1z"/>
	<path class="st0" d="M1528.4,922.8c1.1-0.9,0.7-2.2,0.7-3.1c0-6.3,0-12.4,0-18.8c0-1.3,0-2.6,0.2-3.9c0-0.9,0.7-1.5,1.3-1.5
		c1.5-0.2,3.1-0.2,4.6-0.2c2,0,2.6,0.7,2.6,2.8c0,13.1,0,26.2,0,39.3c0,0.7,0,1.1-0.2,1.7c-0.2,0.4-0.7,0.9-1.1,1.1
		c-0.4,0.2-1.1,0.2-1.7,0.2c-7.6,0-5.7,0.9-9.4-5c-3.9-6.3-7.9-12.7-11.6-18.8c-0.7-1.1-1.5-2.2-2.2-3.3c-1.5,0.2-1.3,1.3-1.3,2.2
		c0,6.5,0,12.9,0,19.4c0,1.3,0,2.6-0.2,3.9c0,0.9-0.7,1.3-1.5,1.5c-0.2,0-0.4,0-0.7,0c-6.8,0-6.5,0.7-6.5-5.9c0-11.1,0-22.5,0-33.6
		c0-1.3,0-2.6,0-3.9c0-1.1,0.9-1.5,2-1.7c0.2,0,0.4,0,0.7,0c6.1-0.4,6.1-0.4,9.4,5c4.1,6.5,8.1,13.3,12.2,19.9
		C1526.5,921.1,1526.9,922.4,1528.4,922.8z"/>
	<path class="st0" d="M1547.2,917.4c0-6.5,0-12.9,0-19.4c0-2.2,0.4-2.8,2.6-2.8c6.1,0,12.2,0,18.3,0.2c9.8,0.4,14.6,7.4,16.4,14.8
		c1.1,4.8,1.1,9.8,0.2,14.6c-1.7,8.5-6.8,15.1-17.7,15.3c-5.7,0.2-11.4,0-17,0c-1.7,0-2.4-0.7-2.4-2.4c0-0.4,0-0.7,0-1.1
		C1547.2,930.2,1547.2,923.9,1547.2,917.4z M1556.6,917.8C1556.4,917.8,1556.4,917.8,1556.6,917.8c0,2.2,0,4.1,0,6.3
		c0.2,10-1.5,8.7,9.4,8.5c0.7,0,1.1,0,1.7-0.2c3.5-0.2,5.9-2.2,7.2-5.5c0.9-2.2,1.1-4.4,1.1-6.8c0-2.8,0-5.7-0.4-8.5
		c-0.9-5.5-3.7-8.1-9-8.7c-2.4-0.2-5-0.2-7.4-0.2c-2,0-2.4,0.7-2.4,2.4C1556.4,909.5,1556.6,913.6,1556.6,917.8z"/>
	<path class="st0" d="M1785.8,918c0,1.5-0.2,3.1-0.2,4.4c-1.1,10.3-7.9,17.5-18.1,19c-3.9,0.4-8.1,0.2-11.8-1.1
		c-6.1-2.2-10.3-6.5-12.2-12.7c-2-5.9-2-12-0.2-17.9c2.4-9,9.4-14.4,18.8-14.8c2.8-0.2,5.7-0.2,8.5,0.7c8.3,2.2,14,8.7,15.1,17.5
		C1785.6,914.5,1785.6,916.3,1785.8,918z M1776.4,918c0.2-2.8-0.2-5.7-1.3-8.3c-2-4.8-5.7-7.2-11.1-7.4c-5.5,0-9.4,2.4-11.4,7
		c-2.2,5.5-2.2,11.1,0,16.6c2,4.8,6.5,7.6,11.8,7.4c5-0.2,9-3.3,10.7-8.1C1776,923,1776.4,920.6,1776.4,918z"/>
	<path class="st0" d="M1610.5,917.8c0-6.5,0-13.3,0-19.9c0-2.4,0.4-2.8,2.6-2.8c9.4,0,18.6,0,27.9,0c2.4,0,2.8,0.4,2.8,3.1
		c0,0.9,0,2,0,2.8s-0.4,1.5-1.3,1.5c-1.3,0.2-2.6,0.2-3.9,0.2c-5.2,0-10.7,0-15.9,0c-2.2,0-2.6,0.4-2.8,2.6c0,0.2,0,0.4,0,0.7
		c0,7.6-0.7,6.8,6.5,6.8c4.6,0,9.2,0,13.8,0c1.3,0,2.2,0.7,2.2,2c0,0.2,0,0.4,0,0.7c0.2,5.5-0.2,5.2-4.8,5.2c-5,0-9.8,0-14.8,0
		c-2.6,0-2.8,0.2-2.8,3.1c0,2.2,0,4.6,0,6.8c0,1.3,0.9,2,2.2,2c5.2,0,10.3,0,15.5,0c0.9,0,2,0,2.8,0c1.5,0,3.5-0.7,4.4,0.9
		c0.9,1.5,0.7,3.7,0.2,5.7c0,0.4-0.7,0.9-1.1,1.1c-0.9,0.2-2,0.2-2.8,0.2c-8.7,0-17.5,0-26.2,0c-3.9,0-3.9,0-3.9-4.1
		C1610.5,930,1610.5,923.9,1610.5,917.8L1610.5,917.8z"/>
	<path class="st0" d="M2012.7,917.8c0-5.9,0-11.8,0-17.7c0-1.1,0-2.2,0.2-3.5c0-0.9,0.7-1.3,1.5-1.5c0.7,0,1.1-0.2,1.7-0.2
		c9.2,0,18.3,0,27.3,0c2.6,0,2.8,0.4,3.1,3.1c0,0.9,0,2,0,2.8c0,1.1-0.9,1.7-2,1.7c-1.5,0-3.1,0-4.6,0c-5,0-9.8,0-14.8,0
		c-2.4,0-3.1,0.7-3.1,3.1c0,7.4-0.7,7,6.5,7c4.6,0,9.2,0,13.8,0c1.7,0,2.2,0.4,2.4,2.4c0,1.1,0,2.2,0,3.5c0,1.1-0.7,1.7-1.7,1.7
		c-4.6,0-9.2,0-13.8,0c-7.9,0-6.8-0.7-7,7c0,0.7,0,1.5,0,2.2c0.2,2.2,0.7,2.6,2.8,2.6c5.2,0,10.7,0,15.9,0c1.5,0,3.1,0,4.6,0
		c0.4,0,1.3,0.4,1.3,0.9c0.7,2,0.9,4.1,0,6.1c-0.2,0.4-0.9,0.7-1.5,0.7c-1.3,0-2.6,0-3.9,0c-7.4,0-14.8,0-22.3,0
		c-7,0-6.3,0.4-6.3-6.5C2012.7,928.5,2012.7,923.3,2012.7,917.8z"/>
	<path class="st0" d="M1195.3,894.4c3.1,0,6.3,0.2,9.2,1.7c4.1,2,6.8,5.2,7.4,10c0,1.1-0.2,2-1.5,2c-0.9,0-2,0-2.8,0.2
		c-2.6,0.2-4.8,0-5.7-3.1c-0.4-1.7-2.2-2.4-3.9-2.8c-2.6-0.7-5.2-0.4-7.9,0.4c-1.5,0.7-2.6,1.7-2.6,3.5c0,1.5,0.7,2.6,2,3.3
		c1.5,0.7,3.1,1.3,4.8,2c1.7,0.7,3.7,0.9,5.5,1.5c2.2,0.7,4.4,1.3,6.3,2.2c5,2.2,7.4,6.3,7.4,11.8s-2.4,10-7.6,12.2
		c-6.8,2.8-13.8,3.1-20.5,0c-5-2.2-7.6-6.8-8.3-12c0-0.9,0.4-1.5,1.3-1.5c1.3-0.2,2.6-0.2,3.9-0.4c2.8-0.2,2.8-0.2,4.1,2.4
		c2.8,5.5,9.2,7.4,14.4,4.6c1.3-0.9,2.4-1.7,2.8-3.3c0.7-2.2,0-4.4-2-5.5c-1.3-0.7-2.8-1.1-4.1-1.5c-2.6-0.9-5.2-1.3-7.6-2.2
		c-1.7-0.7-3.5-1.3-5.2-2.2c-4.6-2.6-6.8-6.5-6.1-11.8c0.4-5,3.5-8.3,8.1-10C1189.4,894.7,1192.2,894.4,1195.3,894.4z"/>
	<path class="st0" d="M1869.2,894.4c3.5,0,6.3,0.2,9,1.3c3.5,1.3,6.3,3.7,7.6,7.2c1.7,5,1.5,5.2-3.5,5.2c-0.7,0-1.5,0-2.2,0
		c-1.3,0-2.2-0.2-2.8-1.5c-0.9-2-2-3.7-4.1-4.4c-2.8-0.7-5.7-0.7-8.3,0.4c-1.5,0.7-2.6,1.5-2.6,3.3c0,1.7,0.9,2.8,2.4,3.5
		c2,0.9,3.9,1.3,5.9,2c3.3,1.1,6.5,1.7,9.8,3.1c7.2,3.1,10,10.9,6.8,18.1c-1.5,3.5-4.4,5.9-7.9,7c-5.7,2-11.6,2-17.5,0
		c-5.7-2-8.7-6.3-9.8-12.2c-0.2-1.1,0.2-2,1.3-2c1.3-0.2,2.6-0.2,3.9-0.4c2.2-0.4,3.3,0.4,4.1,2.6c2.4,5.5,8.5,7.2,14,4.6
		c1.5-0.7,2.4-1.7,3.3-3.1c1.1-2,0.7-4.4-1.3-5.5c-1.3-0.9-2.6-1.3-4.1-1.7c-2.6-0.9-5.2-1.3-7.6-2.2c-2-0.7-3.9-1.3-5.7-2.4
		c-4.4-2.4-6.5-6.3-6.3-11.4c0.4-5,3.1-8.5,7.6-10.5C1863.8,894.7,1866.6,894.4,1869.2,894.4z"/>
	<path class="st0" d="M2191.7,917.8c0-6.3,0-12.4,0-18.8c0-3.5,0.2-3.7,3.5-3.7c9.2,0,18.1,0,27.3,0c2.2,0,2.6,0.4,2.8,2.6
		c0,0.4,0,0.7,0,1.1c0,3.5-0.2,3.7-3.9,3.7c-4.8,0-9.4,0-14.2,0c-1.3,0-2.6,0-3.9,0c-1.3,0-2.2,0.7-2.2,2c0,0.2,0,0.4,0,0.7
		c0,8.3-1.1,7.4,7,7.4c4.6,0,9.2,0,13.8,0c1.1,0,1.7,0.7,2,1.7c0,1.3,0,2.6,0,3.9s-0.9,2-2.2,2c-5.2,0-10.7,0-15.9,0
		c-4.4,0-4.4,0-4.4,4.4c0,8.5-1.1,7.6,7.4,7.6c5,0,10.3,0,15.3,0c1.3,0,2.2,0.7,2.2,2c0,0.2,0,0.4,0,0.7c0.2,4.8,0.2,5-4.8,5
		c-8.1,0-16.4,0-24.5,0c-1.1,0-2.2,0-3.5-0.2c-0.9,0-1.3-0.7-1.3-1.5c0-1.3-0.2-2.6-0.2-3.9C2191.7,929.1,2191.7,923.5,2191.7,917.8
		z"/>
	<path class="st0" d="M1688.5,912.6c0,4.4,0,8.7,0,13.1c-0.2,11.1-6.8,15.1-15.7,15.5c-3.1,0.2-6.1,0-9-0.9
		c-6.1-1.7-9.6-5.7-10.5-12c-0.2-1.7-0.4-3.5-0.4-5c0-8.3-0.2-16.6,0-25.1c0-2.6,0.4-3.1,3.1-3.1c6.8,0,6.3-0.2,6.3,6.1
		s0,12.4,0,18.8c0,1.7,0,3.5,0.2,5c0.4,5.5,3.3,8.3,8.7,8.3c5.2,0,8.1-2.4,8.5-7.9c0.2-5,0.2-10.3,0.2-15.3c0-3.3,0-6.5,0-9.6
		c0-1.5-0.9-3.7,0.9-4.8c2.2-1.3,4.8-0.7,7.2-0.2c0.4,0,0.9,0.9,0.9,1.3c0.2,0.9,0.2,2,0.2,2.8
		C1688.5,903.8,1688.5,908.2,1688.5,912.6L1688.5,912.6z"/>
	<path class="st0" d="M1804.2,939.8c0-1.7,0.7-3.1,1.3-4.6c4.6-11.8,9.2-23.6,13.8-35.6c0.2-0.4,0.2-0.7,0.4-1.1
		c0.7-2.8,2.4-4.1,5.5-3.7c0.4,0,0.7,0,1.1,0c4.6,0,4.4-0.4,6.3,4.1c4.8,12.2,9.8,24.2,14.6,36.5c0.4,1.1,1.3,2.4,1.1,3.7
		c-2.4,0.9-6.3,1.1-8.1,0.9c-0.9-0.2-1.3-0.9-1.5-1.5c-0.9-2.2-1.7-4.1-2.4-6.3c-0.7-1.7-1.7-2.4-3.5-2.2c-4.4,0-8.7,0-13.1,0
		c-1.7,0-2.8,0.9-3.3,2.4c-0.7,2-1.5,3.9-2.2,5.9c-0.4,0.9-0.9,1.7-2,1.7C1809.4,940.3,1806.8,940.7,1804.2,939.8z M1826.2,906.7
		c-3.3,5.9-5,11.1-5.2,15.3c3.1,0.9,5.9,0.4,9,0.2c1.1,0,1.7-0.9,1.3-2C1829.7,916,1828,911.7,1826.2,906.7z"/>
	<path class="st0" d="M1953.1,939.8c-0.7,0.2-0.7,0.4-0.9,0.4c-2.4,0-5.2,0.9-7.2-0.2c-2.4-1.1-2.2-4.1-3.3-6.3
		c-0.2-0.4-0.4-1.1-0.7-1.5c-0.4-1.1-1.1-2-2.4-2c-4.8,0-9.6,0-14.2,0c-1.3,0-2.2,0.7-2.6,1.7c-0.9,2.2-1.7,4.6-2.6,7
		c-0.4,1.1-1.1,1.5-2.2,1.5c-8.3,0-8.5,1.1-5.5-6.8c4.4-11.4,8.7-22.7,13.3-34.1c0.4-0.9,0.7-1.7,1.1-2.6c0.4-1.3,1.3-1.7,2.6-2
		c7.2-0.7,7.6-0.7,10.3,6.3c4.4,10.9,8.7,21.8,13.1,32.7C1952.4,935.9,1953.5,937.7,1953.1,939.8z M1936.5,921.9
		c-1.1-5.7-3.5-11.6-5.9-14.8c-1.5,4.4-3.3,8.7-4.8,12.9c-0.2,0.4,0,1.1,0,1.7C1929.5,922.6,1933,922.6,1936.5,921.9z"/>
	<path class="st0" d="M1359.4,939.6c-0.9,0.9-1.7,0.7-2.6,0.7c-7.9-0.2-6.1,1.1-8.7-5.9c-2-4.8-1.7-4.1-6.1-4.4c-3.7,0-7.6,0-11.4,0
		c-1.5,0-2.4,0.7-3.1,2c-0.7,2.2-1.5,4.4-2.4,6.3c-0.4,1.1-1.3,1.7-2.6,1.7c-2.2,0-4.6,0-6.5,0c-0.9-1.3-0.4-2.2,0-3.1
		c5-12.9,10-25.8,15.1-38.6c0.9-2.6,2.4-3.5,5-3.5c6.8,0.2,5.7-0.4,8.1,5.5c4.4,11.1,9,22.1,13.3,33.2
		C1358.4,935.7,1359.4,937.7,1359.4,939.6z M1337.2,922.4c1.3,0,2.6,0,3.9,0c1.3,0,1.7-0.7,1.5-1.7c-1.5-4.1-3.1-8.1-4.6-12.2
		c0-0.2-0.4-0.7-0.9-0.7c-0.2,0-0.9,0.2-0.9,0.4c-1.1,2.8-2.2,5.7-3.3,8.5C1331.1,922.4,1330.4,922.4,1337.2,922.4z"/>
	<path class="st0" d="M1261.6,939.6c-0.9,0.4-0.9,0.4-1.1,0.4c-2.6,0.2-5.5,0.9-7.9-0.2c-2.2-1.1-2.2-4.1-3.3-6.3
		c-0.2-0.4-0.4-1.1-0.7-1.5c-0.4-1.1-1.3-1.7-2.6-1.7c-4.8,0-9.4,0-14.2,0c-1.3,0-2.2,0.7-2.6,2c-0.7,2-1.5,3.9-2.2,5.9
		c-0.7,1.5-1.3,2.6-3.3,2.6c-7.6,0-7.9,0.9-4.8-6.8c4.4-11.4,8.7-22.7,13.1-33.8c0.4-0.9,0.7-1.7,1.1-2.6c0.4-1.1,1.3-1.7,2.6-2
		c7-0.9,7.6-0.4,10.3,6.3c4.6,11.4,9.2,22.9,13.8,34.3C1260.5,937,1261,938.3,1261.6,939.6z M1233.5,921.5c1.3,1.1,2.6,0.9,3.9,0.9
		c8.3,0,8.1,0.9,5-6.8c-0.9-2.2-1.5-4.1-2.4-6.3c-0.2-0.7-0.4-1.5-1.7-1.5C1236.5,912.1,1234.8,916.7,1233.5,921.5z"/>
	<path class="st0" d="M2071.2,925.4c-2.8,4.4-5.5,7.9-7.6,11.8c-1.5,2.6-3.5,3.7-6.5,3.3c-1.7-0.2-3.7,0.2-5.5-0.4
		c-0.4-1.7,0.7-2.6,1.3-3.7c3.7-5.5,7.2-11.1,10.9-16.6c1.3-2,1.5-3.5,0-5.7c-3.7-5.5-7.4-11.1-10.9-16.6c-0.9-1.3-0.4-2.2,1.1-2.2
		c0.2,0,0.4,0,0.7,0c9.2,0.2,6.5-1.1,11.4,5.9c1.5,2.4,3.3,4.6,4.8,7.2c2.4-2.4,3.7-5.2,5.5-7.6c0.9-1.3,1.7-2.6,2.6-3.7
		c0.7-1.1,1.5-1.7,2.8-1.5c2.2,0,4.6,0,6.8,0c0.9,0,1.3,0.9,0.9,1.5c-1.1,1.7-2.2,3.5-3.3,5.2c-2.6,4.1-5.2,8.3-8.1,12.4
		c-1.1,1.7-1.1,3.1,0,4.6c3.7,5.2,7.2,10.7,10.7,16.2c0.7,1.1,1.5,2.2,2,3.5c0.4,0.9,0,1.3-0.9,1.5c-0.2,0-0.4,0-0.7,0
		c-7.9,0.4-7.9,0.4-12.2-6.1C2075.3,931.6,2073.6,928.7,2071.2,925.4z"/>
	<path class="st0" d="M1993,939.8c-0.2,0-0.4,0.2-0.4,0.2c-9.6,0.7-8.1,0.9-8.1-7.2c0-8.3,0-16.8,0-25.1c0-0.9,0-2,0-2.8
		c0-1.3-0.7-2.2-2.2-2.2c-2.4,0-5,0-7.4,0c-3.5,0-3.7-0.2-3.7-3.9c0-0.7,0-1.1,0-1.7c0-1.1,0.7-1.7,1.7-2c0.7,0,1.5,0,2.2,0
		c9.2,0,18.3,0,27.3,0c0.9,0,2,0,2.8,0.2c0.9,0,1.3,0.7,1.5,1.5c0,1.1,0,2.2,0,3.5c0,2.2-0.4,2.6-2.8,2.6c-2.8,0-5.7,0-8.5,0.2
		c-1.1,0-1.7,0.9-2,1.7c-0.2,1.5-0.2,3.1-0.2,4.6c0,8.7,0,17.5,0,26.2C1993.5,937,1993.9,938.5,1993,939.8z"/>
	<path class="st0" d="M2107.2,921.5c0-5.2,0-10.7,0-15.9c0-2.2-0.4-2.6-2.8-2.6c-2.8,0-5.7,0-8.5,0c-1.3,0-2.2-0.7-2.2-2.2
		c0-0.7,0-1.5,0-2.2c0-2.8,0.4-3.3,3.3-3.3c9.8,0,19.6,0,29.7,0c0.7,0,1.1,0,1.7,0.2c1.7,0.4,1.5,2,1.3,3.3c0,1.3,0.7,3.3-1.3,3.9
		c-0.9,0.2-2,0.2-2.8,0.2c-2.4,0-5,0-7.4,0.2c-1.1,0-1.7,0.7-1.7,1.7c0,1.5,0,3.1,0,4.6c0,8.7,0,17.5,0,26.2c0,1.1,0,2.2-0.2,3.5
		c0,0.9-0.7,1.3-1.5,1.5c-0.2,0-0.4,0-0.7,0c-7.6,0-7,0.9-7-6.3C2107.2,929.8,2107.2,925.7,2107.2,921.5L2107.2,921.5z"/>
	<path class="st0" d="M2153.3,917.8c0-6.3,0-12.4,0-18.8c0-3.3,0.2-3.5,3.7-3.5c5.7,0,5.7-0.4,5.7,5.5c0,8.1,0,16.4,0,24.5
		c0,1.5,0,3.1,0,4.6c0,1.7,0.7,2.4,2.4,2.4c1.3,0,2.6,0,3.9,0c3.9,0,7.9,0,12,0c1.3,0,2.8-0.4,3.7,0.9c1.1,2,0.7,3.9,0.2,6.1
		c0,0.2-0.4,0.7-0.9,0.7c-0.9,0.2-2,0.2-2.8,0.2c-7.9,0-15.5,0-23.4,0c-4.6,0-4.6,0-4.6-4.8C2153.3,929.6,2153.3,923.7,2153.3,917.8
		L2153.3,917.8z"/>
	<path class="st0" d="M1904.8,917.4c0,6.8,0,13.5,0,20.5c0,2-0.4,2.4-2.2,2.4c-7.9,0-7,0.9-7-6.3c0-11.1,0-22.3,0-33.6
		c0-1.3,0-2.6,0.2-3.9c0-0.4,0.7-0.9,1.1-1.3c0.2-0.2,0.7-0.2,1.1-0.2c7.6,0,7-0.9,7,6.3C1904.8,906.9,1904.8,912.1,1904.8,917.4
		L1904.8,917.4z"/>
	<path class="st0" d="M2135.8,940.1c-0.9-1.3-0.7-2.6-0.7-3.9c0-12.2,0-24.2,0-36.5c0-0.9,0-2,0.2-2.8c0-0.9,0.7-1.5,1.5-1.5
		c2,0,3.7-0.2,5.7,0c1.1,0,1.7,0.7,2,1.7c0,0.9,0,2,0,2.8c0,12,0,24,0,35.8c0,0.9,0,2,0,2.8c0,1.1-0.9,1.7-1.7,1.7
		C2140.4,940.3,2138,940.7,2135.8,940.1z"/>
</g>
</svg>
