<?xml version="1.0" encoding="utf-8"?>
<!-- Generator: Adobe Illustrator 25.0.0, SVG Export Plug-In . SVG Version: 6.00 Build 0)  -->
<svg version="1.1" id="Слой_1" xmlns="http://www.w3.org/2000/svg" xmlns:xlink="http://www.w3.org/1999/xlink" x="0px" y="0px"
	 viewBox="0 0 2500 1200" style="enable-background:new 0 0 2500 1200;" xml:space="preserve">
<style type="text/css">
	.st0{fill:#02A0E2;}
	.st1{fill:#244182;}
</style>
<g>
	<path class="st0" d="M223.2,489.7c0.6,0,1.4,0.4,1.4-0.4c0.4-1.8,0.6-3.7,0.8-5.3c0.6-6.8,1.8-13.3,3.9-19.9
		c2.5-7.6,6.4-14.2,11.7-20.1c7-7.8,15.6-12.5,25.9-14.6c8.4-1.6,16.8-2.3,25.3-2.1c20.3,0.4,40.9,0.4,61.2,0.2
		c18.1-0.2,36.3-0.4,54.4-0.6c4.1,0,8.2,0,12.3,0.8c2.1,0.4,2.7,1,1.8,2.9c-1,2.7-2.3,5.3-3.5,7.8c-2.7,5.5-6.2,10.7-9.7,15.8
		c-4.7,6.6-9.4,12.9-14,19.5c-1.2,1.8-2.9,2.7-5.1,2.7c-8.2,0-16.4,0.4-24.6,0.4c-26.9,0.2-54,0.4-80.9,0.6c-8.4,0-7.2-0.8-8.4,7.6
		c-1,7.4-1.4,14.8-1.6,22.2c0,20.7-0.2,41.5,0.8,62.4c0.4,10.5,0.4,20.9,0.6,31.4c0.6,89.7,1,179.5,1.6,269.2
		c0.2,32.9,0.6,65.9,1,98.8c0,3.7,0.4,7.4,0.6,11.1c0,1.4,0.8,2.3,2.3,2.5c1.6,0.2,3.3,0.8,4.9,0.8c6.8,0.6,13.6,1.2,20.3,1.4
		c11.5,0.4,23,0.8,34.5,0.8c19.3-0.2,38.8-0.6,58.1-1c6-0.2,11.9-0.6,17.9-1c1.4,0,2.9,0,3.9-1.2c-0.2-1-0.6-1.4-1.4-2.1
		c-14.6-11.5-28.3-24-40.9-37.6c-8.6-9.2-16.6-18.9-23.6-29.4c-8-11.7-15.6-23.8-22.6-36.1c-11.7-20.7-18.9-43.1-23.6-66.5
		c-5.3-27.1-6.4-54.4-4.7-81.7c1.8-31.2,7.6-61.6,19.5-90.6c13.3-32.2,32.7-60.4,58.9-83.6c9.4-8.4,19.7-15.6,31.2-20.9
		c8-3.7,16.2-6,24.8-6.8c9.4-0.8,18.5,0.8,27.3,4.1c11.1,4.1,20.7,10.7,29.6,18.7c13.6,12.1,24.6,26.1,33.9,41.5
		c10.3,17,18.9,35.1,26.7,53.6c10.3,24.2,19.3,48.9,28.5,73.7c9.4,25.9,18.9,51.8,29.8,77.2c8,18.5,16.8,36.8,27.3,54
		c7.6,12.5,16,24.4,25.9,35.3c10.3,11.3,21.8,20.7,35.3,27.5c22.4,11.1,45.2,11.5,68,1.6c12.3-5.3,23-12.7,32.9-21.6
		c14-12.5,26.1-26.9,35.9-42.9c4.9-8,9.4-16.4,14.2-24.6c3.5-6,7-11.7,10.5-17.5c0.8-1.2,1.4-2.5,3.1-3.5c0.4,5.1-0.8,9.4-1.6,13.8
		c-2.9,13.3-7.4,26.1-12.5,38.6c-28.5,70-78.4,119.7-146.4,151.8c-24.6,11.7-50.7,19.1-77.8,23.2c-15.4,2.5-31.2,3.3-46.8,2.9
		c-43.7-0.8-87.3-0.4-131,0.4c-39.6,0.6-79.1,0.6-118.7,0.6c-15.8,0-31.6-0.6-47.6-1.4c-6.4-0.2-12.7-0.8-19.1-2.3
		c-14.8-3.3-25.7-11.5-32.2-25.3c-3.5-7.4-5.3-15.2-6.4-23c-0.8-7-1.2-14-1.2-20.9c-0.6-81.3-0.2-162.6,0-244
		c0.2-56.1,0.2-111.9,0-168c0-8.4-0.2-16.8-0.6-25.3c0-1.4-0.4-2.9-0.6-4.3c-0.2-0.8-1-0.6-1.4-0.6
		C223.2,510.4,223.2,499.9,223.2,489.7z"/>
	<path class="st0" d="M2276.9,1029.6c-4.1-0.8-8.2-0.2-12.3-0.4c-2.1-0.2-2.5-0.6-2.7-2.7c0-1.4,0-2.9,0-4.3c0-9.4,0-18.9,0-28.3
		c0-2.9-0.2-5.8-1-8.6c-1-3.7-3.3-5.5-7-5.8c-5.5-0.4-10.3,3.3-11.5,9.2c-0.8,3.7-1.2,7.4-1.2,11.1c0,7.8,0,15.6,0,23.4
		c0,1.4,0,2.9-0.2,4.3c0,0.8-0.6,1.4-1.6,1.6c-0.8,0-1.6,0.2-2.5,0.2c-3.7-0.2-7.4,0.6-11.1-0.6c-1.6-3.5-0.6-7.2-0.8-10.9
		c-0.2-8.6,0-17.3-0.2-25.9c0-2.1,0-4.1-0.4-6.2c-0.8-4.3-3.7-6.2-8-6.2c-6,0-10.5,3.9-11.3,10.3c-0.4,3.3-0.6,6.6-0.6,9.9
		c0,7.8,0,15.6,0,23.4c0,6.4,0,6.4-6,6.2c-3.3-0.2-7.2,1.4-9.4-1c-2.1-2.3-0.8-6-0.8-9c0-14.6,0-29.2,0-43.7c0-1.6,0-3.3,0.2-4.9
		c0-1.2,0.8-1.8,2.1-2.1c3.5,0,7,0,10.5,0c1.4,0,2.1,1,2.3,2.3c0.2,1.2-0.4,2.9,0.8,3.9c9-6.2,12.7-7.8,18.3-7.6
		c7,0.2,12.7,2.9,16.4,8.8c2.1-0.6,2.9-2.1,4.1-3.1c6.2-5.1,13.1-6.8,20.7-4.9c5.5,1.2,9.9,4.1,11.7,9.9c0.2,0.4,0.8,0.8,1,1.2
		C2276.9,995.7,2276.9,1012.7,2276.9,1029.6z"/>
	<path class="st0" d="M1522.8,1054.2c0.2-1-0.6-1.2-1.4-1.4c-2.5-0.8-5.1-1.4-7.6-2.7c-6-3.1-9.2-8-9.4-14.8c0-1.6,0.6-2.3,2.3-2.3
		c4.7,0.4,9.4,1,14.2,1.6c1.4,0.2,2.1,1,2.7,2.3c1,2.7,3.3,3.5,5.8,3.9c3.1,0.4,6.2,0.2,9.2-0.4c3.5-0.6,6-2.9,6.6-6.4
		c0.8-4.1,0.4-8.4,0.4-12.7c-2.3,0-2.9,1.4-3.9,2.3c-9.4,8.4-24.8,6.6-32.4-3.5c-3.5-4.7-5.5-10.1-6.4-15.8c-1-8-0.4-15.6,2.9-23
		c4.9-10.7,16-16.2,27.5-13.8c3.3,0.6,6.2,2.3,8.8,4.3c1.2,1,2.5,2.1,3.3,2.9c1,0,1.2-0.2,1.2-0.8c0.4-5.5,0.4-5.5,6-5.8
		c2.3,0,4.5,0,6.8,0c1.4,0,2.3,0.8,2.5,2.3c0,1,0,2.1,0,3.1c0,16.8,0,33.7,0,50.5c0,4.3-0.2,8.6-1.2,12.9
		c-1.8,7.4-6.4,12.3-13.8,14.6c-1.6,0.4-3.1,1-4.7,1.4c-0.2,0-0.2,0.6-0.4,1C1535.1,1054.2,1528.9,1054.2,1522.8,1054.2z
		 M1518.7,997.3c0,5.5,0.6,8.6,1.8,11.3c3.7,8,13.8,9.9,20.1,3.7c1.4-1.4,2.7-3.1,3.3-5.1c2.1-6.4,2.3-12.9,0-19.3
		c-2.1-5.5-7-8.8-12.3-8.6c-5.5,0.2-9.7,3.7-11.7,9.4C1518.7,991.8,1518.7,994.9,1518.7,997.3z"/>
	<path class="st1" d="M588.8,146.5c2.1,1.4,2.1,3.7,2.9,5.5c6,16.4,11.9,32.9,17.7,49.3c9.2,25.5,19.9,50.5,30.6,75.4
		c15.4,35.7,31.6,71.1,49.7,105.6c5.3,10.3,11.1,20.1,16.8,30.2c1.6,3.1,3.7,6,6,8.6c3.3,4.3,7.8,6.6,13.3,6.8
		c4.1,0.2,8.2,0.4,12.3,0.4c16.8-0.2,33.9-0.2,50.7-0.4c22.2-0.4,44.6-0.8,66.7-1c12.7-0.2,25.5-0.2,38.2,1
		c7.4,0.6,14.8,1.6,21.8,3.9c14.4,4.1,23.8,13.3,28.5,27.5c2.3,6.8,3.7,14,4.5,21.2c0.8,7,1.2,14,1.4,20.9s0.2,14,0.2,20.9
		c0,129.4-0.2,258.6-0.2,387.9c0,12.7,0,25.5-0.2,38.2c-0.2,12.1-0.6,24.2-1.2,36.3c-0.4,7.4-2.3,14.6-5.8,21.4
		c-8,15.4-20.9,23.8-38,26.1c-17,2.1-34.1,2.9-51.1,3.3c-22.8,0.6-45.8,0.4-68.6-0.4c-8.8-0.4-17.7-0.4-26.5-0.6
		c-10.5-0.2-20.9-0.6-31.4-1c-0.8,0-1.8,0-1.8-1c0-0.4,0.4-1,0.8-1.6c2.1-2.3,4.7-4.1,7.4-5.8c3.9-2.3,7.8-4.5,11.9-6.6
		c9-4.5,17.5-10.1,25.5-16.2c5.5-4.3,11.3-8.2,16.8-12.5c3.7-2.7,8-4.1,12.5-4.7c5.3-0.8,10.7-1.2,16-1.2
		c19.1-0.4,38.4,0.2,57.5,0.4c6.8,0,13.6,0,20.3,0c1.2,0,2.5,0,3.7-0.2c2.3-0.2,2.7-0.6,2.7-3.1c0-1.6,0-3.3,0-4.9
		c-0.2-152.4-0.2-304.8-0.4-456.9c0-10.9,0-21.8,0-32.7c0-1.8,0-3.7,0-5.5c-0.2-3.1-0.4-3.3-3.7-3.5c-1,0-2.1,0-3.1,0
		c-44.8-0.2-89.3-0.2-134.1-0.4c-7.8,0-7.8-0.4-3.9,6.6c2.1,3.7,4.5,7.4,7,10.9c19.3,28.1,38.8,56.3,57.9,84.6
		c15.8,23.4,27.3,48.9,34.1,76.2c5.5,22,7.4,44.4,5.3,66.7c-3.3,36.8-15.8,70-39.2,99c-11.9,14.8-26.1,26.9-43.1,35.5
		c-13.1,6.8-27.1,10.7-42.1,10.5c-15.8-0.2-30.4-4.7-43.3-14c-9.4-6.8-17.5-15-24.6-24c-8.6-11.1-16-22.8-22.8-35.1
		c-11.9-21.8-21.8-44.4-30.6-67.4c-10.1-26.5-19.7-53.2-29.8-79.7c-9.4-25.1-19.1-49.9-30.8-73.9c-6.8-14-14-27.5-22.4-40.5
		c-6-9.4-12.7-18.3-20.7-26.1c-13.6-13.3-29.8-21.8-48.5-25.7c-9-1.8-18.3-2.7-27.5-2.9c-1.4,0-2.9,0-4.3-0.2
		c-1.8-0.2-2.5-1-1.6-2.9c1-2.3,2.1-4.5,3.3-6.6c2.3-3.7,4.5-7.4,7.2-10.9c10.5-13.6,19.3-28.1,27.9-42.9
		c37.8-64.1,70.4-130.6,96.9-200.2c5.8-15,10.9-30.2,15.4-45.6c1.6-5.3,3.5-10.5,6-15.6C586.1,150.2,586.9,148.1,588.8,146.5z"/>
	<path class="st1" d="M1058.2,717.2c3.7-0.4,7.2-1,10.7-1.2c16-1.6,32-3.3,47.9-4.7c14.8-1.4,29.6-2.9,44.4-4.3
		c0.8,0,1.6-0.2,2.5-0.2c2.3-0.2,2.5,0.2,3.1,2.1c0.8,3.7,1.6,7.2,2.5,10.9c2.9,11.7,6.6,23,11.9,33.7c14.8,30.4,39.4,48.5,72.3,55
		c13.6,2.7,27.3,3.5,41.3,2.9c12.9-0.4,25.9-2.1,38.4-5.5c19.1-5.3,35.1-15.2,47.2-30.8c8.2-10.5,12.9-22.4,13.6-35.7
		c0.8-19.3-6-35.1-22.2-46.2c-8.2-5.8-17.3-9.7-26.5-13.1c-13.6-4.9-27.5-8.6-41.5-12.3c-22.2-6-44.6-11.3-66.9-17.5
		c-22.4-6-44.6-13.6-65.5-23.4c-8-3.7-15.8-7.8-23.4-12.7c-27.3-17.7-47.4-41.3-59.6-71.5c-6.6-16.6-9.4-33.9-9.7-52
		c-0.4-32.4,9.7-61.6,28.5-87.7c12.7-17.5,29-30.8,47.9-41.1c18.5-10.1,38-16.6,58.5-20.7c29.2-5.8,58.7-7.2,88.5-5.3
		c15,0.8,30,2.5,44.8,5.3c19.1,3.7,37.6,9.2,54.8,18.3c41.9,21.6,68.8,55.2,81.1,100.6c3.5,12.7,4.9,25.9,6,39c0,0.8,0,1.6,0,2.5
		c0,1-0.6,1.4-1.4,1.6c-0.6,0.2-1.2,0.2-1.8,0.2c-3.7,0.2-7.4,0.4-11.1,0.6c-18.5,0.6-37,1.2-55.7,1.6c-11.5,0.4-23,0.8-34.5,1.2
		c-1.4,0-2.9,0.2-4.3,0c-2.1,0-2.5-0.4-2.9-2.5c-1-4.3-1.6-8.4-2.9-12.7c-1.6-6.6-3.9-12.9-6.8-19.1c-9.4-20.5-25.1-33.7-46.6-40
		c-8.2-2.3-16.4-3.9-24.8-4.5c-12.9-1-25.9-1-38.8,0.2c-9.4,1-18.7,2.7-27.7,5.5c-9.7,3.1-18.7,7.4-26.9,13.3
		c-8.2,6.2-14.2,13.8-16.4,23.8c-3.1,14.2-0.4,26.9,9.4,38c4.9,5.5,10.9,9.9,17.7,13.3c9.7,5.1,19.9,9,30.2,12.5
		c20.3,7,41.1,12.3,61.8,17.3c29.8,7.2,59.4,15,88.1,26.1c11.9,4.5,23.6,9.7,34.7,16c19.3,11.1,35.9,25.5,49.1,43.5
		c12.7,17.5,20.7,36.8,24.8,57.9c2.5,12.5,3.5,25.3,3.7,38c0.6,57.5-31.6,122.6-100,150.7c-17,7-34.7,11.7-52.8,15
		c-30.8,5.3-61.8,6.2-93,4.5c-26.3-1.4-52-5.8-76.8-14.4c-29.8-10.5-55.4-26.9-76.2-50.9c-15.8-18.3-27.1-39.2-35.1-61.8
		c-6-17-10.1-34.7-12.5-52.8c-0.2-2.1-0.6-4.1-0.8-6.2C1058,718.2,1058,718,1058.2,717.2z"/>
	<path class="st1" d="M2158.8,505.7c-16,0.6-32,1-48.3,1.6c-1.6,0-3.3,0-4.9,0c-1.2,0-1.8-0.6-2.3-1.6c-0.8-3.5-1.4-6.8-2.3-10.3
		c-2.3-9.2-5.3-18.1-9.9-26.5c-8.6-16.2-21.4-27.5-38.6-33.7c-11.5-4.1-23.4-6.4-35.7-7c-12.9-0.8-25.9-0.6-38.8,1
		c-12.3,1.6-24.2,4.7-35.5,9.9c-5.5,2.7-10.9,5.8-15.8,9.7c-20.1,15.4-21.2,44.6-4.9,61.8c5.5,5.8,11.9,10.1,18.9,13.8
		c10.1,5.1,20.7,9,31.4,12.5c20.9,7,42.3,12.1,63.7,17.3c29.2,7,58.1,15,86.3,26.1c13.6,5.3,26.9,11.5,39.2,19.5
		c23.2,15,41.3,34.5,53.6,59.1c6.6,13.1,10.7,27.1,13.1,41.7c2.3,12.5,2.9,25.3,2.7,38.2c-0.2,16.6-2.9,32.9-8.4,48.5
		c-16.4,47.2-47.9,80.5-94.3,99.2c-18.7,7.6-38,12.1-57.7,15.2c-28.1,4.1-56.3,4.7-84.4,3.3c-25.7-1.2-50.7-5.3-75.2-13.8
		c-53-17.9-89.5-53.2-110.5-104.9c-7.2-18.1-12.1-36.8-15-55.9c-0.6-3.5-1-7-1.4-10.5c-0.2-2.1,0.2-2.5,2.3-2.7
		c7.4-0.8,14.8-1.6,22.2-2.3c15.4-1.6,30.8-3.1,46.2-4.5c11.5-1,23-2.3,34.5-3.3c2.7-0.2,2.9,0,3.5,2.3c1,4.5,2.1,9.2,3.3,13.8
		c2.9,11.3,6.8,22,11.9,32.2c14,27.3,35.9,44.4,65.5,52c11.7,2.9,23.6,4.1,35.5,4.3c15.2,0.2,30.4-0.8,45.4-4.5
		c18.5-4.3,34.7-12.7,47.6-27.1c9-10.1,15.2-21.4,17.3-34.9c1.4-9,0.8-18.1-2.1-26.9c-3.1-9.4-8.8-17.3-16.6-23.2
		c-6.2-4.7-13.1-8.4-20.3-11.5c-11.9-5.1-24.4-8.8-37-12.1c-23.8-6.4-47.9-12.3-71.7-18.7c-24.4-6.4-48.7-14.2-71.7-24.6
		c-14.4-6.6-28.1-14-40.3-24c-25.1-20.9-42.9-46.4-50.7-78.4c-15.4-63.3,11.9-125.3,62-157.1c17.9-11.5,37.2-19.3,57.7-24.4
		c16.8-4.3,33.9-6.6,51.1-7.8c19.3-1.4,38.8-1,58.1,0.4c26.5,2.1,52.6,7,77.4,17.3c38,15.6,66.1,41.9,83.8,79.1
		c8.2,17,12.7,35.1,14.6,54c0.6,4.9,1.2,9.9,1,14.8c0,1.2-0.6,1.8-1.8,2.1c-3.3,0.2-6.6,0.4-9.9,0.6
		C2188.6,504.6,2173.6,505.1,2158.8,505.7L2158.8,505.7z"/>
	<path class="st1" d="M1707.2,620.5c0,88.9,0,177.8,0,266.8c0,9.2,1.2,8-7.8,8c-32,0-63.9,0-95.9,0c-0.8,0-1.6,0-2.5,0
		c-5.8,0-5.3-0.2-5.3-5.3c0-1,0-2.1,0-3.1c0-177.6,0-355.3,0-532.9c0-9.4-1.2-8.2,8-8.2c32.7,0,65.1,0,97.8,0c5.8,0,5.8-0.4,5.8,5.8
		c0,85.6,0,171.3,0,256.9C1707.2,612.3,1707.2,616.4,1707.2,620.5z"/>
	<path class="st0" d="M1226.2,975.8c6-5.3,11.7-8.8,18.9-8.6c7,0.2,12.7,2.7,16.4,8.6c2.1,0,2.7-1.4,3.7-2.5
		c6.2-5.5,13.1-7.4,21.2-5.8c7.6,1.6,12.7,7.2,13.8,14.8c0.2,2.3,0.4,4.5,0.4,6.8c0,11.5,0,23,0,34.5c0,1,0,2.1,0,3.1
		c0,1-0.6,2.1-1.8,2.1c-4.1,0-8.2,0-12.3,0c-1.2,0-1.6-1-1.8-2.1c0-1.4,0-2.9,0-4.3c0-9.4,0-18.9,0-28.3c0-2.7,0-5.3-0.4-8
		c-0.8-4.7-4.1-7.2-8.8-6.6c-4.5,0.4-7.6,2.9-9.4,7c-1.2,2.9-1.4,6-1.4,9c0,8.8,0,17.7,0,26.5c0,7.4,0.6,7-7,7c-2.3,0-4.5,0-6.8,0
		c-1.4,0-2.3-1-2.3-2.5c0-1.4,0-2.9,0-4.3c0-9.2,0-18.5,0-27.7c0-3.1-0.2-6.2-0.8-9.2c-0.8-4.1-3.3-6-7.4-6
		c-5.5-0.2-9.9,3.1-11.3,8.6c-0.8,3.3-1.2,6.4-1.2,9.9c0,8.4,0,16.8,0,25.3c0,1.4,0,2.9-0.2,4.3c0,0.8-0.8,1.4-1.6,1.4
		c-0.8,0-1.6,0.2-2.5,0.2c-3.7-0.2-7.4,0.6-10.9-0.6c-1.6-3.5-0.8-7.2-0.8-10.9c-0.2-14.2,0-28.3,0-42.5c0-1.6,0-3.3,0-4.9
		c0-0.8,0.6-1.6,1.4-1.6c3.9,0,7.8-0.2,11.7,0c0.8,0,1.4,0.8,1.4,1.6C1226,971.7,1226,973.1,1226.2,975.8z"/>
	<path class="st0" d="M1099.1,943.9c4.5,0,9.2,0.2,13.8,1.8c10.3,3.5,15.8,10.5,17.5,21.2c0.2,1.4-0.4,2.5-1.8,2.5
		c-3.1,0.2-6.2,0-9.2,0.6c-3.9,0.6-6-0.6-7.2-4.5c-1-3.5-3.9-5.8-7.4-6.8c-5.1-1.4-10.3-1-15.2,0.8c-0.6,0.2-1,0.6-1.6,0.8
		c-4.9,3.1-5.1,8.4-0.2,11.5c2.7,1.6,5.5,2.7,8.6,3.5c4.5,1.2,9.2,2.3,13.8,3.7c3.3,1,6.6,2.3,9.9,3.7c8.8,4.3,13.1,11.5,13.3,21.2
		c0.2,9.4-3.7,17.7-12.3,22c-13.6,7-27.9,7-41.7,0.2c-8.6-4.1-12.3-12.3-14-21.4c-0.2-1.8,0.4-2.7,2.3-2.9c3.9-0.4,7.8-0.8,11.7-1.2
		c1-0.2,2.1,0.2,2.5,1.4c0.6,1.6,1,3.1,1.6,4.7c2.5,5.5,6.8,8.8,12.7,9.4c2.9,0.2,5.8,0.2,8.6,0c4.1-0.4,7.4-2.3,9.9-5.8
		c3.1-4.7,1.8-9.9-3.1-12.5c-2.3-1-4.5-1.8-7-2.5c-4.5-1.2-9.2-2.5-13.8-3.7c-3.5-1-7-2.3-10.3-4.1c-8.2-4.7-12.7-11.7-12.3-21.2
		c0.6-9.4,6-16,14.6-19.5C1087.8,944.3,1093.4,943.9,1099.1,943.9z"/>
	<path class="st0" d="M1956.1,968.4c1.8,0,3.7,0,5.5,0c1.8,0,3.1,0.8,3.7,2.7c2.5,7.4,4.9,14.8,7.6,22.2c1.6,4.9,3.3,9.7,4.9,14.6
		c0.2,0.6,0.6,1,1.4,1c0.2,0,0.6-0.4,0.8-0.8c0.6-1.4,1-3.1,1.6-4.7c3.5-10.5,7-21.2,10.7-31.6c1-3.1,1.2-3.5,4.3-3.3
		c4.3,0.2,8.6-1,12.7,0.8c-0.4,3.9-2.3,7.4-3.5,11.1c-6.4,17.9-12.9,35.5-19.5,53.2c-1.2,3.5-2.9,6.8-4.5,10.1
		c-2.3,4.5-6,7.2-10.7,8.6c-5.3,1.6-10.5,1.8-15.8,0.6c-1.4-0.2-2.3-1-2.5-2.3c-0.4-2.7-0.6-5.3-0.8-8c-0.2-1.6,0.6-2.1,2.3-2.1
		c1.8,0,3.7,0.2,5.5,0c3.3,0,6-1.4,7.8-4.3c0.8-1.2,1.4-2.5,2.1-3.7c1.2-2.1,1-4.1,0.2-6.6c-3.3-8.4-6.6-16.8-9.7-25.3
		c-3.5-9.4-7.2-18.9-10.7-28.3c-0.2-0.8-0.6-1.4-0.8-2.3c-0.2-1,0.4-1.6,1.2-1.6C1951.6,968.4,1953.8,968.4,1956.1,968.4
		L1956.1,968.4z"/>
	<path class="st0" d="M1611.5,1023.4c-1.6,1-3.3,2.3-4.9,3.3c-6.6,3.9-13.3,4.9-20.7,2.9c-7.2-2.1-12.1-7.8-12.5-15
		c-0.6-8.4,2.9-14.6,10.5-17.7c3.5-1.4,7-2.3,10.7-3.1c4.5-1,9.2-2.1,13.8-3.3c2.3-0.6,2.7-1.4,2.5-3.5c-0.2-4.3-2.1-6.4-6.4-7
		c-2.1-0.4-4.1-0.4-6.2-0.2c-3.3,0.2-6.2,1.4-7.6,4.5c-1.2,2.7-2.9,2.9-5.5,2.3c-2.9-0.6-5.8-1-8.4-1.4c-1.6-0.2-1.8-1-1.2-2.7
		c2.7-7.8,8-12.7,16.2-14.2c6.8-1.2,13.6-1,20.3,0.2c2.7,0.4,5.1,1.4,7.4,2.9c3.3,2.1,5.3,4.9,6.4,8.8c0.6,2.9,0.8,5.8,0.8,8.6
		c0,7.4,0,14.8-0.2,22.2c0,5.3,0.2,10.7,2.3,15.8c0.8,2.1,0.2,2.9-2.3,2.9c-1.8,0-3.7,0-5.5,0
		C1614.4,1029.2,1614.4,1029.2,1611.5,1023.4z M1610.3,1000.6c-5.5,0.8-10.7,2.1-15.6,3.7c-3.9,1.2-5.5,3.7-5.3,7.4
		c0.2,3.3,2.5,6,5.8,7.2c6,1.8,13.8-2.3,15.2-8.2C1610.9,1007.4,1610.9,1004.1,1610.3,1000.6z"/>
	<path class="st0" d="M1145.3,984.6c0.8-6.8,4.5-11.9,10.3-14.6c2.3-1,4.5-1.8,7-2.3c6.2-1,12.3-0.8,18.5,0.2c2.1,0.4,4.1,1,6,1.8
		c5.3,2.3,8.6,6.4,9.2,12.1c0.2,2.7,0.4,5.3,0.4,8c0,6.8,0,13.6-0.2,20.3c0,5.5,0.4,11.1,2.5,16.4c0.8,2.1,0.2,2.5-1.8,2.7
		c-1.8,0-3.7,0-5.5,0c-2.3,0-4.7,0.2-6.8-0.4c-1.8-0.6-1.6-3.5-2.7-5.1c-2.3,0.4-3.3,2.1-4.9,2.9c-6.8,4.1-13.8,5.3-21.4,3.1
		c-7.2-2.1-12.1-8-12.5-15.2c-0.6-8.4,3.1-14.6,10.7-17.7c3.5-1.4,7-2.3,10.7-3.1c4.5-0.8,8.8-1.8,13.1-3.1c2.7-0.6,3.3-1.8,2.9-4.5
		c-0.4-3.7-2.1-5.5-5.8-6.2c-1.4-0.2-2.9-0.4-4.3-0.4c-4.3,0-8.2,0.8-10.3,5.3c-0.8,1.8-2.1,2.3-4.1,1.8
		C1152.5,985.8,1149,985.2,1145.3,984.6z M1180.2,1000.4c-5.1,1.2-9.7,2.3-14.2,3.3c-1.2,0.2-2.3,0.8-3.5,1.4
		c-3.5,2.1-4.5,6.2-2.5,9.7c1,1.6,2.3,2.9,4.1,3.7c5.3,2.7,15.4-1.6,16.2-8.6C1180.6,1007,1180.8,1004.1,1180.2,1000.4z"/>
	<path class="st0" d="M1800.8,976c2.3-1.8,3.7-3.1,5.1-4.1c7.4-5.3,15.6-6.2,24-2.9c6.2,2.3,9.4,7,10.5,13.3
		c0.4,2.9,0.6,5.8,0.6,8.6c0,11.1,0,22.2,0,33.3c0,0.8,0,1.6,0,2.5c0,1.4-0.8,2.3-2.3,2.5c-0.2,0-0.4,0-0.6,0
		c-15.8-0.4-12.9,2.9-13.1-12.5c-0.2-7.8,0-15.6-0.2-23.4c0-1.6,0-3.3-0.4-4.9c-0.8-6.2-4.9-9.4-11.1-8.6c-6,0.6-10.3,4.5-11.1,10.7
		c-0.4,3.5-0.6,7-0.6,10.5c0,7.4,0,14.8,0,22.2c0,1.2,0,2.5,0,3.7c0,1.4-0.8,2.3-2.3,2.5c-0.2,0-0.4,0-0.6,0
		c-15.8-0.4-13.1,3.1-13.1-12.5c-0.2-13.8,0-27.5,0-41.3c0-1.6,0-3.3,0.2-4.9c0-1.2,0.8-1.8,2.1-1.8c3.5,0,7,0,10.5,0
		c1.4,0,2.3,0.8,2.5,2.3C1800.4,972.1,1800.6,973.5,1800.8,976z"/>
	<path class="st0" d="M1710.5,999.4c0-3.3,0-6.2,0.8-9.2c4.7-17.7,18.9-23.8,32.9-22.8c7,0.4,13.1,2.7,18.5,7.4
		c7.6,6.8,10.7,15.4,10.3,25.3c-0.2,7.4-2.5,14.2-7.2,19.9c-8.6,10.3-22.4,13.1-34.9,9c-12.3-4.1-19.3-12.9-20.3-25.9
		C1710.5,1001.8,1710.5,1000.6,1710.5,999.4z M1756.5,999c0.2-3.3-0.2-6.6-1.4-9.7c-2.3-5.5-6.4-8.8-12.5-9.2
		c-5.8-0.4-11.3,3.1-13.6,8.6c-2.7,6.6-2.7,13.3,0,19.7c2.5,5.5,6.8,8.6,12.9,8.6c6.4,0,10.5-3.3,12.9-8.6
		C1756.1,1005.7,1756.5,1002.5,1756.5,999z"/>
	<path class="st0" d="M2175.4,1012.9c-1.8,6-5.3,10.5-10.5,13.8c-2.9,1.8-6,2.7-9.2,3.3c-6,1.2-11.9,0.6-17.7-1.2
		c-6.8-2.3-11.9-6.6-14.8-13.1c-4.7-10.9-4.7-22-0.2-32.9c3.9-9.2,13.3-16.6,26.9-15.6c2.5,0.2,4.9,0.6,7.2,1.2
		c7.2,2.3,12.5,6.8,15.8,13.8c2.7,6,3.7,12.1,3.5,18.7c0,2.1-0.6,2.5-2.7,2.7c-1.4,0-2.9,0-4.3,0c-8.8,0-17.7,0-26.5,0
		c-1.6,0-3.3,0-4.9,0.2c-0.8,0-1.4,0.8-1.4,1.6c-0.2,5.8,3.7,11.1,9,12.7c5.5,1.6,9.7,0,12.9-5.3c1.6-2.7,1.6-2.7,4.3-2.1
		c3.5,0.6,7,1.2,10.3,1.8C2173.8,1012.3,2174.4,1012.5,2175.4,1012.9z M2137.2,992.8c1,0.8,2.1,0.8,3.1,0.8c5.5,0,11.1,0,16.6,0
		c3.3,0,4.3-0.2,3.3-4.5c-0.4-1.2-0.6-2.5-1.2-3.5c-3.3-6.8-12.1-8.6-17.7-3.7C2137.8,985,2136.4,988.7,2137.2,992.8z"/>
	<path class="st0" d="M1913.8,1030.6c-5.8,0-10.7-0.6-15.2-2.5c-6.4-2.5-11.1-7-13.6-13.6c-0.6-1.6,0-2.7,1.8-3.1
		c3.1-0.6,6.2-0.8,9-1.4c2.7-0.4,4.5-0.4,5.8,2.9c1.4,3.7,4.7,5.3,8.8,5.8c2.7,0.2,5.3,0.2,8-0.2c1.6-0.2,3.1-1,4.5-2.1
		c2.3-1.8,2.7-6.8-1.2-8c-1.4-0.4-2.7-0.8-4.1-1.2c-4.5-1.2-9.2-2.3-13.8-3.5c-2.5-0.8-5.1-1.6-7.6-2.7c-6-2.7-9.4-7.2-9.9-13.8
		c-0.4-6.8,2.3-11.9,7.8-15.8c2.7-1.8,5.5-2.9,8.6-3.5c6.6-1.2,13.1-1.2,19.7,0.2c7.4,1.4,12.7,5.5,15.6,12.5c0.6,1.6,0,2.7-1.6,3.1
		c-2.3,0.4-4.5,0.6-6.6,1.2c-3.5,1-6.4,1-8-2.9c-0.6-1.2-2.1-2.1-3.5-2.5c-4.7-1.4-9.2-1.4-14,0.4c-0.8,0.2-1.4,0.8-1.8,1.4
		c-1.2,1.2-1,3.3,0,4.5c1,1,2.5,1.6,3.7,2.1c4.1,1.2,8.4,2.3,12.5,3.3c4.3,1,8.8,2.3,12.9,4.3c9.9,4.9,12.7,16.6,6,25.5
		c-3.3,4.5-7.8,7.2-13.3,8.4C1920.4,1030.2,1916.9,1030.8,1913.8,1030.6z"/>
	<path class="st0" d="M2014.4,1012.1c5.5-0.8,10.5-1.6,14.8-2.3c2.1,0.8,2.3,2.5,2.9,3.7c1,1.8,2.5,3.3,4.5,4.1
		c4.9,2.1,10.1,1.8,15-0.2c1.2-0.4,2.1-1.2,2.7-2.5c1.2-2.5,0.6-5.1-1.8-6.4c-1.4-0.6-3.1-1-4.7-1.4c-4.9-1.2-10.1-2.5-15-3.9
		c-2.1-0.6-3.9-1.2-5.8-2.1c-6.4-2.9-10.3-7.6-10.5-14.6c-0.2-7.4,3.3-12.5,9.4-16c2.3-1.2,4.9-2.1,7.6-2.5c6.2-1,12.3-1,18.5,0.2
		c8,1.4,13.6,5.8,16.4,13.3c0.4,1.2,0,2.1-1.2,2.3c-3.7,0.6-7.2,1.2-10.9,2.1c-1.4,0.2-2.5-0.2-3.1-1.4c-2.3-4.1-6-5.5-10.3-5.3
		c-2.5,0-4.9-0.2-7.4,0.6c-2.7,0.8-3.9,2.3-3.9,4.1c0,2.3,1.6,3.3,3.5,3.9c2.7,0.8,5.5,1.6,8.2,2.5c3.7,1,7.6,1.8,11.3,2.9
		c2.3,0.6,4.7,1.6,7,2.7c11.5,4.9,11.3,17.5,6.6,24.4c-3.3,4.9-7.8,7.8-13.3,9.2c-7.8,2.1-15.6,2.1-23.2-0.2
		C2023.5,1026.7,2017.5,1021.6,2014.4,1012.1z"/>
	<path class="st0" d="M1658.3,947.6c1.4,1.8,0.8,3.5,1,5.1c0.2,4.3,0,8.6,0.2,12.9c0,1.8,0.8,2.5,2.7,2.7c0.2,0,0.4,0,0.6,0
		c2.3,0.2,4.9-0.8,6.6,0.6c2.1,2.1,0.6,5.1,0.8,7.6c0,0.8,0,1.6,0,2.5c-0.2,1-0.6,1.8-1.8,2.1c-0.8,0-1.6,0-2.5,0
		c-7,0-6.4-0.2-6.6,7c0,7.2,0,14.4,0,21.6c0.2,7.4,1,8,8.6,6.8c1.6-0.2,2.3,0.2,2.7,1.8c0.2,0.6,0.2,1.2,0.2,1.8
		c1.2,8.6,0.2,9.7-8.6,10.5c-3.7,0.4-7.4,0-10.9-1.2c-3.9-1.4-6.6-4.3-7.2-8.6c-0.6-3.7-0.8-7.4-1-11.1c-0.2-7.6,0-15.2,0-22.8
		c0-1.2,0-2.5-0.2-3.7c0-1.2-0.8-1.8-2.1-1.8c-0.4,0-0.8,0-1.2,0c-3.3,0-4.1,0.2-3.9-4.3c0-1.8,0-3.7,0-5.5c0-2.3,0.4-2.7,3.1-2.9
		c0.8,0,1.6,0,2.5-0.2c1.2-0.2,1.8-1,1.8-2.1c0-2.5,0-4.9,0-7.4c0-1.2,0.4-2.5,1.6-3.1C1649.1,953,1653.6,949.9,1658.3,947.6z"/>
	<path class="st0" d="M2102.3,947.8c0,4.9,0,9.7,0,14.4c0,1.4,0,2.9,0.2,4.3c0,0.8,0.6,1.4,1.6,1.4c2.3,0.2,4.5,0.2,6.8,0.2
		c1.4,0,2.3,0.6,2.5,2.3c0,1,0,2.1,0,3.1c0,8.2,0.8,7.6-7,7.6c-0.6,0-1.2,0-1.8,0c-1.2,0-1.8,0.6-2.1,1.8c0,1-0.2,2.1-0.2,3.1
		c0,7.6,0,15.2,0,22.8c0,1.2,0,2.5,0.2,3.7c0.4,3.3,2.1,4.5,5.3,4.5c1.6,0,3.7-2.1,5.1-0.2c1.2,1.4,0.6,3.5,0.8,5.3
		c0.6,6.4,0.6,6.4-5.3,7.6c-4.1,0.8-8.2,1-12.1-0.2c-5.8-1.4-8.8-5.1-9.4-10.9c-0.4-2.5-0.4-4.9-0.4-7.4c0-8,0-16,0-24
		c0-1.4,0-2.9,0-4.3c0-1.2-0.8-1.8-1.8-2.1c-1.6-0.2-3.5,0.6-4.7-0.8c-1.2-1.4-0.6-3.5-0.6-5.3c0-0.8,0-1.6,0-2.5
		c0-3.1-0.2-4.3,4.1-4.5c3.1,0,3.1-0.4,3.5-3.7c0.2-2.9-1-6.2,0.8-8.4c1.6-1.8,4.5-2.9,6.8-4.3c2.1-1.2,4.3-2.5,6.4-3.7
		C2100.7,948,2101.1,948,2102.3,947.8z"/>
	<path class="st0" d="M1365.7,986.8c0,11.7,0,23.4,0,35.1c0,1.6,0,3.3,0,4.9c0,1.2-0.6,2.1-1.8,2.1c-4.3,0-8.6,0-12.9,0
		c-1.2,0-1.8-0.6-2.1-1.8c0-1.2,0-2.5,0-3.7c0-24,0-48.3,0-72.3c0-1.2,0-2.5,0-3.7c0-1.2,0.8-2.1,1.8-2.1c4.3,0,8.6,0,12.9,0
		c1.2,0,1.8,0.6,2.1,1.8c0,1.6,0,3.3,0,4.9C1365.7,963.8,1365.7,975.3,1365.7,986.8z"/>
	<path class="st0" d="M1396.7,974.5c1.8-0.4,2.5-2.1,3.5-3.3c5.1-5.5,13.1-4.7,18.9-1.8c0.8,0.4,1.2,1.2,0.8,2.1
		c-1.2,3.7-2.5,7.4-3.9,11.1c-0.2,0.8-1,1-2.1,0.6c-1.2-0.6-2.7-1.2-4.1-1.4c-4.1-0.8-7.8,0.8-9.9,4.5c-1.6,2.9-2.3,6.2-2.3,9.4
		c-0.2,8.6-0.4,17.3-0.4,25.9c0,8.2,0.4,7.4-7.2,7.4c-2.1,0-4.1,0-6.2,0c-2.3,0-2.7-0.6-2.9-3.1c0-1.4,0-2.9,0-4.3
		c0-15.2,0-30.4,0-45.6c0-1.2,0-2.5,0-3.7c0.2-3.9,0.2-3.9,4.3-4.1c1.4,0,2.9,0,4.3,0c5.8,0,5.8,0,6.8,5.8
		C1396.5,974.1,1396.7,974.3,1396.7,974.5z"/>
	<path class="st0" d="M1461.4,983.2c-2.1,0.2-3.5-0.8-4.9-1.2c-5.1-1.2-9,0.6-11.1,5.3c-1,2.5-1.6,5.1-1.8,7.8
		c-0.2,5.5-0.4,11.1-0.6,16.6c-0.2,4.7,0,9.4,0,14.2c0,2.9-0.4,3.3-3.1,3.3c-3.3,0-6.6,0-9.9,0c-2.7,0-3.1-0.4-3.1-3.5
		c0-1,0-2.1,0-3.1c0-15.8,0-31.6,0-47.4c0-1.2,0-2.5,0-3.7c0.2-2.5,0.6-3.1,2.9-3.1c3.1,0,6.2,0,9.2,0c2.3,0,2.5,0.4,2.9,3.1
		c0.2,0.8,0,1.6,0.2,2.5c0.2,0.6,0.8,0.8,1.4,0.4c0.6-0.6,1-1.2,1.6-1.8c4.9-6.4,12.9-6.4,19.5-3.1c1,0.6,1.4,1.4,1,2.7
		C1464,975.8,1462.6,979.7,1461.4,983.2z"/>
	<path class="st0" d="M1697.5,998.8c0,8.2,0,16.4,0,24.6c0,1.2,0,2.5-0.2,3.7c0,1.2-0.8,2.1-1.8,2.1c-3.9,0-7.8,0-11.7,0
		c-1.4,0-2.3-0.8-2.5-2.3c0-1,0-2.1,0-3.1c0-16.6,0-33.3,0-49.9c0-5.3,0-5.5,5.5-5.5c3.5,0,7-1,10.3,0.8c1,3.3,0.4,6.6,0.4,9.7
		C1697.5,985.6,1697.5,992.2,1697.5,998.8z"/>
	<path class="st0" d="M1473.1,997.9c0-8.6,0-17.3,0-25.9c0-3.5,0.2-3.7,3.9-3.7c3.3,0,6.6,0,9.9,0c1.4,0,2.3,0.8,2.3,2.5
		c0,1,0,2.1,0,3.1c0,16.6,0,33.3,0,49.9c0,1,0,2.1,0,3.1c0,1.4-1,2.1-2.5,2.3c-0.6,0-1.2,0-1.8,0c-3.7-0.2-7.4,0.6-10.9-0.6
		c-1.6-3.5-0.6-7.2-0.8-10.9C1472.9,1011.1,1473.1,1004.5,1473.1,997.9z"/>
	<path class="st0" d="M1689.3,960.2c-8.8,0-8,1-8-7.6c0-1.2,0-2.5,0-3.7c0.2-3.1,0.4-3.3,3.7-3.5c1,0,2.1,0,3.1,0
		c11.1,0.2,9.2-1.8,9.4,9.9c0,1,0,2.1-0.2,3.1c0,1.2-0.8,1.8-2.1,1.8C1693.4,960.4,1691.4,960.2,1689.3,960.2z"/>
	<path class="st0" d="M1480.9,960.2c-2.1,0-4.1,0-6.2,0c-1,0-1.4-0.6-1.6-1.6c0-0.2-0.2-0.4,0-0.6c0.2-4.1-0.8-8.2,0.8-12.1
		c4.5-0.8,9-0.4,13.6-0.2c0.8,0,1.4,0.6,1.6,1.6c0,1.6,0.2,3.3,0.2,4.9C1489.1,961.4,1490.3,960.2,1480.9,960.2z"/>
</g>
</svg>
