<?xml version="1.0" encoding="utf-8"?>
<!-- Generator: Adobe Illustrator 25.0.0, SVG Export Plug-In . SVG Version: 6.00 Build 0)  -->
<svg version="1.1" id="Слой_1" xmlns="http://www.w3.org/2000/svg" xmlns:xlink="http://www.w3.org/1999/xlink" x="0px" y="0px"
	 viewBox="0 0 2500 1200" style="enable-background:new 0 0 2500 1200;" xml:space="preserve">
<style type="text/css">
	.st0{fill:#244182;}
	.st1{fill:#02A0E2;}
</style>
<g>
	<path class="st0" d="M2366.2,699c-0.9-0.2-1.3,0.4-2,1.1c-39.3,32.2-83.8,53.4-133.1,64.3c-29.3,6.5-58.7,8.5-88.4,6
		c-23.5-1.8-46.5-6.3-68.8-14.5c-37.5-14.3-65.7-39.1-85.3-73.9c-10.5-18.5-17.9-38.2-23.9-58.5c-3.6-12.3-6.9-24.6-8.9-37.1
		c-1.3-8.7-2.2-17.4-2.7-26.1c-1.1-18.1-1.1-36.2,0.4-54.3c1.3-16.1,3.8-31.9,7.6-47.8c6.3-25.7,16.1-50,30.4-72.4
		c14.7-23,34.4-41.1,57.8-55.2c24.3-14.7,50.5-24.3,78.4-29.7c18.5-3.6,37.1-5.4,55.8-4.7c39.8,1.3,76.6,12.1,109.7,34.2
		c23.5,15.6,42,36,54.5,61.4c4.9,9.8,8.5,20.1,11.2,30.8c0.2,1.3,0.4,2.7,0.7,4c0.2,1.1-0.2,1.8-1.6,2.2c-1.1,0.2-2.2,0.7-3.6,0.9
		c-35.7,7.1-71.5,14.3-107.2,21.2c-0.9,0.2-2,0.2-2.9,0.4c-1.6,0.4-2.7-0.2-3.4-1.8c-1.1-2.5-2-4.7-3.1-7.1
		c-0.9-1.8-1.8-3.6-2.7-5.4c-11.4-22.3-30.2-34.6-54.5-38.2c-14.7-2.2-29,0.7-42.4,7.4c-27.7,13.8-46,35.7-54.3,65.7
		c-7.6,28.4-10.3,57.2-8.5,86.4c1.3,20.5,5.6,40.6,14.1,59.4c5.1,11.4,11.8,21.7,20.8,30.4c13,12.7,28.6,19.9,46.7,21.9
		c17.6,2,34.6-1.1,51.1-6.5c15.4-4.9,29.9-11.8,44-19.9c2.2-1.3,3.4-2.9,3.4-5.6c-0.2-11.8,0-23.5,0-35.3c0-0.9,0-1.6-0.2-2.5
		c-0.2-0.9-0.7-1.6-1.6-1.6c-1.8-0.2-3.6-0.2-5.4-0.2c-23,0-45.8,0.2-68.8,0.2c-1.3,0-2.7,0-4.2,0c-3.1,0-3.4-0.2-3.4-3.6
		c0-5.8,0-11.6,0-17.4c0-22.3,0.2-44.7,0.2-67c0-1.6,0-3.1,0-4.7c0-1.1,0.7-1.8,1.8-2c1.6,0,3.1,0,4.7,0
		c60.1-0.2,120.4-0.4,180.5-0.7c2,0,4-0.2,6-0.2C2366.2,569,2366.2,634,2366.2,699z"/>
	<path class="st1" d="M856.1,950c-0.7-2.2-2.7-3.4-4.2-4.9C801,894.8,750.3,844.6,699.4,794.3c-1.6-1.6-3.6-3.1-4.9-5.6
		c53.4-55.4,106.8-110.8,160.1-165.9c0.4-0.4,1.1-0.9,1.8-1.3c2,0.9,3.1,2.7,4.5,4c46.7,47.6,93.1,94.9,139.6,142.5
		c6,6,12.1,12.3,17.9,18.3c1.8,1.8,1.8,2.2,0.2,4c-1.1,1.1-2.2,2.2-3.4,3.4c-49.8,49.4-99.6,98.7-149.4,147.9
		c-2.9,2.9-5.6,5.6-8.5,8.5C856.8,950,856.6,950,856.1,950z"/>
	<path class="st0" d="M491.4,950c-0.7-2.2-2.7-3.4-4.2-4.9c-50.9-50.3-101.6-100.5-152.5-150.8c-1.8-1.6-3.4-3.4-4.7-4.9
		c0.2-1.6,1.1-2.2,1.8-2.9c53.2-54.7,106.3-109.2,159-163.5c0.9-0.2,1.1-0.2,1.3-0.2s0.4,0.2,0.4,0.2
		c53.4,54.5,107,108.8,160.4,163.3c0.7,0.7,1.3,1.6,2,2.5c-1.1,2.2-3.1,3.6-4.7,5.4c-30.6,30.2-61.2,60.5-91.8,90.7
		c-20.8,20.3-41.3,40.9-62.1,61.2c-1.3,1.3-2.5,2.7-3.8,3.8C492.3,950,491.9,950,491.4,950z"/>
	<path class="st1" d="M1854.5,950c-0.9-1.6-2.5-1.1-3.8-1.3c-13.6-3.4-24.3-10.5-31.3-23c-2.5-4.5-4-9.2-5.1-14.1
		c-2.7-12.7-2.5-25.5,1.8-37.7c6-17.9,18.8-28.1,37.1-31.5c11.2-2,22.6-1.8,33.9,0c15.9,2.5,25.7,11.8,30.4,26.8c0,0.4,0,0.7,0,1.3
		c-2.7,1.6-5.6,1.6-8.5,2c-6.5,1.1-13,2.2-19.4,3.6c-1.6,0.2-2.7,0.2-3.4-1.3c-3.8-9.4-14.5-12.5-24.3-9.6
		c-7.1,2.2-12.1,6.9-14.3,14.1c-2.2,6.9-2.7,14.1-2.2,21.2c0.2,2.2,0.4,4.5,0.9,6.5c2.7,15.9,14.3,21.2,26.4,20.1
		c5.6-0.4,10.7-2.5,15.6-5.4c2-1.1,2.7-2.7,2.7-4.9c-0.2-6.9,0.7-6.7-6.3-6.7c-4.5,0-8.7,0-13.2,0c-1.3,0-2.2-0.9-2.2-2.2
		c0-5.8,0-11.6,0-17.4c0-1.3,0.9-2.2,2.2-2.2c0.9,0,2,0,2.9,0c13.4,0,26.8,0,40,0c0.9,0,1.6,0,2.5,0c2,0.2,2.5,0.7,2.7,2.5
		c0,0.9,0,1.6,0,2.5c0,12.1-0.2,23.9,0,36c0,3.4-1.1,5.1-3.8,6.7c-8.7,5.4-17.4,10.5-27.7,12.5c-3.8,0.7-7.4,1.1-11.2,1.8
		C1869.7,950,1862.1,950,1854.5,950z"/>
	<path class="st1" d="M1297.2,950c0-0.7-0.4-1.1-1.1-1.1c-1.8-0.4-3.6-0.7-5.1-1.1c-12.7-3.4-21-11.6-25.5-23.7
		c-2.5-6.7-3.6-13.8-3.6-21.2c0-17.9,0-36,0-53.8c0-1.3,0-2.7,0.2-4.2c0-1.1,0.9-1.8,2-2c0.4,0,0.9,0,1.1,0c8.7,0,17.4,0,26.4,0
		c2.7,0,3.1,0.4,3.1,3.4c0,4.2,0,8.3,0,12.5c0,15,0,29.9,0,44.9c0,1.8,0,3.6,0,5.4c0.4,12.3,10.5,18.1,20.8,16.5
		c8.7-1.3,13-5.6,14.5-14.3c0.4-2.2,0.4-4.7,0.4-7.1c0-17.9,0-36,0-53.8c0-1.6,0-3.1,0-4.7c0-2.2,0.7-2.7,2.9-2.7
		c8.7,0,17.4,0,26.4,0c2.7,0,3.1,0.4,3.1,3.1c0,8.5,0,17.2,0,25.7c0,11.2,0,22.3,0,33.5c0,4.9-0.9,9.8-2,14.7
		c-1.8,7.4-5.6,13.6-10.9,18.8c-4.5,4.2-9.4,7.4-15.2,8.9c-1.8,0.4-4,0-5.1,2.2C1318.7,950,1308,950,1297.2,950z"/>
	<path class="st1" d="M1666.6,950c-0.7-0.9-1.6-0.9-2.7-1.1c-3.6-0.7-6.9-1.8-10.3-3.4c-18.8-8.9-22.3-32.8-6.3-47.1
		c2.5-2.2,5.4-4,8.5-5.6c1.1-0.7,2.5-1.1,3.8-1.8c2.7-1.3,2.7-1.6,1.3-4c-1.1-1.8-2.5-3.6-3.6-5.6c-3.1-4.9-4.5-10.1-4.2-15.9
		c0.4-9.6,5.1-16.5,13.6-20.8c4.2-2,8.7-2.9,13.2-3.4c6.9-0.7,13.8-0.7,20.8,0.9c6,1.3,11.4,3.6,15.4,8.5c5.8,6.9,6.9,16.5,2.5,24.6
		c-2.2,4-5.4,7.4-9.2,10.1c-2.9,2-5.8,4.2-8.7,6.3c2.2,4,8,9.4,14.7,13.8c1.6-0.4,1.8-2,2.2-3.1c0.4-1.1,0.9-2.2,1.3-3.4
		c0.4-1.3,1.3-2,2.7-1.8c6.3,1.6,12.3,2.9,18.5,4.5c1.6,0.4,1.8,1.1,1.3,2.7c-1.1,4-2.7,7.8-4.5,11.6c-0.4,1.1-1.1,2.2-1.6,3.1
		c-0.7,1.3-0.4,2.2,0.7,3.1c3.4,2.5,6.9,4.7,10.3,7.1c0.9,0.7,2,1.3,2.9,1.8c0.4,1.8-0.7,2.5-1.3,3.4c-3.4,4-6.7,7.8-10.1,11.8
		c-0.9,1.1-2.2,1.8-2.2,3.4c-0.9,0-1.6,0-2.5,0c-4-3.4-8.5-5.6-12.7-8.5c-1.8-1.3-3.6-1.3-5.4,0c-6.3,3.8-13.2,6.3-20.5,7.4
		c-0.9,0.2-1.6,0.2-1.8,1.1C1684.3,950,1675.6,950,1666.6,950z M1699.9,925c-1.3-0.9-2.2-1.1-2.7-1.8c-5.8-5.1-11.6-10.3-17.4-15.6
		c-0.7-0.7-1.3-1.3-2.2-2c-1.6-1.3-2-1.3-3.6,0c-1.8,1.6-3.6,3.1-5.1,4.9c-1.8,1.8-2.5,4-2.5,6.5c-0.2,6.7,4.7,12.5,11.6,13.8
		C1685.6,932.1,1692.6,929.9,1699.9,925z M1678.7,864.9c0,0.9,0,1.3,0.2,1.6c1.3,4.5,4,8,7.4,11.2c4.5-0.4,6.7-3.8,9.4-6.7
		c1.1-1.1,1.8-2.7,2.2-4c0.9-2.5,0.4-4.7-1.1-6.7c-4.2-5.4-14.1-4.5-17.2,1.6C1679.2,863.1,1678.9,864.2,1678.7,864.9z"/>
	<path class="st1" d="M2192.8,950c0-0.4,0-0.9-0.2-0.9c-1.8-0.4-3.4-1.1-5.1-1.6c-10.7-2.9-18.1-9.8-22.3-19.9
		c-0.7-1.6-1.3-2.9-1.6-4.5c-2.7-11.4-3.1-9.6,7.1-10.3c4.9-0.2,9.8-0.7,15-0.9c1.3,0,2.7-0.2,4.2-0.2c2.5,0,2.7,0,3.4,2.5
		c0.2,0.7,0.4,1.6,0.7,2.2c2.9,9.4,10.5,14.1,20.1,12.7c2.9-0.4,5.8-1.1,8-3.4c4.5-4.2,4.5-10.1,0-14.1c-1.8-1.8-4-2.7-6.3-3.6
		c-4.2-1.3-8.5-2.5-12.7-3.6c-6-1.6-11.8-3.4-17.6-5.8c-3.6-1.6-7.1-3.6-10.3-6c-13-10.7-11.8-29.9-1.8-40
		c5.8-5.8,12.7-8.9,20.5-10.3c10.3-1.8,20.5-2,30.8-0.2c1.6,0.2,3.1,0.7,4.7,1.1c14.1,3.6,21.2,13.2,23.7,27c0.2,1.1-0.2,2-1.3,2.2
		c-1.6,0.2-3.1,0.4-4.7,0.7c-6.9,0.4-13.8,0.9-20.8,1.3c-0.9,0-2,0-2.9-0.2c-0.4-1.6-0.9-2.7-1.3-4c-2-5.6-6-8.7-12.1-9.2
		c-2.5-0.2-4.7,0-7.1,0.2c-1.8,0.2-3.4,1.1-4.7,2.5c-3.1,3.4-2.5,8.5,1.6,10.5c2.5,1.1,5.1,1.8,8,2.5c5.1,1.3,10.5,2.5,15.6,4
		c6.3,1.8,12.5,3.8,18.3,7.1c4.2,2.5,7.8,5.4,10.5,9.4c5.4,8.3,6,17.2,3.4,26.4c-2.9,10.5-9.8,17.4-19.7,21.9
		c-3.4,1.6-6.7,2.5-10.3,3.1c-0.9,0.2-2,0.2-2.7,1.1C2212.7,950,2202.7,950,2192.8,950z"/>
	<path class="st1" d="M2299.2,950c0-0.7-0.2-1.1-0.9-1.3c-2-0.4-3.8-0.9-5.8-1.6c-10.7-3.1-17.9-10.3-21.9-20.3
		c-1.3-3.4-2.5-6.7-2.7-10.3c-0.2-2.2,0.2-3.1,2.5-3.1c8.5-0.4,17.2-0.9,25.7-1.3c2,0,2.5,0.2,2.9,2.2c0.2,0.7,0.2,1.1,0.4,1.8
		c2.7,9.8,10.7,15,20.8,13.2c2.7-0.4,5.4-1.1,7.6-3.1c4.5-4,4.7-9.8,0.4-14.1c-1.8-1.8-3.8-2.9-6.3-3.6c-4.2-1.3-8.5-2.5-12.7-3.6
		c-5.1-1.3-10.3-2.9-15.4-4.7c-4-1.6-8-3.6-11.6-6.3c-14.1-10.5-13-29.7-4-39.8c5.8-6.3,13-9.8,21.2-11.4c10.7-2,21.4-2,32.2-0.2
		c2.2,0.4,4.2,0.9,6.3,1.6c12.3,4,18.5,13,21,25.2c0.4,2.2,0,2.9-2.2,3.1c-2,0.2-4,0.4-6,0.7c-6,0.4-11.8,0.9-17.9,1.1
		c-3.6,0.2-3.6,0.2-4.7-2.9c-3.1-9.2-12.1-13.2-21.2-9.6c-1.8,0.7-3.1,1.8-4,3.4c-2,3.4-1.3,6.7,1.8,8.9c1.6,1.1,3.6,1.8,5.6,2.2
		c4.7,1.1,9.4,2.2,13.8,3.4c7.8,2,15.9,4.2,23,8.3c4.7,2.7,8.9,6,11.6,10.9c5.6,9.8,5.4,19.9,0.7,29.9c-3.8,8.5-10.7,14.3-19.2,17.6
		c-2.7,1.1-5.8,1.8-8.5,2.5c-0.9,0.2-2,0.2-2.7,1.1C2319,950,2309.2,950,2299.2,950z"/>
	<path class="st0" d="M1398,435.6c-18.1,1.1-36.2,2.2-54.3,3.4c-2.9,0.2-3.6,0-4.2-2.9c-0.9-3.6-1.8-7.4-2.7-10.9
		c-1.1-4.5-2.7-8.7-4.5-13c-5.8-14.1-16.3-23.5-30.6-28.1c-14.5-4.9-29.5-4.9-44-0.2c-13.2,4.2-21,13.4-23.9,26.6
		c-2.2,9.8,0.7,18.1,7.6,25.2c3.6,3.8,8,6.5,12.7,8.7c7.4,3.6,15,6.5,23,8.5c16.3,4.5,32.6,8.7,48.9,13.2
		c20.3,5.4,40.6,11.6,59.9,20.3c13.8,6.3,27,13.8,38.9,23.5c0.7,0.7,1.6,1.3,2.2,1.8c20.5,17.9,27.7,27.5,36,57
		c12.3,43.3,6.9,85.3-15.2,124.6c-11.6,21-27.9,37.7-49.1,49.4c-20.1,10.9-41.1,19.4-63.4,23.9c-19,4-38.2,5.4-57.6,4.5
		c-30.6-1.3-59.9-8.9-87.1-22.8c-19.7-10.1-37.1-23.2-51.6-40.2c-18.5-21.7-30.2-46.7-34.4-75c-1.1-7.1-2-14.3-2-21.4
		c0-2,0.4-2.5,2.5-2.7c1.1-0.2,2.5-0.2,3.6-0.4c15.2-0.9,30.2-1.8,45.3-2.9c20.3-1.3,40.4-2.9,60.7-4.2c0.9,0,2-0.2,2.9-0.2
		c2.9,0,3.1,0,3.4,2.7c0.9,7.8,2.2,15.4,4.7,22.8c2.7,8.5,6.5,16.8,11.6,24.1c8.9,12.7,20.5,21.4,36,24.8
		c12.5,2.9,25.2,3.8,37.7,0.7c12.1-3.1,22.6-8.9,30.2-19c13-16.8,12.1-38.4-2-54.3c-5.1-5.8-11.6-10.3-18.5-13.8
		c-10.3-5.4-21-9.6-32.2-13c-17.2-5.4-34.6-10.5-52-15.6c-15.4-4.7-30.8-9.8-45.3-16.5c-7.8-3.6-15.2-7.8-22.3-12.5
		c-24.8-16.5-40.4-39.1-47.1-68.1c-3.1-13.6-4.7-27.5-4-41.5c1.1-29.7,12.3-55.4,32.8-76.8c12.1-12.5,26.1-22.1,41.5-29.7
		c21.2-10.3,43.6-16.5,66.8-19.2c15.6-2,31.5-2.2,47.1-0.9c27.2,2.2,53.4,8.7,77.7,21.4c17.2,8.9,32.2,20.5,44.4,35.5
		c11.2,13.8,19,29.3,23.5,46.5c2.2,8.5,4,17,5.4,25.7c1.3,9.4,1.1,7.8-6.7,8.3C1432.8,433.6,1415.4,434.8,1398,435.6L1398,435.6z"/>
	<path class="st0" d="M1935.6,762.8c-1.8,0.9-3.4,0.7-4.9,0.7c-39.8,0-79.3,0-119,0c-1.1,0-2.5,0-3.6,0c-1.6,0-2.7-0.7-2.9-2.2
		c-1.8-6.5-3.8-13-5.6-19.4c-4.5-15.9-8.7-31.9-13.2-47.8c-1.8-6.3-1.3-5.6-7.1-5.6c-43.8,0-87.6-0.2-131.5-0.2c-0.9,0-2,0-2.9,0
		c-1.3,0-2.2,0.7-2.7,2c-0.7,1.8-1.1,3.8-1.6,5.8c-5.8,21-11.4,41.8-17.2,62.8c-1.3,4.9-1.3,4.9-6.3,4.9c-38,0-76.2,0-114.1,0
		c-2.2,0-4.5,0-6.5,0c-1.1-2,0-3.6,0.4-5.4c4.7-13.8,9.4-27.5,14.3-41.1c44-127.8,88-255.5,132.2-383c2.7-7.8,5.4-15.4,8-23.2
		c0.7-2,1.8-2.9,3.8-2.9c0.9,0,2,0,2.9,0c39.8,0,79.7,0.2,119.5,0.4c7.4,0,6-0.9,8.5,6.3c36,107.7,72.1,215.5,108.1,323.2
		c13.4,39.8,26.6,79.5,40,119.5C1934.4,759,1934.9,761.1,1935.6,762.8z M1669.6,589.5c8.7,0.7,83.5,0.4,88-0.2
		c0-0.7,0.2-1.1,0.2-1.8c-14.1-52.5-28.4-105.2-42.7-157.7c-0.2-0.4-0.7-0.9-1.3-1.8C1699,482.1,1684.3,535.7,1669.6,589.5z"/>
	<path class="st0" d="M309.6,770c-2.7-0.9-3.8-2.5-4.9-3.6c-55.4-52.9-110.6-105.6-165.9-158.6c-0.9-0.9-1.8-1.6-2.7-2.5
		c-1.8-1.8-1.8-2,0-3.8c3.8-3.6,7.4-7.1,11.2-10.7c52-49.8,104.3-99.6,156.3-149.4c5.8-5.6,4.2-5.8,9.8,0
		c51.1,52.5,102.5,104.7,153.7,157.2c5.6,5.8,5.6,4.2,0,9.8C416.4,660.3,365.7,712.1,315,764C313.4,765.7,311.6,768,309.6,770z"/>
	<path class="st0" d="M491.9,250.5c4.9,4,159.7,162.6,163,167.1c-54,55.4-108.1,110.8-162.4,166.4c-2.5-1.3-3.8-3.1-5.4-4.9
		c-27.7-28.4-55.4-56.7-83.1-85.1C380.6,470,357.4,446.1,334,422c-1.6-1.6-3.4-2.9-4.5-5.4C383.5,361.5,437.6,306.1,491.9,250.5z"/>
	<path class="st1" d="M857,583.9c-54.5-55.8-108.3-111-162.1-166.4c3.8-4.9,158.4-163.5,162.1-166.4c1.8,0.4,2.7,1.8,3.6,2.9
		c34.2,34.8,68.3,69.7,102.5,104.5c17.4,17.9,34.8,35.5,52.3,53.4c5.8,5.8,5.8,4.2,0.2,9.8c-36.2,37.1-72.6,73.9-108.8,111
		c-15,15.2-29.9,30.4-44.7,45.8C860.6,580.4,859,581.9,857,583.9z"/>
	<path class="st1" d="M675,770c-1.8-1.8-3.4-3.1-4.7-4.5c-29.3-30.2-58.7-60.1-88-90.2c-22.1-22.8-44.2-45.3-66.3-68.1
		c-0.9-0.9-1.6-1.8-2.5-2.7s-0.7-1.8,0.2-2.7c0.9-1.1,2-2,2.9-2.9c22.3-23,44.7-45.8,67.2-68.8c28.8-29.5,57.6-59,86.4-88.4
		c1.6-1.6,3.1-3.1,4.5-4.5c2.2,0.9,3.4,2.7,4.7,4c49.6,50.7,99.2,101.4,148.7,151.9c2.9,2.9,5.8,6,8.7,9.2c0.7,0.9,0.7,1.8,0,2.7
		c-0.9,1.1-2,2-2.9,3.1c-46.9,48-93.8,95.8-140.9,143.8c-4.7,4.7-9.2,9.4-13.8,14.1C678.1,767.1,676.8,768.4,675,770z"/>
	<path class="st1" d="M1039.5,604c0,52.5,0,105.2,0,157.7c0,2,0,4-0.2,6c0,0.9-1.1,1.1-1.8,0.7c-0.4-0.4-0.9-0.7-1.3-1.1
		c-0.9-0.9-1.8-1.6-2.5-2.5c-35.1-36-69.9-71.9-105-108.1c-13.2-13.6-26.4-27.2-39.5-40.9c-2.7-2.7-5.4-5.4-8-8
		c-1.1-1.1-2.2-2.2-2.9-3.8c-0.4-1.1-0.4-2,0.4-2.7c0.4-0.4,0.9-0.9,1.1-1.3c8.9-9.2,17.9-18.3,26.6-27.5c15.6-16.1,31-32.2,46.7-48
		c19-19.4,38-38.6,56.7-58.1c8.5-8.7,17-17.4,25.5-26.1c0.7-0.7,1.3-1.3,2-2c0.7-0.4,1.8-0.2,1.8,0.7c0.2,2,0.2,4,0.2,6
		c0,36,0,72.1,0,108.1C1039.5,570.1,1039.5,587.1,1039.5,604z"/>
	<path class="st1" d="M2043,946.4c0.9-2.5,1.8-4.5,2.7-6.7c11.4-30.6,23-61.2,34.4-91.6c2.2-6,1.8-5.1,7.6-5.1c8.3,0,16.3,0,24.6,0
		c6.3,0,5.4-0.4,7.6,5.4c6.3,17,12.7,33.9,19,50.9c5.6,14.7,10.9,29.5,16.3,44.2c0.4,1.6,1.3,2.9,1.1,4.5c-0.9,0.9-1.8,0.7-2.7,0.7
		c-8.7,0-17.4,0-26.4,0c-4,0-4,0-5.4-4c-1.1-3.6-2.2-7.1-3.4-10.7c-0.4-1.8-1.6-2.7-3.4-2.7c-10.3,0-20.8,0-31,0
		c-2.7,0-2.7,0.2-3.8,2.9c-1.3,4-2.5,8-3.8,12.1c-0.4,1.8-1.6,2.7-3.4,2.7c-0.9,0-2,0-2.9,0c-19.4,0-39.1,0-58.5,0
		c-0.9,0-1.6,0-2.5,0c-2.2,0.2-3.8-0.7-4.7-2.7c-2.9-5.8-6-11.6-9.2-17.4c-2.9-5.4-5.6-10.5-8.5-15.6c-2.5-4.5-6.5-6.7-11.8-6.9
		c-2.2,0-2.9,0.4-2.9,2.7c0,9.2,0,18.3,0,27.5c0,3.1,0,6.5,0,9.6c0,2.5-0.4,2.9-2.7,2.9c-9.2,0-18.3,0-27.5,0
		c-1.3,0-2.2-0.7-2.2-2.2c0-1.3,0-2.7,0-4.2c0-31,0-62.1,0-93.1c0-1.3,0-2.7,0-4.2c0-1.1,0.7-1.8,1.8-1.8c1.3,0,2.7,0,4.2,0
		c15.9,0,31.9,0,47.8,0c6.5,0,13.2,0.4,19.7,1.8c13.4,3.1,20.5,12.1,21.2,25.9c0.4,10.9-3.6,19.9-12.3,26.4c-2.7,2-6,3.1-9.2,4.2
		c-0.4,0.2-1.3,0.2-1.1,1.1c0,0.2,0.4,0.7,0.7,0.9c8,3.1,12.1,10.1,16.1,17c4.2,7.4,7.8,15.2,11.8,22.8
		C2040.5,944,2040.7,945.5,2043,946.4z M1972,874.7L1972,874.7c-0.2,2.7-0.2,5.1,0,7.8c0,2.5,0.4,2.9,2.7,2.9c4.7,0,9.2,0,13.8-0.2
		c2.2,0,4.5-0.7,6.5-1.1c4.5-1.3,6.9-4.9,6.9-9.4c0-4.9-2.5-8.3-7.4-9.6c-6.9-2-13.8-1.1-20.8-0.9c-0.9,0-1.6,0.7-1.6,1.6
		C1972,868.7,1972,871.6,1972,874.7z M2088.8,908c6.7,0,13.2,0,19.7,0c1.6,0,2-0.9,1.6-2.5c-3.4-10.7-6.5-21.7-9.8-32.4
		c0-0.2-0.7-0.4-1.3-0.7c-3.6,10.9-6.9,21.9-10.1,32.8C2088.5,906,2088.8,906.7,2088.8,908z"/>
	<path class="st1" d="M1384.3,895.5c0-15.4,0-30.6,0-46c0-1.6,0-3.1,0-4.7c0-1.1,0.9-1.8,2-1.8s2.5,0,3.6,0c23,0,46.2,0,69.2,0
		c5.4,0,5.4,0,5.4,5.1c0,4.5,0,8.7,0,13.2s0,4.5-4.7,4.5c-1.3,0-2.7,0-4.2,0c-11.2,0-22.3,0-33.5,0c-5.1,0-5.1,0-5.4,5.4
		c0,3.1,0,6.5,0,9.6c0,3.4,0.2,3.6,3.8,3.6c9.4,0,18.8,0,28.1,0c2.2,0,4.5,0,6.5,0c1.6,0,2.2,0.9,2.2,2.2c0,5.6,0,11.2,0,16.8
		c0,1.3-0.7,2.2-2.2,2.2c-1.3,0-2.7,0-4.2,0c-9.2,0-18.3,0-27.5,0c-1.6,0-3.1,0-4.7,0c-1.1,0-1.8,0.7-2,1.8c0,1.6,0,3.1,0,4.7
		c0,10.1,0,19.9,0,29.9c0,1.6,0,3.1-0.2,4.7c0,0.9-0.7,1.6-1.6,1.6c-0.9,0.2-1.6,0.2-2.5,0.2c-8.3,0-16.3,0-24.6,0
		c-0.9,0-1.6,0-2.5-0.2c-0.9,0-1.6-0.7-1.6-1.6c-0.2-1.6-0.2-3.1-0.2-4.7C1384.3,926.6,1384.3,910.9,1384.3,895.5z"/>
	<path class="st1" d="M1524.4,842.8c14.1,0,28.4,0,42.4,0c1.3,0,2.7,0,4.2,0c1.8,0,2.5,0.7,2.5,2.5c0,4.7,0,9.6,0,14.3
		c0,2.7,1.1,6-0.7,8c-2,2.5-5.6,0.9-8.5,0.9c-6.7,0.2-13.6,0-20.3,0c-2.9,0-3.4,0.4-3.6,3.6c0,1.6,0,3.1,0,4.7c0,21.2,0,42.7,0,63.9
		c0,1.6,0,3.1,0,4.7c-0.2,2.2-0.7,2.7-2.9,2.7c-8.9,0-17.9,0-26.8,0c-2,0-2.5-0.7-2.7-2.5c0-1.6,0-3.1,0-4.7c0-21.7,0-43.3,0-65
		c0-1.8,0-3.6,0-5.4c0-1.1-0.7-1.8-2-1.8c-1.6,0-3.1,0-4.7,0c-7.8,0-15.6,0-23.2,0c-2.9,0-3.1-0.4-3.1-3.1c0-6.5,0-13.2,0-19.7
		c0-2.7,0.7-3.1,3.1-3.4c5.6,0,11.2,0,16.8,0C1504.5,842.8,1514.3,842.8,1524.4,842.8z"/>
	<path class="st1" d="M1197.9,842.8c13.8,0,27.9,0,41.8,0c1.3,0,2.7,0,4.2,0c2.9,0,3.4,0.4,3.4,3.6c0,6.5,0,13.2,0,19.7
		c0,2.5-0.4,2.7-2.9,2.7c-7.6,0-15.2,0-22.8,0c-1.3,0-2.7,0-4.2,0c-2.5,0-2.9,0.4-2.9,2.7c0,1.6,0,3.1,0,4.7c0,22.1,0,44.2,0,66.3
		c0,6,0.2,5.8-5.8,5.8c-7.8,0-15.6,0-23.2,0c-2.9,0-3.4-0.4-3.6-3.6c0-1.8,0-3.6,0-5.4c0-21,0-41.8,0-62.8c0-1.3,0-2.7,0-4.2
		c0-3.6-0.4-3.8-3.8-3.8c-6.5,0-12.7,0-19.2,0c-2.7,0-5.1,0-7.8,0c-2,0-2.5-0.4-2.5-2.5c0-4.7-0.2-9.6,0-14.3c0-2.7-1.1-6,0.7-8
		c2-2.5,5.6-0.9,8.5-0.9C1171.3,842.6,1184.5,842.8,1197.9,842.8z"/>
</g>
</svg>
