<?xml version="1.0" encoding="utf-8"?>
<!-- Generator: Adobe Illustrator 25.0.0, SVG Export Plug-In . SVG Version: 6.00 Build 0)  -->
<svg version="1.1" id="Слой_1" xmlns="http://www.w3.org/2000/svg" xmlns:xlink="http://www.w3.org/1999/xlink" x="0px" y="0px"
	 viewBox="0 0 2500 1200" style="enable-background:new 0 0 2500 1200;" xml:space="preserve">
<style type="text/css">
	.st0{fill:#27A0D9;}
	.st1{fill:#2C4A84;}
</style>
<g>
	<path class="st0" d="M1747.6,422.3c-0.7,0-1,0.6-1.4,1c-16.4,16.5-32.9,33.1-49.3,49.6c-29.5,29.7-59,59.5-88.5,89.2
		c-1,1-2.1,2.1-3.1,3.1c-0.8,0.8-1.6,0.6-2.3-0.1c-0.8-0.8-1.7-1.7-2.5-2.5c-45.5-45.5-91-90.9-136.4-136.4
		c-0.8-0.8-1.7-1.7-2.5-2.5s-0.6-1.5,0.1-2.3c0.7-0.7,1.4-1.5,2.1-2.2c13.6-14.1,27.3-28.2,40.9-42.3c12.5-13,25-25.9,37.4-38.9
		c1-1,1.9-2.3,3.3-2.9c1.4,0.7,2.3,1.9,3.3,2.9c27.6,27.6,55.3,55.3,82.9,82.9c3.9,3.9,3.9,3.2,0,7c-7.7,7.5-15.5,15-23.2,22.5
		c-0.6,0.6-1.3,1.2-2,1.8c-0.5,0.4-1.1,0.4-1.6,0c-1-0.9-1.9-1.8-2.9-2.7c-17.8-17.8-35.7-35.7-53.5-53.5c-1.1-1.1-2.3-2.3-3.3-3.2
		c-1.2-0.2-1.6,0.5-2.1,1c-8.6,8.5-17.1,17.1-25.7,25.6c-0.5,0.5-1,1.1-1.5,1.6c-0.4,0.5-0.4,1.1,0,1.6c0.7,0.8,1.4,1.5,2.1,2.2
		c26.7,26.7,53.4,53.4,80.1,80.1c0.7,0.7,1.5,1.4,2.2,2.2c0.6,0.6,1.3,0.6,2,0.1c0.8-0.7,1.5-1.4,2.2-2.1
		c26.8-26.8,53.6-53.6,80.4-80.4c0.5-0.5,1.1-1,1.6-1.6c1.2-1.3,1.2-1.6-0.1-2.9c-0.9-1-1.9-1.9-2.8-2.8
		c-35.5-35.5-70.9-70.9-106.4-106.4c-4.7-4.7-4.7-3.4,0.1-8.3c7.6-7.6,15.2-15.2,22.8-22.8c1-1,1.9-2.3,3.3-2.9
		c1.3,0.5,2.1,1.6,3,2.6c45.8,45.8,91.6,91.6,137.4,137.3c1.2,1.2,2.4,2.6,3.6,3.8C1747.6,421.1,1747.6,421.7,1747.6,422.3z"/>
	<path class="st0" d="M968.8,1100.2c-0.1,0.5,0.1,0.8,0.6,0.9c-3.5,0-7.1,0-10.6,0c0.4-0.2,0.6-0.5,0.5-0.9
		C962.5,1100.2,965.7,1100.2,968.8,1100.2z"/>
	<path class="st1" d="M1075.5,742.9c-5.1-4.4-142.8-141.3-145-144.1c1-1,2-2.1,3-3.1c45.6-45.6,91.2-91.1,136.7-136.7
		c0.7-0.7,1.4-1.5,2.2-2.2c1.3-1.2,1.6-1.2,2.9,0.1c2.3,2.1,4.5,4.3,6.7,6.4c25.4,24.5,50.8,48.9,76.2,73.4c0.6,0.6,1.3,1.2,1.9,1.8
		c1.7,1.7,1.7,1.7,0,3.5c-0.5,0.5-1,1-1.6,1.6c-27.6,27.6-55.3,55.3-82.9,82.9c-4,4-3,4.1-6.9,0.1c-7.6-7.8-15.2-15.7-22.8-23.5
		c-0.7-0.7-1.4-1.5-2.2-2.4c2.6-3.4,5.7-6,8.6-8.9c2.8-2.9,5.6-5.6,8.4-8.5c2.9-2.9,5.8-5.8,8.8-8.8c2.9-2.9,5.8-5.8,8.8-8.8
		s5.8-5.8,8.8-8.8c2.8-2.8,5.6-5.6,8.4-8.4c2.9-2.9,5.8-5.8,8.6-8.7c-2.2-2.9-23.9-24.7-29.1-29.4c-1.2,0.1-1.7,1-2.4,1.8
		c-27.2,27.2-54.5,54.4-81.7,81.6c-0.5,0.5-1,1.1-1.5,1.6c-0.6,0.6-0.7,1.3-0.1,1.9c0.8,0.9,1.6,1.7,2.5,2.5
		c26.6,26.6,53.2,53.2,79.8,79.8c4,4,2.9,3.9,6.9-0.2c35.9-35.9,71.8-71.7,107.7-107.6c4.3-4.3,3.1-4.2,7.2-0.1
		c7.9,7.8,15.7,15.6,23.5,23.5c0.8,0.8,1.7,1.7,2.5,2.5c0.5,0.5,0.4,1.1,0,1.6c-0.7,0.8-1.4,1.5-2.2,2.2
		c-46.3,46.3-92.6,92.6-138.9,138.9C1077.5,741.1,1076.6,741.9,1075.5,742.9z"/>
	<path class="st0" d="M1220.6,418.9c1.4-1.4,2.4-2.5,3.5-3.5c7.7-7.5,15.5-15,23.2-22.4c0.6-0.6,1.3-1.2,1.9-1.8
		c0.5-0.4,1.1-0.4,1.6,0c1,0.9,1.9,1.8,2.8,2.8c17.9,17.9,35.9,35.9,53.8,53.8c3.9,3.9,3,3.9,7-0.1c7.6-7.6,15.2-15.2,22.8-22.8
		c0.7-0.7,1.4-1.5,2.2-2.2c0.8-0.8,0.6-1.5-0.1-2.3c-0.8-0.8-1.7-1.7-2.5-2.5c-26.4-26.4-52.8-52.8-79.2-79.1
		c-1.1-1.1-2-2.5-3.6-3.1c-3.7,3-84,83.4-86,86.1c0.6,1.6,2,2.5,3.1,3.6c12.3,12.3,24.6,24.6,36.9,36.9
		c23.6,23.6,47.2,47.1,70.7,70.7c4,4,4,3.1,0.1,7c-7.8,7.8-15.6,15.7-23.5,23.5c-1,1-2.1,2-3.2,3c-0.5-0.3-1-0.4-1.3-0.7
		c-47.8-47.7-95.6-95.5-143.4-143.3c0.6-1.8,2-2.7,3.1-3.8c20.6-20.7,41.2-41.4,61.8-62.2c25.2-25.3,50.3-50.7,75.4-76
		c1.1-1.1,2.3-2.2,3.4-3.2c1.5,0.6,2.3,1.8,3.2,2.7c45.8,45.8,91.6,91.6,137.4,137.3c0.5,0.5,1.1,1,1.6,1.6c1.5,1.6,1.6,2-0.1,3.6
		c-9.3,9.7-18.6,19.3-27.9,29c-17.2,17.8-34.4,35.7-51.6,53.5c-3.9,4-3.1,4.1-7,0.2c-27.7-27.6-55.3-55.3-82.9-82.9
		C1222.9,421.3,1221.9,420.2,1220.6,418.9z"/>
	<path class="st0" d="M1543.5,568.6c1.1,0.3,1.7,1.2,2.4,1.9c8.5,8.4,16.9,16.9,25.4,25.3c0.5,0.5,1,1,1.5,1.6c0.6,0.6,0.6,1.3,0,2
		c-0.7,0.8-1.4,1.5-2.2,2.2c-46.2,46.2-92.4,92.4-138.6,138.6c-0.6,0.6-1.3,1.2-1.9,1.9c-0.8,0.8-1.6,0.6-2.3-0.1
		c-0.8-0.8-1.7-1.7-2.5-2.5c-19.8-19.7-39.5-39.3-59.3-59c-26.1-25.9-52.2-51.7-78.2-77.6c-1.2-1.2-2.8-2.2-3.4-4
		c0.7-1.5,1.9-2.3,2.9-3.4c45.6-45.6,91.2-91.2,136.8-136.7c4-4,3.1-3.8,7.1,0c21.6,20.8,43.1,41.6,64.7,62.4
		c5.4,5.2,10.9,10.4,16.3,15.6c0.8,0.8,1.7,1.6,2.5,2.5c0.5,0.6,0.6,1.3,0,2c-0.8,0.9-1.6,1.7-2.5,2.5
		c-27.6,27.6-55.3,55.3-82.9,82.9c-1,1-1.9,2.2-3.2,2.8c-1.2-0.3-1.8-1.2-2.5-1.9c-8-8.3-16-16.5-24-24.8c-0.4-0.4-0.8-0.9-1.2-1.3
		c-0.6-0.7-0.4-1.4,0.1-2c0.9-1,1.8-1.9,2.8-2.9c17.6-17.6,35.3-35.2,52.9-52.9c4.8-4.8,4.8-3.6,0.1-8.3
		c-7.4-7.4-14.8-14.8-22.2-22.2c-1-1-2.1-2-3.1-3c-3.2,2.4-84,83.3-86.1,86.2c0.4,0.5,0.8,1.2,1.3,1.7
		c28.1,28.2,56.3,56.3,84.4,84.4c1.9-0.6,2.8-2,3.9-3.1c22.5-22.5,45.1-45,67.6-67.6c13.5-13.5,26.9-26.9,40.4-40.4
		C1541.2,570.5,1542.1,569.3,1543.5,568.6z"/>
	<path class="st1" d="M896.7,390.4c20.3,20.3,40.4,40.4,60.6,60.6c3.1-2.2,5.3-4.9,7.8-7.4c2.4-2.4,4.8-4.8,7.2-7.2
		c2.5-2.5,5-5,7.5-7.5c2.4-2.4,4.8-4.7,7.1-7.1c-2.3-3-82.8-83.6-86.1-86.2c-3.5,2.6-64,62.7-84.7,84.1c-0.6,0.6-1.4,1.1-1.5,2.4
		c37.9,37.9,76,76,113.9,113.8c0.2,1.4-0.7,1.8-1.3,2.4c-8.7,8.8-17.5,17.5-26.3,26.3c-0.5,0.5-1.1,1-1.6,1.5
		c-0.4,0.3-0.8,0.3-1.2-0.1c-1-0.9-1.9-1.8-2.9-2.8c-30.9-30.9-61.7-61.7-92.6-92.6c-15-15-30-30-45.1-45.1
		c-1.1-1.1-2.2-2.3-3.5-3.7c48-48.5,95.9-96.6,143.7-144.7c1.4,0.3,2,1.2,2.7,1.9c46.2,46.2,92.4,92.4,138.6,138.6
		c3.1,3.1,2.9,2.6-0.1,5.8c-22.1,22.9-44.2,45.9-66.3,68.8c-4.4,4.6-8.8,9.1-13.2,13.7c-0.6,0.6-1.2,1.3-1.9,1.8
		c-0.3,0.3-0.8,0.3-1.2,0c-1-0.9-1.9-1.8-2.9-2.8c-24.5-24.5-49-49-73.5-73.5c-3.9-3.9-7.7-7.7-11.6-11.6c-0.7-0.7-0.9-1.5-0.1-2.3
		c0.5-0.5,1-1,1.6-1.6c8.5-8.2,17-16.4,25.4-24.6C895.5,391.3,895.9,391,896.7,390.4z"/>
	<path class="st1" d="M1074.3,389.3c-0.9-0.8-1.7-1.5-2.4-2.2c-8.4-8.3-16.7-16.7-25-25c-0.7-0.7-1.4-1.5-2.1-2.3
		c-0.3-0.3-0.3-0.8,0-1.2c0.7-0.8,1.4-1.5,2.1-2.3c5.3-5.3,10.6-10.6,16-16c30.8-30.8,61.5-61.5,92.3-92.3c1.1-1.1,3-2,3.1-3.6
		c0.1-1.8-2-2.7-3.2-3.9c-26.3-26.3-52.5-52.6-78.8-78.9c-4.4-4.4-3.3-4.5-7.6-0.2c-26.5,26.5-53,53-79.5,79.5
		c-0.6,0.6-1.3,1.2-1.9,1.9c-1.2,1.3-1.2,1.5,0.1,2.9c1,1.1,2.1,2.1,3.1,3.1c7.2,7.2,14.4,14.4,21.6,21.6c0.8,0.8,1.7,1.7,2.5,2.5
		c0.6,0.6,1.3,0.6,1.9-0.1c0.9-0.9,1.9-1.9,2.8-2.8c17.5-17.5,35-35,52.6-52.6c0.6-0.6,1.3-1.3,1.9-1.9c2.9-2.9,2.5-2.9,5.4,0
		c7.8,7.6,15.7,15.2,23.5,22.8c1,0.9,2,1.7,2.8,2.4c0,0.6,0,0.8-0.1,0.9c0,0.1-0.1,0.3-0.2,0.4c-28.9,28.9-57.7,57.8-86.6,86.7
		c-0.7,0.7-1.5,1.4-2.1,1.9c-0.4,0.1-0.5,0.2-0.7,0.1c-0.1,0-0.3-0.1-0.4-0.2c-27.8-28.8-55.5-57.5-83.2-86.3
		c-0.3-0.3-0.5-0.7-0.8-1.3c47.3-47.3,94.7-94.7,142-142c0.4-0.4,0.9-0.7,1.3-1c3.2,2.5,141.3,141.5,143.8,144.7
		C1216.7,247.4,1079.4,384.8,1074.3,389.3z"/>
	<path class="st0" d="M1338.8,244.4c5.1,5.9,26.7,27.2,29.6,29.2c1.1-1.1,2.3-2.2,3.4-3.3c17.9-17.9,35.9-35.9,53.8-53.8
		c4-4,3-3.8,7,0.1c7.4,7.2,14.9,14.3,22.3,21.5c0.8,0.8,1.7,1.7,2.5,2.5c0.8,0.8,0.6,1.5-0.1,2.3c-0.7,0.7-1.4,1.5-2.2,2.2
		c-27.6,27.6-55.3,55.3-83,82.9c-3.9,3.9-3,4.1-6.9-0.1c-23.9-24.7-47.7-49.5-71.6-74.2c-2.9-3-5.7-6-8.5-9c-1-1.1-1-1.6,0-2.6
		c0.8-0.9,1.6-1.7,2.5-2.5c45.4-45.5,90.8-90.9,136.2-136.3c1.1-1.1,2.1-2.5,3.6-3.2c0.2,0,0.3,0,0.5,0.1c0.1,0,0.3,0.1,0.4,0.2
		c1,0.9,1.9,1.8,2.9,2.8c46.5,46.9,93.1,93.9,139.6,140.8c0.2,0.2,0.3,0.5,0.4,0.8c-0.2,1.1-1.1,1.7-1.7,2.4
		c-0.7,0.8-1.5,1.5-2.2,2.2c-45.5,45.5-91,91-136.5,136.4c-1.1,1.1-2.3,2.2-3.3,3.2c-1.3,0.1-1.8-0.7-2.4-1.3
		c-8.7-8.6-17.3-17.3-26-26c-0.5-0.5-1-1.1-1.5-1.6c-0.4-0.5-0.5-1.1,0-1.6c0.9-1,1.8-1.9,2.8-2.9c35.8-35.8,71.6-71.6,107.4-107.3
		c0.9-0.9,1.9-1.9,2.8-2.8c0.8-0.8,0.6-1.5-0.1-2.3c-0.8-0.8-1.7-1.7-2.5-2.5c-26.4-26.4-52.8-52.8-79.2-79.2
		c-4.2-4.2-3.3-4.2-7.4-0.1c-26.5,26.5-53,53-79.5,79.5C1340.8,241.9,1339.5,242.8,1338.8,244.4z"/>
	<path class="st1" d="M1363,1016.7c-0.1-1.9,0.9-3.3,1.5-4.8c16-39.2,31.9-78.3,47.9-117.5c11.1-27.3,22.3-54.6,33.4-81.8
		c0.1-0.3,0.2-0.5,0.3-0.8c1.9-4.5,1.2-4.1,6-4.1c10.6,0,21.2,0,31.9,0c0.9,0,1.8,0,2.7,0c1,0,1.7,0.4,2.1,1.3
		c0.4,0.9,0.8,1.9,1.2,2.9c25.8,66.8,51.6,133.6,77.4,200.4c2.1,5.3,2.1,4.7-3.4,4.7c-11.1,0-22.1,0-33.2,0c-1,0-2.1,0-3.1,0
		s-1.6-0.5-2-1.4c-0.4-0.8-0.7-1.6-1-2.5c-17.4-45.5-34.9-91.1-52.4-136.6c-0.6-1.5-0.8-3.1-2.3-4.4c-8.1,18.9-16,37.6-24,56.3
		c-0.1,0.2,0.1,0.6,0.1,0.9c1.4,0.6,2.8,0.3,4.3,0.3c9.9,0,19.8,0,29.7,0c1,0,2.1,0,3.1,0c1.4-0.1,2.2,0.5,2.6,1.8
		c1.2,4.1,2.5,8.2,3.8,12.2c2.8,8.8,5.6,17.7,8.4,26.5c0.3,1,0.6,2,0.9,3c0.2,0.9-0.2,1.3-1.2,1.4c-1.3,0-2.7,0-4,0
		c-19.8,0-39.5,0-59.3,0c-6,0-4.7-0.9-6.7,4.7c-4,10.9-8,21.9-11.9,32.8c-0.4,1.1-0.8,2.2-1.2,3.3s-1.2,1.6-2.3,1.6
		c-0.3,0-0.6,0-0.9,0c-15.6,0-31.3,0-46.9,0C1363.9,1016.9,1363.6,1016.8,1363,1016.7z"/>
	<path class="st1" d="M1023.8,948c-1.4,0.9-2,2.5-2.9,3.8c-12.8,20-25.6,40-38.4,59.9c-3.3,5.1-1.9,4.2-7.6,4.2
		c-13.1,0-26.3,0-39.4,0c-1.5,0-2.9,0-4.3,0c-0.6-1.6,0.6-2.4,1.2-3.3c8.1-11.6,16.3-23.2,24.4-34.7c13.9-19.8,27.8-39.6,41.8-59.3
		c1.5-2.2,2-4.4,2.2-6.9c0.4-4.8-1.1-8.7-3.8-12.7c-19.8-29.1-39.4-58.4-59.1-87.7c-0.7-1-1.3-2-1.9-3c-0.3-0.6,0.1-1.1,0.8-1.2
		c1-0.1,2.1-0.1,3.1-0.1c13.1,0,26.3,0,39.4,0c0.7,0,1.5,0,2.2,0c1.1,0,2,0.3,2.6,1.3c0.6,1,1.3,2,1.9,3
		c42.4,66.5,84.8,133,127.2,199.5c0.7,1.1,1.4,2.2,2.1,3.4c0.6,1,0.1,1.6-1.1,1.6c-4.1,0-8.3,0-12.4,0c-8.4,0-16.8-0.1-25.2,0.1
		c-2.4,0-3.8-0.8-5.1-2.6c-9.7-13.7-19.6-27.3-29.4-41c-5.3-7.3-10.5-14.6-15.8-21.9C1025.5,949.6,1025,948.5,1023.8,948z"/>
	<path class="st1" d="M1339.2,1016.6c-1.1,0.6-2.2,0.4-3.2,0.4c-12.1,0-24.2,0-36.3,0c-0.7,0-1.5,0-2.2,0c-1.1,0-1.6-0.6-2-1.4
		c-0.4-1-0.7-1.9-1-2.9c-12.2-34.9-24.3-69.8-36.5-104.7c-11.1-31.7-22.1-63.4-33.2-95.1c0-0.1-0.1-0.3-0.2-0.4
		c-1.9-5.6-2.2-5.2,3.5-5.2c10.6,0,21.2,0,31.9,0c1.2,0,2.4,0,3.5,0.1c0.6,0,1.1,0.3,1.3,1c0.4,1.1,0.8,2.2,1.2,3.3
		c18.5,51.7,37,103.4,55.5,155.2c5.5,15.3,10.9,30.5,16.4,45.8C1338.5,1013.8,1339.2,1015.1,1339.2,1016.6z"/>
	<path class="st1" d="M1188.1,911.8c0,32.7,0,65.5,0,98.2c0,0.9,0,1.8,0,2.7c0,4.6,0.2,4.3-4.3,4.3c-11.2,0-22.4,0-33.6,0
		c-0.9,0-1.8,0-2.7,0c-1.4-0.1-1.7-0.4-1.8-2c0-0.9,0-1.8,0-2.7c0-66.8,0-133.6,0-200.4c0-0.6,0-1.2,0-1.8c0.1-2.9,0.1-3,3-3
		c12.1,0,24.2,0,36.3,0c0.6,0,1.2,0,1.8,0.1c0.9,0.1,1.3,0.6,1.3,1.5c0,1.3,0,2.7,0,4C1188.1,845.7,1188.1,878.7,1188.1,911.8z"/>
	<path class="st1" d="M1408.1,807.5c-0.6,3.5-43.9,125.4-64.7,182c-0.4,1.1-0.5,2.3-1.6,3.2c-0.9-0.8-1.1-2-1.6-3
		c-6.9-16.8-13.7-33.5-20.8-50.3c-1.1-2.5-1-4.7-0.1-7.1c10.7-29.8,21.3-59.7,32-89.5c3.7-10.4,7.4-20.8,11.1-31.2
		c0.2-0.7,0.6-1.4,0.8-2.1c0.4-1.5,1.2-2.3,2.8-2.2c0.3,0,0.6,0,0.9,0c13,0,26,0,39,0C1406.6,807.4,1407.4,807.5,1408.1,807.5z"/>
	<path class="st1" d="M1052.4,898.4c-1.1-0.5-1.4-1.5-1.9-2.3c-6-9.5-12-18.9-17.9-28.4c-0.4-0.6-0.8-1.3-1.2-1.9
		c-0.5-0.8-0.6-1.6,0-2.4c0.6-0.8,1.1-1.7,1.7-2.6c11.1-16.7,22.2-33.4,33.3-50.1c0.2-0.4,0.5-0.7,0.7-1.1c1-2,2.6-2.5,4.7-2.4
		c12.7,0.1,25.4,0,38,0c0.7,0,1.5,0,2.2,0.1c0.6,0,0.9,0.7,0.6,1.3c-0.6,1-1.2,2-1.9,3c-18.5,27.9-37.1,55.7-55.6,83.5
		C1054.3,896.2,1053.8,897.7,1052.4,898.4z"/>
	<path class="st1" d="M1240.3,1061c-0.7,1.4-0.4,2.8-0.4,4.2c0,9.6,0,19.2,0,28.8c0,1.2,0,2.4,0,3.5c-0.1,1.7-0.3,2-2.2,2
		c-9.8-0.2-7.9,1.8-8-7.6c-0.1-14,0-28,0-42c0-1.5-0.2-2.9,0.3-4.3c1-0.6,2-0.5,3-0.5c3.2,0,6.5,0,9.7,0c3.4,0,3.4,0,4.4,3.5
		c1.9,7.1,3.8,14.2,5.7,21.4c0.9,3.5,1.9,7,2.9,10.6c1.3-0.6,1.3-1.8,1.6-2.7c2.4-9,4.7-18,7.1-26.9c0.4-1.4,0.7-2.9,1.1-4.3
		c0.3-0.9,0.8-1.5,1.9-1.5c4.4,0,8.9,0,13.3,0c1.4,0,1.7,0.4,1.8,1.9c0,0.7,0,1.5,0,2.2c0,15.3,0,30.7,0,46c0,0.6,0,1.2,0,1.8
		c-0.1,2.3-0.2,2.6-2.6,2.5c-2.4-0.1-5,0.6-7.3-0.5c-0.7-2.3-0.3-4.7-0.3-7c-0.1-9.4,0-18.9,0-28.3c0-1.1,0-2.2-0.1-4.3
		c-1.1,2-1.4,3-1.7,4.2c-2.6,10.4-5.3,20.9-7.9,31.3c-0.1,0.6-0.3,1.2-0.4,1.7c-0.8,3-0.8,3-3.7,3.1c-1.9,0-3.8,0-5.8,0
		c-1.8,0-2-0.2-2.4-1.9c-1.5-6-3-12-4.5-18c-1.4-5.6-2.8-11.1-4.2-16.7C1241.2,1062.3,1241.4,1061.4,1240.3,1061z"/>
	<path class="st1" d="M1507.8,1075.8c6.1,4,9.3,9.5,12.6,14.9c1.6,2.6,3.2,5.3,4.8,7.9c0.1,0.1-0.1,0.3-0.2,0.7
		c-1.1,0.5-2.4,0.3-3.7,0.3c-2.8,0-5.6-0.1-8.4-0.2c-2.1-1.9-3.3-4.5-4.9-6.7c-2-2.9-4-5.9-6-8.8c-0.8-1.2-1.7-2.4-2.7-3.5
		c-1.6-1.9-3.5-3.1-6.1-3.2c-1.3,0-2.6-0.1-4-0.1c-0.9,0-1.3,0.5-1.4,1.4c0,1-0.1,2.1-0.1,3.1c0,4.6,0,9.1,0,13.7c0,1,0,2.1-0.1,3.1
		c0,0.7-0.4,1.2-1.1,1.2c-2.9,0.1-5.9,0.1-8.8,0c-0.6,0-1.1-0.5-1.1-1.1c-0.1-0.9-0.1-1.8-0.1-2.6c0-15.5,0-31,0-46.4
		c0-0.9,0-1.8,0-2.7s0.5-1.3,1.4-1.4c0.4,0,0.9-0.1,1.3-0.1c8.6,0.1,17.1,0.1,25.7,0.2c1.2,0,2.4,0.1,3.5,0.2
		c8.6,1.2,14,8.5,12.7,17.1c-0.9,5.8-4,9.7-9.5,11.7C1510.9,1074.8,1509.8,1075.1,1507.8,1075.8z M1496.9,1054.4L1496.9,1054.4
		c-2.5-0.1-5-0.1-7.5,0c-0.9,0-1.4,0.5-1.4,1.4c0,3.7,0,7.3,0,11c0,0.8,0.5,1.4,1.4,1.4c2.9,0,5.9,0.1,8.8,0
		c2.2-0.1,4.4-0.3,6.6-0.5c2.6-0.3,4.2-1.9,5-4.3c1.4-4.4-1.2-8.4-5.9-8.8C1501.7,1054.2,1499.3,1054.4,1496.9,1054.4z"/>
	<path class="st1" d="M968.8,1100.2c-3.2,0-6.3,0-9.5,0c-1.6-0.3-3.2-0.5-4.7-1c-7.3-2.3-12.6-6.8-15.5-14c-3.2-8-3.6-16.1-0.7-24.2
		c3.5-10,10.7-15.6,21.3-16.7c4.7-0.5,9.4-0.3,14,1.1c6,1.9,10.1,5.9,12.3,11.8c0.2,0.5,0.3,1.1,0.4,1.7c0,0.3-0.1,0.6-0.2,1.2
		c-1.9,0.4-3.9,0.6-5.9,1.2c-2.8,0.8-5,0.8-6.2-2.6c-0.6-1.6-2.2-2.7-3.8-3.6c-6.5-3.5-17.9-1.9-21.2,7.9
		c-2.1,6.2-1.9,12.5,0.3,18.7c2.2,6,7.7,9.5,14.2,9.3c4.1-0.1,7.8-1.5,11.2-3.6c0.9-0.6,1.5-1.3,1.5-2.5c-0.1-5.8,0.8-5.4-5-5.4
		c-1.9,0-3.8,0-5.7,0c-1,0-1.8-0.4-1.8-1.5c0-2.2,0-4.4,0.1-6.6c0-0.6,0.5-1,1.1-1.1c0.3,0,0.6-0.1,0.9-0.1c6.5,0,13,0,19.5,0
		c1.8,0,2.1,0.3,2.1,2.1c0,6,0,12.1,0,18.1c0,1.5-0.8,2.4-1.9,3.2c-3.5,2.6-7.4,4.2-11.5,5.4
		C972.3,1099.7,970.6,1099.9,968.8,1100.2z"/>
	<path class="st1" d="M1196.4,1099.3c-3.8,0.4-7.3,0.2-10.8,0.1c-0.9,0-1.3-0.7-1.5-1.4c-0.9-2.3-1.8-4.7-2.7-7
		c-1.7-4.5-1.2-3.9-5.6-3.9c-5.2,0-10.3,0-15.5,0c-1.6,0-2.4,0.7-2.9,2.1c-1,2.8-2,5.5-3,8.3c-0.5,1.5-1.4,2.1-2.9,2
		c-2.9-0.1-5.9,0-8.6,0c-0.8-1.2-0.1-2,0.2-2.7c6.3-16.3,12.7-32.7,19.1-49c0.2-0.4,0.3-0.8,0.5-1.2c0.3-0.9,0.9-1.5,2-1.5
		c3,0,5.9,0,8.9,0c1,0,1.6,0.6,2,1.4c0.6,1.4,1.1,2.7,1.7,4.1c5.9,14.8,11.8,29.5,17.8,44.3
		C1195.3,1096.3,1195.8,1097.7,1196.4,1099.3z M1169.2,1058.8c-0.6,0.6-1,0.8-1.1,1c-2,5.5-4,11-6,16.5c-0.2,0.5-0.4,1.1,0.4,1.7
		c3.7,0,7.7,0,11.6,0c1.6,0,2-0.6,1.4-2.2C1173.4,1070.2,1171.3,1064.6,1169.2,1058.8z"/>
	<path class="st1" d="M1389,1099.5c2.2-5.7,4.1-10.6,6.1-15.6c4.5-11.7,9.1-23.3,13.6-35c0.3-0.8,0.6-1.7,1-2.5c0.4-0.9,1-1.4,2-1.4
		c2.8,0,5.6,0,8.4,0c1.4,0,2.1,0.7,2.6,1.9c2.1,5.4,4.2,10.7,6.4,16c4.4,10.9,8.8,21.9,13.1,32.8c0.4,1.1,1.2,2.1,0.8,3.7
		c-3.3,0.1-6.7,0-10,0c-1.1,0-1.5-0.7-1.9-1.6c-1-2.5-1.9-4.9-2.9-7.4c-0.3-0.8-0.7-1.6-1-2.4c-0.3-0.6-0.7-0.9-1.4-0.9
		c-0.3,0-0.6,0-0.9,0c-5.9,0-11.8,0-17.7,0c-1.4,0-2.2,0.4-2.7,1.8c-1,2.9-2.2,5.8-3.2,8.7c-0.4,1.3-1.1,1.9-2.5,1.9
		C1395.8,1099.5,1392.7,1099.5,1389,1099.5z M1416,1058c-1.6,4.2-2.8,7.3-3.9,10.5c-1,3.1-2.7,6-3,9.6c4.2,0,8.2,0,12.1,0
		c1.6,0,2-0.6,1.4-2.2C1420.6,1070.2,1418.4,1064.6,1416,1058z"/>
	<path class="st1" d="M1320.9,1072c0-7.2,0-14.5,0-21.7c0-1.2,0-2.4,0.1-3.5c0-0.6,0.4-1.2,1-1.2c2.9,0,5.9,0,8.8,0
		c0.7,0,1,0.6,1,1.2c0.1,1.2,0.1,2.4,0.1,3.5c0,11.5,0,23,0,34.5c0,1,0,2.1,0,3.1c0.1,2.2,0.3,2.5,2.6,2.5c6.6,0,13.3,0,19.9,0
		c1.2,0,2.4,0,3.5,0.1c0.6,0,1.1,0.5,1.2,1.1c0.1,0.7,0.1,1.5,0.1,2.2c-0.1,6.6,0.8,5.7-5.6,5.7c-9.3,0-18.6,0-27.9,0
		c-1.2,0-2.4,0-3.5-0.1c-0.8,0-1.4-0.5-1.4-1.4c0-1,0-2.1,0-3.1C1320.9,1087.4,1320.9,1079.7,1320.9,1072z"/>
	<path class="st1" d="M1084.8,1068.2c0,5.9,0,11.8,0,17.7c0,1,0,2.1,0.1,3.1c0.1,0.8,0.6,1.4,1.4,1.4c1,0.1,2.1,0.1,3.1,0.1
		c6.2,0,12.4,0,18.6,0c1,0,2.1,0,3.1,0.1c0.7,0,1,0.5,1.1,1.2c0.1,1.2,0.1,2.4,0.1,3.5c0,4.7,0.4,4.3-4.3,4.3c-9.9,0-19.8,0-29.6,0
		c-0.9,0-1.8,0-2.7,0c-1.4-0.1-1.7-0.4-1.7-1.9c0-0.4,0-0.9,0-1.3c0-15.8,0-31.5,0-47.3c0-0.7,0-1.5,0.1-2.2
		c0.1-0.6,0.4-1.1,1.1-1.2c0.4-0.1,0.9-0.1,1.3-0.1c2.6,0.2,5.3-0.4,7.9,0.4c1.2,2.5,0.5,5.2,0.5,7.8
		C1084.8,1058.5,1084.8,1063.4,1084.8,1068.2z"/>
	<path class="st1" d="M1035.7,1072.4c0,7.5,0,15,0,22.5c0,1,0,2.1,0,3.1c0,0.9-0.5,1.3-1.3,1.4c-0.4,0.1-0.9,0.1-1.3,0.1
		c-2.6-0.1-5.3,0.3-7.9-0.3c-1.1-2.5-0.5-5.2-0.5-7.8c-0.1-14.1,0-28.3,0-42.4c0-3.9,0-3.9,3.8-3.9c1.9,0,3.8,0,5.7,0
		c1.1,0,1.6,0.6,1.6,1.7c0,1.5,0,2.9,0,4.4C1035.7,1058.3,1035.7,1065.4,1035.7,1072.4z"/>
	<path class="st1" d="M1569.9,1072.8c0,7.4,0,14.7,0,22.1c0,1.2,0,2.4-0.1,3.5c0,0.7-0.5,1-1.1,1.1c-0.6,0-1.2,0.1-1.8,0.1
		c-2.5-0.1-5,0.4-7.4-0.4c-1-2.4-0.5-4.9-0.5-7.4c-0.1-13.5,0-27.1,0-40.6c0-1,0-2.1,0-3.1c0.1-2.9,0.1-2.9,3-3c2.1,0,4.1,0,6.2,0
		c1,0,1.7,0.5,1.7,1.6c0,1.2,0,2.4,0,3.5C1569.9,1057.8,1569.9,1065.3,1569.9,1072.8z"/>
</g>
</svg>
